<?xml version="1.0" standalone="no"?>
<!DOCTYPE svg PUBLIC "-//W3C//DTD SVG 1.1//EN" "http://www.w3.org/Graphics/SVG/1.1/DTD/svg11.dtd" >
<svg>
<metadata>
Created by FontForge 20090914 at Fri Feb 24 16:21:21 2012
 By root
This work is dedicated to the Public Domain
</metadata>
<defs>
<font id="Giro-Outline" horiz-adv-x="510" >
  <font-face 
    font-family="Giro"
    font-weight="400"
    font-stretch="normal"
    units-per-em="1000"
    panose-1="2 0 5 6 2 0 0 2 0 4"
    ascent="655"
    descent="-345"
    x-height="420"
    bbox="-6 -357.125 792 809"
    underline-thickness="20"
    underline-position="-113"
    stemh="48"
    stemv="48"
    unicode-range="U+0020-U+FB02"
  />
<missing-glyph horiz-adv-x="1000" 
 />
    <glyph glyph-name=".notdef" horiz-adv-x="1000" 
 />
    <glyph glyph-name="Eth" unicode="&#xd0;" 
 />
    <glyph glyph-name="eth" unicode="&#xf0;" 
 />
    <glyph glyph-name="Lslash" unicode="&#x141;" 
 />
    <glyph glyph-name="lslash" unicode="&#x142;" 
 />
    <glyph glyph-name="Scaron" unicode="&#x160;" 
 />
    <glyph glyph-name="scaron" unicode="&#x161;" 
 />
    <glyph glyph-name="Yacute" unicode="&#xdd;" horiz-adv-x="969" 
 />
    <glyph glyph-name="yacute" unicode="&#xfd;" horiz-adv-x="1673" 
 />
    <glyph glyph-name="HT" horiz-adv-x="285" 
 />
    <glyph glyph-name="LF" 
 />
    <glyph glyph-name="Thorn" unicode="&#xde;" 
 />
    <glyph glyph-name="thorn" unicode="&#xfe;" 
 />
    <glyph glyph-name="CR" horiz-adv-x="285" 
 />
    <glyph glyph-name="Zcaron" unicode="&#x17d;" 
 />
    <glyph glyph-name="zcaron" unicode="&#x17e;" 
 />
    <glyph glyph-name="DLE" 
 />
    <glyph glyph-name="DC1" 
 />
    <glyph glyph-name="DC2" 
 />
    <glyph glyph-name="DC3" 
 />
    <glyph glyph-name="DC4" 
 />
    <glyph glyph-name="onehalf" unicode="&#xbd;" 
 />
    <glyph glyph-name="onequarter" unicode="&#xbc;" 
 />
    <glyph glyph-name="onesuperior" unicode="&#xb9;" 
 />
    <glyph glyph-name="threequarters" unicode="&#xbe;" 
 />
    <glyph glyph-name="threesuperior" unicode="&#xb3;" 
 />
    <glyph glyph-name="twosuperior" unicode="&#xb2;" 
 />
    <glyph glyph-name="brokenbar" unicode="&#xa6;" 
 />
    <glyph glyph-name="minus" unicode="&#x2212;" 
 />
    <glyph glyph-name="multiply" unicode="&#xd7;" 
 />
    <glyph glyph-name="RS" 
 />
    <glyph glyph-name="US" 
 />
    <glyph glyph-name="space" unicode=" " horiz-adv-x="255" 
 />
    <glyph glyph-name="exclam" unicode="!" horiz-adv-x="174" 
d="M111 580c17 0 30 -6 42 -18s17 -26 17 -43v-314c0 -16 -5 -30 -17 -42s-25 -18 -42 -18c-16 0 -30 6 -42 18s-18 26 -18 42v314c0 17 6 31 18 43s26 18 42 18zM137 205v314c0 17 -9 26 -26 26s-25 -9 -25 -26v-314c0 -17 8 -25 25 -25s26 8 26 25zM111 114
c17 0 31 -5 43 -17c11 -12 16 -26 16 -43c0 -16 -5 -30 -17 -42c-12 -11 -25 -17 -42 -17c-16 0 -30 6 -42 17c-12 12 -18 26 -18 42c0 17 6 31 17 43c12 12 26 17 43 17zM111 29c17 0 26 8 26 25c0 18 -9 27 -26 27s-25 -9 -25 -27c0 -17 8 -25 25 -25z" />
    <glyph glyph-name="quotedbl" unicode="&#x22;" horiz-adv-x="290" 
d="M108 632c16 0 30 -6 41 -17c12 -11 17 -24 17 -41v-82c0 -16 -5 -30 -17 -41c-11 -11 -25 -16 -41 -16c-15 0 -29 5 -40 17c-11 11 -17 24 -17 40v82c0 16 6 30 17 41s25 17 40 17zM134 492v82c0 17 -9 25 -26 25c-16 0 -24 -8 -24 -25v-82c0 -16 8 -25 24 -25
c17 0 26 9 26 25zM294 632c16 0 29 -6 40 -17s17 -25 17 -41v-82c0 -16 -6 -29 -17 -40c-11 -12 -24 -17 -40 -17s-29 5 -41 16s-17 25 -17 41v82c0 17 5 30 17 41s25 17 41 17zM318 492v82c0 17 -8 25 -24 25c-17 0 -26 -8 -26 -25v-82c0 -16 9 -25 26 -25c16 0 24 9 24 25
z" />
    <glyph glyph-name="numbersign" unicode="#" horiz-adv-x="666" 
d="M433 236h-153v108h153v-108zM397 309h-82v-38h82v38zM521 271h78c17 0 32 -6 44 -17c12 -12 18 -27 18 -45s-6 -32 -18 -44s-26 -18 -44 -18h-78v-81c0 -17 -6 -32 -18 -44s-27 -18 -44 -18c-18 0 -32 6 -44 18c-12 13 -18 27 -18 44v81h-82v-81c0 -17 -6 -31 -18 -44
c-12 -12 -27 -18 -44 -18c-18 0 -32 6 -44 18s-18 27 -18 44v81h-78c-17 0 -32 6 -44 18s-18 26 -18 44c0 17 6 32 18 44s27 18 44 18h78v38h-78c-17 0 -32 6 -44 18s-18 27 -18 44s6 32 18 44c12 13 27 19 44 19h78v72c0 18 6 33 17 45c12 11 27 17 45 17
c17 0 32 -6 44 -17c12 -12 18 -27 18 -45v-72h82v72c0 18 6 33 18 45c12 11 26 17 44 17s33 -6 45 -17c11 -12 17 -27 17 -45v-72h78c17 0 32 -6 44 -18s18 -27 18 -45c0 -17 -6 -32 -18 -44s-26 -18 -44 -18h-78v-38zM486 183h113c18 0 28 8 28 26s-10 27 -28 27h-113v108
h113c18 0 28 9 28 27s-10 27 -28 27h-113v108c0 18 -9 27 -27 27s-26 -9 -26 -27v-108h-153v108c0 18 -9 27 -27 27s-27 -9 -27 -27v-108h-113c-17 0 -26 -9 -26 -27s9 -27 26 -27h113v-108h-113c-17 0 -26 -9 -26 -27s9 -26 26 -26h113v-117c0 -17 9 -26 27 -26s27 9 27 26
v117h153v-117c0 -17 8 -26 26 -26s27 9 27 26v117z" />
    <glyph glyph-name="dollar" unicode="$" horiz-adv-x="552" 
d="M174 368c0 31 12 51 34 61c13 5 38 8 75 8v-120c-18 3 -30 5 -37 5c-28 7 -43 10 -46 11c-17 7 -26 19 -26 35zM241 365v27c-10 -2 -15 -3 -18 -4c-4 -2 -7 -7 -7 -16c6 -2 14 -5 25 -7zM337 137v120l44 -6c42 -6 64 -20 64 -42v0c0 -29 -11 -50 -33 -61
c-16 -8 -41 -11 -75 -11zM379 209v-26c15 2 23 9 23 20c-5 3 -13 5 -23 6zM379 533h120c20 0 36 -7 49 -20c14 -14 20 -30 20 -49v0c0 -19 -6 -35 -20 -49c-13 -13 -29 -20 -49 -20h-120v-47c4 -1 8 -1 12 -2v1c42 -4 77 -17 104 -40c30 -25 46 -58 46 -98
c0 -98 -54 -154 -162 -166v-23c0 -19 -7 -35 -20 -49c-14 -13 -30 -20 -49 -20s-35 7 -49 20c-13 14 -20 30 -20 49v21l-121 -1c-19 0 -35 7 -49 20c-13 14 -20 30 -20 49v0c0 19 7 36 20 49c14 14 30 21 49 21h121v48l-9 1h-3c-100 14 -150 60 -150 137v3
c0 99 54 153 162 163v22c0 19 7 35 20 49c14 14 30 20 49 20s35 -6 49 -20c13 -14 20 -30 20 -49v-20zM337 437h162c18 0 27 9 27 27s-9 27 -27 27h-162v62c0 18 -9 28 -27 28s-27 -10 -27 -28v-62c-51 0 -88 -8 -114 -23c-32 -19 -49 -52 -49 -100v-1c4 -32 16 -56 37 -71
c17 -13 43 -22 78 -27l48 -6v-126l-163 -1c-17 0 -26 -9 -26 -27s9 -26 26 -26h163v-63c0 -18 9 -27 27 -27s27 9 27 27v63c111 0 165 42 162 126c-2 55 -39 87 -112 96l-50 6v126z" />
    <glyph glyph-name="percent" unicode="%" horiz-adv-x="683" 
d="M174 485c11 0 19 -4 27 -11c7 -7 10 -16 10 -26s-3 -19 -10 -26c-8 -7 -16 -11 -27 -11c-10 0 -18 4 -26 11c-7 7 -10 16 -10 26s3 19 10 26c8 7 16 11 26 11zM174 571c35 0 64 -12 88 -36s36 -53 36 -87s-12 -63 -36 -87s-53 -37 -88 -37c-34 0 -63 13 -87 37
s-36 53 -36 87s12 63 36 87s53 36 87 36zM174 359c25 0 46 9 63 26c18 18 26 38 26 63c0 24 -8 45 -26 63c-17 17 -38 26 -63 26s-46 -9 -63 -26c-17 -18 -25 -39 -25 -63c0 -25 8 -45 25 -63c17 -17 38 -26 63 -26zM539 162c10 0 19 -3 26 -10c8 -8 12 -16 12 -26
c0 -11 -4 -19 -12 -27c-7 -7 -16 -10 -26 -10s-19 3 -26 10c-7 8 -11 16 -11 27c0 10 4 18 11 26c7 7 16 10 26 10zM539 249c34 0 63 -12 87 -36s36 -53 36 -87c0 -35 -12 -64 -36 -88s-53 -36 -87 -36c-35 0 -64 12 -87 36c-24 24 -36 53 -36 88c0 34 12 63 36 87
c23 24 52 36 87 36zM539 37c24 0 45 8 63 26c17 17 26 38 26 63c0 24 -9 45 -26 62c-18 18 -39 26 -63 26c-25 0 -46 -8 -63 -26c-18 -17 -26 -38 -26 -62c0 -25 9 -46 26 -63c17 -18 38 -26 63 -26zM591 555c13 -11 19 -26 19 -45c0 -15 -5 -28 -14 -39l-386 -448
c-12 -14 -27 -21 -46 -21c-17 0 -31 6 -43 17c-12 12 -18 26 -18 43c0 15 5 28 15 40l386 448c12 14 28 21 46 21c15 0 22 0 41 -16zM184 46l385 448c5 6 8 12 8 17c0 6 -4 12 -10 18s-12 9 -18 9s-12 -4 -18 -10l-387 -448c-5 -7 -8 -12 -8 -18s3 -12 9 -18s12 -9 19 -9
c6 0 13 3 20 11z" />
    <glyph glyph-name="ampersand" unicode="&#x26;" horiz-adv-x="711" 
d="M471 315h111c38 0 70 -31 70 -70c0 -38 -32 -69 -70 -69h-54c-30 -102 -124 -175 -232 -175c-135 0 -245 110 -245 244c0 58 21 113 57 157c-12 25 -18 52 -18 79c0 101 82 183 182 183c101 0 183 -82 183 -183c0 -38 -31 -69 -69 -69c-39 0 -70 31 -70 69
c0 25 -19 44 -44 44c-24 0 -43 -19 -43 -44c0 -13 6 -25 16 -34c17 -14 27 -35 26 -58c-1 -22 -13 -43 -32 -55c-31 -19 -49 -52 -49 -89c0 -58 47 -105 106 -105c58 0 105 47 105 105c0 39 31 70 70 70zM582 216c17 0 30 13 30 29c0 17 -13 30 -30 30h-111
c-17 0 -30 -13 -30 -30c0 -80 -65 -145 -145 -145c-81 0 -146 65 -146 145c0 50 25 96 68 123c8 5 13 14 13 23c1 10 -3 19 -11 25c-20 16 -31 40 -31 65c0 46 37 84 83 84s84 -38 84 -84c0 -16 13 -29 30 -29c16 0 30 13 30 29c0 79 -65 144 -144 144s-143 -65 -143 -144
c0 -31 11 -60 29 -85c-43 -38 -67 -92 -67 -151c0 -113 92 -204 205 -204c102 0 187 76 201 175h85z" />
    <glyph glyph-name="quotesingle" unicode="'" horiz-adv-x="172" 
d="M109 632c16 0 29 -6 40 -17c12 -11 17 -25 17 -41v-82c0 -16 -5 -29 -17 -40c-11 -12 -24 -17 -40 -17c-15 0 -29 5 -41 16c-11 11 -17 25 -17 41v82c0 17 6 30 17 41c12 11 26 17 41 17zM134 492v82c0 17 -8 25 -25 25s-25 -8 -25 -25v-82c0 -16 8 -25 25 -25
s25 9 25 25z" />
    <glyph glyph-name="parenleft" unicode="(" horiz-adv-x="440" 
d="M380 55c17 0 32 -6 44 -18c13 -13 19 -27 19 -45s-6 -33 -19 -45c-12 -11 -27 -17 -44 -17c-96 0 -175 38 -238 113c-60 71 -91 155 -91 252c0 96 31 180 91 252c63 75 142 113 238 113c17 0 32 -6 44 -18c13 -12 19 -26 19 -44s-6 -33 -19 -45c-12 -12 -27 -18 -44 -18
c-60 0 -110 -26 -149 -77c-37 -47 -54 -101 -54 -163s17 -116 54 -163c39 -51 89 -77 149 -77zM380 -35c17 0 26 9 26 27s-9 27 -26 27c-70 0 -128 29 -175 87c-43 54 -65 117 -65 189s22 135 65 189c47 57 105 86 175 86c17 0 26 10 26 28s-9 26 -26 26
c-85 0 -156 -34 -213 -103c-53 -64 -80 -139 -80 -226s26 -163 79 -228c57 -68 129 -102 214 -102z" />
    <glyph glyph-name="parenright" unicode=")" horiz-adv-x="440" 
d="M114 660c96 0 175 -37 239 -113c60 -71 90 -156 90 -252c0 -97 -30 -181 -90 -252c-64 -76 -143 -113 -239 -113c-17 0 -32 6 -44 17c-13 12 -19 27 -19 45s6 32 18 45c13 12 28 18 45 18c61 0 110 26 149 77c36 47 54 101 54 163s-18 116 -54 163c-39 51 -88 77 -149 77
c-17 0 -32 6 -45 18c-12 12 -18 27 -18 45s6 32 19 44c12 12 27 18 44 18zM114 -35c86 0 157 34 214 102c53 65 79 141 79 228s-27 162 -79 226c-57 69 -128 103 -214 103c-18 0 -27 -8 -27 -26s9 -28 27 -28c71 0 130 -28 176 -86c43 -54 64 -117 64 -189
s-21 -135 -64 -189c-46 -58 -105 -87 -176 -87c-18 0 -27 -9 -27 -27s9 -27 27 -27z" />
    <glyph glyph-name="asterisk" unicode="*" horiz-adv-x="291" 
d="M221 549c9 -6 14 -15 14 -25c0 -5 -1 -10 -4 -14c-3 -7 -9 -11 -17 -13c-7 -2 -15 -1 -21 2c0 0 -11 6 -22 13v-25c0 -16 -12 -28 -28 -28s-28 12 -28 28v19c-8 -5 -16 -11 -16 -11c-13 -9 -31 -5 -40 8c-3 4 -5 10 -5 16c0 9 5 17 13 23l23 16l-25 14
c-6 4 -11 10 -13 17c-1 3 -1 5 -1 8c0 4 1 9 4 14c7 13 25 18 38 10l22 -12v25c0 15 12 28 28 28s28 -13 28 -28v-20l16 11c13 9 31 6 40 -7c3 -5 5 -11 5 -16c0 -9 -4 -18 -12 -23c0 0 -12 -9 -24 -16zM203 542l-35 19l33 23c6 4 8 12 3 18c-4 7 -12 8 -18 4l-29 -20v35
c0 8 -7 14 -14 14s-13 -6 -13 -14v-38l-33 19c-7 4 -15 1 -19 -5c-3 -6 -1 -15 5 -18l35 -20l-33 -22c-6 -4 -7 -13 -3 -19s12 -8 19 -3l29 20v-36c0 -7 6 -13 13 -13s14 6 14 13v38l32 -19c7 -3 15 -1 19 5c3 7 1 15 -5 19z" />
    <glyph glyph-name="plus" unicode="+" horiz-adv-x="867" 
 />
    <glyph glyph-name="comma" unicode="," horiz-adv-x="223" 
d="M160 106l13 -10c15 -15 22 -37 22 -66v-14c0 -26 -10 -47 -31 -62c-17 -13 -40 -19 -67 -19c-12 0 -21 4 -29 11c-7 8 -11 18 -11 28s4 19 10 27c-11 14 -16 29 -16 46c0 20 7 36 20 50s30 20 50 20c16 0 29 -3 39 -11zM166 16v6c0 45 -15 67 -45 67
c-12 0 -22 -4 -30 -12c-7 -9 -11 -18 -11 -30v-1c0 -12 4 -22 11 -30c8 -8 18 -12 30 -12c9 0 16 2 22 6c-3 -16 -18 -24 -46 -24c-7 0 -10 -4 -10 -12c0 -7 3 -11 10 -11c46 0 69 18 69 53z" />
    <glyph glyph-name="hyphen" unicode="-" horiz-adv-x="405" 
d="M112 262h128c16 0 30 -5 43 -15c12 -10 18 -24 18 -40s-6 -28 -19 -39c-12 -10 -27 -15 -42 -15h-128c-16 0 -30 5 -43 15c-12 11 -18 23 -18 39s6 30 18 40s26 15 43 15zM112 185h128c17 0 26 7 26 22c0 16 -9 24 -26 24h-128c-17 0 -26 -8 -26 -24c0 -15 9 -22 26 -22z
" />
    <glyph glyph-name="period" unicode="." horiz-adv-x="200" 
d="M112 132c34 0 62 -28 62 -62s-28 -61 -62 -61c-33 0 -61 27 -61 61s28 62 61 62zM112 39c18 0 32 14 32 31c0 18 -14 32 -32 32c-17 0 -31 -14 -31 -32c0 -17 14 -31 31 -31z" />
    <glyph glyph-name="slash" unicode="/" horiz-adv-x="577" 
d="M535 595c18 0 34 -6 47 -19s19 -28 19 -46c0 -16 -5 -30 -16 -43l-419 -486c-13 -16 -30 -23 -50 -23c-18 0 -34 6 -46 19c-13 13 -19 29 -19 47c0 17 5 31 15 43l419 485c13 15 29 23 50 23zM138 26l418 485c5 6 7 12 7 19c0 19 -9 28 -28 28c-9 0 -16 -3 -22 -10
l-418 -486c-5 -5 -7 -11 -7 -18c0 -19 9 -29 28 -29c8 0 16 4 22 11z" />
    <glyph glyph-name="zero" unicode="0" horiz-adv-x="605" 
d="M306 578c55 0 99 -30 132 -89c27 -49 42 -103 42 -162c0 -60 -14 -114 -42 -163c-34 -58 -77 -87 -132 -87s-99 29 -132 87c-27 49 -40 103 -40 163c0 59 13 113 40 162c33 59 77 89 132 89zM306 109c44 0 80 26 107 79c23 43 34 90 34 139s-12 95 -34 138
c-27 53 -62 80 -107 80c-44 0 -80 -27 -107 -80c-22 -43 -33 -89 -33 -138s11 -95 33 -138c27 -53 63 -80 107 -80zM306 660c79 0 142 -37 191 -112c42 -65 64 -138 64 -221s-21 -157 -64 -222c-49 -74 -113 -111 -191 -111s-142 37 -191 111c-43 65 -64 139 -64 222
c0 82 22 155 64 221c49 75 112 112 191 112zM306 27c69 0 125 33 167 102c37 59 56 125 56 198s-19 139 -56 197c-42 69 -98 104 -167 104s-125 -35 -167 -104c-37 -58 -55 -124 -55 -197s18 -139 55 -198c42 -69 98 -102 167 -102z" />
    <glyph glyph-name="one" unicode="1" horiz-adv-x="374" 
d="M294 659c16 0 29 -5 40 -17c11 -11 17 -25 17 -41v-549c0 -16 -6 -29 -17 -40s-24 -17 -40 -17s-29 6 -40 17c-12 11 -17 24 -17 40v363c-40 -22 -83 -33 -129 -33c-15 0 -29 5 -40 16c-11 12 -17 25 -17 41c0 15 6 29 17 40s25 17 40 17c32 0 62 10 88 29
c27 19 41 45 41 76c0 16 5 30 16 41c11 12 25 17 41 17zM318 52v549c0 16 -8 25 -24 25s-25 -9 -25 -25c0 -41 -17 -74 -51 -101c-31 -24 -68 -37 -110 -37c-16 0 -24 -8 -24 -24c0 -17 8 -25 24 -25c65 0 119 23 161 68v-430c0 -16 9 -24 25 -24s24 8 24 24z" />
    <glyph glyph-name="two" unicode="2" horiz-adv-x="497" 
d="M210 109h187c16 0 29 -5 40 -17c11 -11 17 -24 17 -40s-6 -29 -17 -40s-24 -17 -40 -17h-289c-15 0 -29 6 -40 17s-17 24 -17 40v35c0 16 6 30 16 41c102 103 165 164 185 186l13 15c55 59 83 99 83 119c0 25 -9 47 -27 64c-17 18 -39 27 -64 27s-47 -9 -65 -27
c-18 -17 -27 -39 -27 -64c0 -16 -5 -30 -17 -41c-11 -11 -24 -16 -40 -16c-15 0 -29 5 -40 17c-11 11 -17 24 -17 40c0 57 20 106 60 145c40 40 89 60 146 60s105 -20 145 -60c40 -39 60 -88 60 -145c0 -32 -10 -64 -30 -97c-32 -40 -59 -73 -82 -99l-13 -15l-2 -2zM108 28
h289c16 0 24 8 24 24s-8 25 -24 25h-264l178 180l1 1l14 15c44 51 69 82 76 92c18 28 28 56 28 83c0 48 -17 88 -51 122s-74 50 -122 50s-89 -16 -123 -50c-33 -34 -50 -74 -50 -122c0 -16 8 -25 24 -25s25 9 25 25c0 35 12 64 36 88s53 35 88 35c34 0 63 -12 87 -36
c25 -24 37 -53 37 -87c0 -18 -8 -39 -24 -61c-11 -16 -33 -43 -68 -81c-6 -6 -11 -11 -13 -14l-185 -188c-5 -5 -7 -10 -7 -17v-35c0 -16 8 -24 24 -24z" />
    <glyph glyph-name="three" unicode="3" horiz-adv-x="493" 
d="M458 448c0 -47 -14 -88 -43 -125c29 -36 43 -78 43 -124c0 -57 -20 -105 -60 -145c-39 -39 -87 -59 -144 -59c-56 0 -104 20 -144 60c-39 39 -59 88 -59 144c0 16 6 29 17 40c11 12 25 17 40 17c16 0 29 -5 40 -17c12 -11 17 -24 17 -40c0 -25 9 -46 26 -64
c17 -17 38 -26 63 -26s47 9 64 26c17 18 26 39 26 64c0 33 -14 58 -43 75c-18 11 -27 28 -27 49c0 22 9 38 27 48c29 18 43 44 43 77c0 25 -9 46 -26 63s-39 26 -64 26c-24 0 -45 -9 -63 -26c-17 -18 -26 -39 -26 -63c0 -16 -5 -29 -17 -40c-11 -12 -24 -17 -40 -17
c-15 0 -29 5 -40 17c-11 11 -17 24 -17 40c0 56 20 104 59 144c40 39 88 59 144 59c57 0 105 -20 144 -59c40 -40 60 -88 60 -144zM426 199c0 49 -19 90 -55 124c36 34 55 75 55 125c0 48 -17 88 -50 121c-34 33 -74 49 -122 49s-88 -16 -121 -50c-33 -33 -49 -73 -49 -120
c0 -16 8 -25 24 -25s25 9 25 25c0 33 11 62 35 86c23 23 52 35 86 35s63 -11 87 -35c24 -23 36 -52 36 -86c0 -46 -20 -80 -59 -104c-7 -5 -11 -12 -11 -21s4 -16 11 -21c39 -24 59 -58 59 -103c0 -34 -12 -63 -36 -87s-53 -35 -87 -35s-63 11 -86 35c-24 24 -35 53 -35 87
c0 16 -9 24 -25 24s-24 -8 -24 -24c0 -48 16 -88 49 -121c33 -34 73 -50 121 -50s88 16 122 50c33 33 50 73 50 121z" />
    <glyph glyph-name="four" unicode="4" horiz-adv-x="605" 
d="M404 239h-271l237 330h34v-330zM193 277h178v244zM487 277h18c16 0 29 -6 40 -17c12 -12 17 -25 17 -41c0 -15 -5 -29 -17 -40c-11 -11 -24 -17 -40 -17h-18v-110c0 -16 -6 -30 -17 -41s-25 -16 -41 -16s-30 6 -41 17s-17 24 -17 40v110h-263c-15 0 -29 6 -40 17
s-17 25 -17 40v39c0 12 4 24 11 34l249 341c12 15 27 23 46 23h72c16 0 30 -5 41 -16s17 -25 17 -41v-322zM454 190h51c16 0 25 8 25 24c0 17 -9 25 -25 25h-51v355c0 16 -8 24 -25 24h-72c-7 0 -14 -3 -19 -10l-249 -341c-4 -4 -5 -10 -5 -15v-38c0 -16 8 -24 24 -24h296
v-143c0 -16 8 -25 25 -25s25 9 25 25v143z" />
    <glyph glyph-name="five" unicode="5" horiz-adv-x="558" 
d="M285 469c64 0 120 -23 166 -70c46 -46 69 -102 69 -167c0 -66 -23 -123 -69 -169c-46 -47 -102 -70 -168 -70c-53 0 -102 16 -144 48c-22 16 -41 37 -58 62c-20 29 -30 56 -30 79c0 29 14 47 43 56c16 4 30 3 44 -5s24 -19 28 -35c17 -58 56 -88 118 -88
c32 0 60 12 84 36c23 25 35 53 35 87c0 30 -10 56 -31 79c-20 23 -45 36 -75 39c-25 3 -49 -1 -71 -13c-14 -8 -31 -25 -52 -52c-15 -21 -33 -32 -52 -32c-16 0 -30 6 -41 17c-12 11 -18 25 -18 41v287c0 16 6 30 18 41c11 12 25 17 41 17h342c17 0 31 -5 42 -17
c12 -11 17 -25 17 -41s-5 -30 -17 -42c-11 -11 -25 -17 -42 -17h-283v-95c34 16 68 24 104 24zM283 27c56 0 104 19 144 59s60 88 60 146c0 56 -20 104 -60 144c-41 40 -89 60 -144 60c-51 0 -96 -17 -135 -51v188h316c17 0 26 9 26 26s-9 25 -26 25h-342
c-17 0 -25 -8 -25 -25v-287c0 -13 6 -21 19 -24s23 1 29 13c28 57 74 85 138 85c42 0 78 -15 108 -46c31 -30 46 -66 46 -108c0 -43 -15 -80 -45 -110s-66 -45 -109 -45c-35 0 -66 10 -94 31c-27 20 -46 47 -55 81c-5 16 -15 22 -31 17s-22 -15 -17 -32
c12 -44 36 -79 73 -107c37 -27 78 -40 124 -40z" />
    <glyph glyph-name="six" unicode="6" horiz-adv-x="493" 
d="M255 322c34 0 63 -11 88 -35c24 -24 36 -53 36 -87s-12 -63 -36 -87c-25 -24 -54 -36 -88 -36s-63 12 -86 36c-24 24 -36 53 -36 87c0 33 12 62 36 86s53 36 86 36zM255 110c26 0 47 9 65 26c17 18 26 39 26 64s-9 46 -26 64c-18 17 -39 26 -65 26c-24 0 -45 -9 -63 -27
c-18 -17 -26 -39 -26 -63c0 -25 8 -46 26 -64c17 -17 38 -26 63 -26zM255 404c57 0 106 -20 146 -59c40 -40 59 -88 59 -145s-19 -106 -59 -145c-40 -40 -89 -60 -146 -60s-106 20 -147 60c-40 40 -59 89 -57 145v4v206c0 66 20 122 60 170c43 50 97 75 161 75
c15 0 29 -6 40 -17s17 -24 17 -40s-6 -29 -17 -40c-11 -12 -25 -17 -40 -17c-32 0 -58 -15 -79 -43c-18 -25 -27 -54 -27 -88v-26c28 13 58 20 89 20zM255 28c49 0 89 16 123 50c33 34 50 74 50 122s-17 88 -51 121c-33 34 -74 50 -122 50c-47 0 -88 -17 -122 -52v91
c0 42 13 79 38 111c26 35 60 52 101 52c16 0 24 9 24 25s-8 24 -24 24c-55 0 -100 -22 -137 -66c-34 -41 -51 -90 -51 -146v-210c0 -48 17 -88 50 -122s74 -50 121 -50z" />
    <glyph glyph-name="seven" unicode="7" horiz-adv-x="412" 
d="M58 660h108c66 0 123 -20 171 -61c50 -43 75 -97 75 -161v-385c0 -16 -5 -30 -17 -41c-11 -11 -25 -17 -41 -17s-30 6 -41 17c-12 11 -17 25 -17 41v385c0 32 -14 58 -42 78c-25 19 -54 28 -88 28h-108c-15 0 -29 6 -41 17c-11 12 -17 25 -17 41s6 30 17 41
c12 12 26 17 41 17zM378 53v385c0 55 -21 101 -65 138c-41 34 -90 52 -147 52h-108c-16 0 -24 -9 -24 -26c0 -16 8 -24 24 -24h108c43 0 80 -13 111 -38c34 -27 51 -61 51 -102v-385c0 -17 9 -25 26 -25c16 0 24 8 24 25z" />
    <glyph glyph-name="eight" unicode="8" horiz-adv-x="493" 
d="M256 377c-28 0 -51 9 -71 29c-19 19 -29 43 -29 71c0 27 10 51 29 71c20 20 43 30 71 30s52 -10 72 -30c19 -20 29 -44 29 -71c0 -28 -10 -52 -29 -71c-20 -20 -44 -29 -72 -29zM256 544c-19 0 -35 -7 -48 -20c-13 -12 -19 -28 -19 -47s6 -35 20 -48
c13 -13 29 -20 47 -20c19 0 35 7 49 20c13 12 19 28 19 48c0 19 -6 35 -19 47c-14 13 -30 20 -49 20zM256 323c34 0 63 -11 87 -35c25 -24 37 -53 37 -87s-12 -63 -37 -87c-24 -24 -53 -36 -87 -36c-35 0 -64 12 -87 36c-24 24 -35 53 -35 87s12 63 35 87c24 24 53 35 87 35
zM256 110c25 0 47 9 64 27c18 17 27 39 27 64s-9 46 -27 64c-17 17 -39 26 -64 26c-24 0 -45 -9 -63 -27c-18 -17 -27 -38 -27 -63s9 -47 26 -64c18 -18 39 -27 64 -27zM393 354c46 -41 69 -92 69 -153c0 -58 -20 -107 -60 -146c-40 -40 -89 -60 -146 -60s-105 20 -145 60
s-60 89 -60 146c0 61 23 112 69 153c-31 35 -47 76 -47 123c0 51 18 94 54 130c35 35 78 53 129 53s95 -18 130 -53c36 -36 54 -79 54 -130c0 -47 -16 -88 -47 -123zM256 28c48 0 89 17 123 51s51 74 51 122c0 67 -30 118 -90 151c44 30 66 71 66 125c0 41 -15 76 -44 106
c-29 29 -64 44 -106 44c-41 0 -77 -15 -106 -44c-29 -30 -44 -65 -44 -106c0 -54 23 -95 67 -125c-59 -33 -89 -84 -89 -151c0 -48 16 -89 50 -123c33 -34 74 -50 122 -50z" />
    <glyph glyph-name="nine" unicode="9" horiz-adv-x="486" 
d="M456 458v-220c0 -65 -19 -121 -59 -169c-42 -49 -95 -74 -159 -74c-16 0 -29 6 -40 17s-16 24 -16 40s5 29 16 40s24 16 40 16c32 0 57 15 77 43c18 25 27 54 27 87v39c-28 -15 -58 -22 -89 -22c-56 0 -104 20 -143 59c-39 40 -59 88 -59 144c0 57 20 104 59 144
c40 39 87 58 143 58c57 0 105 -20 145 -59c41 -39 60 -87 58 -143zM423 238v220c0 47 -16 87 -50 120c-33 33 -73 50 -120 50s-87 -17 -120 -50s-49 -73 -49 -120s16 -88 49 -121s73 -49 120 -49c48 0 88 17 121 51v-101c0 -42 -12 -79 -35 -110c-26 -35 -60 -52 -101 -52
c-17 0 -25 -8 -25 -24s8 -24 25 -24c54 0 100 21 135 65c34 41 50 90 50 145zM253 579c34 0 63 -12 86 -36c24 -23 35 -52 35 -85c0 -34 -11 -63 -35 -86c-23 -24 -52 -35 -86 -35c-33 0 -62 11 -86 35c-23 23 -35 52 -35 86c0 33 12 62 35 85c24 24 53 36 86 36zM253 368
c25 0 46 9 63 27s26 39 26 63c0 25 -9 46 -26 63s-38 26 -63 26c-24 0 -45 -9 -63 -26c-17 -17 -26 -38 -26 -63c0 -24 9 -45 26 -63c18 -18 39 -27 63 -27z" />
    <glyph glyph-name="colon" unicode=":" horiz-adv-x="201" 
d="M112 409c34 0 62 -28 62 -62s-28 -61 -62 -61c-33 0 -61 27 -61 61s28 62 61 62zM112 316c18 0 32 14 32 31c0 18 -14 32 -32 32c-17 0 -31 -14 -31 -32c0 -17 14 -31 31 -31zM112 121c34 0 62 -28 62 -62s-28 -61 -62 -61c-33 0 -61 27 -61 61s28 62 61 62zM112 28
c18 0 32 14 32 31c0 18 -14 32 -32 32c-17 0 -31 -14 -31 -32c0 -17 14 -31 31 -31z" />
    <glyph glyph-name="semicolon" unicode=";" horiz-adv-x="223" 
d="M115 402c34 0 61 -28 61 -62s-27 -61 -61 -61s-62 27 -62 61s28 62 62 62zM115 309c17 0 31 14 31 31c0 18 -14 32 -31 32c-18 0 -32 -14 -32 -32c0 -17 14 -31 32 -31zM159 107c18 -18 20 -42 20 -60v-6l-1 -6v1c0 -43 -31 -104 -87 -104c-19 0 -34 15 -34 34
c0 17 12 31 30 34c2 0 5 2 7 3c-25 9 -43 32 -43 60v0c0 35 28 63 63 63c12 0 23 -4 34 -10c4 -3 8 -6 11 -9zM154 36v5c1 15 1 36 -12 49c-2 2 -5 4 -7 6c-6 3 -14 6 -21 6c-22 0 -39 -17 -39 -39v0c0 -22 17 -39 39 -39c7 0 14 2 20 6c-3 -15 -16 -49 -43 -54
c-5 -1 -10 -4 -10 -10s5 -10 10 -10c40 0 63 48 63 80z" />
    <glyph glyph-name="less" unicode="&#x3c;" 
 />
    <glyph glyph-name="equal" unicode="=" horiz-adv-x="1571" 
 />
    <glyph glyph-name="greater" unicode="&#x3e;" 
 />
    <glyph glyph-name="question" unicode="?" horiz-adv-x="419" 
d="M111 360c-16 0 -30 6 -42 18c-12 11 -18 25 -18 42c0 44 16 81 47 113v0c33 33 74 50 122 50c47 0 86 -16 120 -47c33 -32 50 -70 50 -116c0 -38 -12 -73 -35 -103s-54 -52 -92 -64v-51c0 -17 -5 -31 -17 -43c-11 -11 -25 -17 -43 -17c-16 0 -30 6 -42 17
c-12 12 -18 26 -18 43v101c0 17 6 32 18 43c12 12 26 18 44 18c17 0 32 6 45 16c13 11 19 24 19 40c0 12 -5 22 -15 29c-10 8 -21 12 -34 12s-23 -3 -32 -10c-11 -8 -17 -18 -17 -31c0 -16 -5 -30 -17 -42c-11 -12 -26 -18 -43 -18zM124 510c-26 -25 -38 -56 -38 -90
c0 -17 8 -25 25 -25s26 8 26 25c0 22 9 40 26 56c16 13 35 20 57 20s42 -7 59 -22s25 -33 25 -54c0 -26 -10 -48 -30 -65s-44 -25 -71 -25c-17 0 -25 -9 -25 -27v-101c0 -17 8 -25 25 -25v0c18 0 27 8 27 25v78c36 6 66 22 89 48c24 25 36 56 36 92s-13 67 -40 91
c-27 25 -59 37 -95 37c-22 0 -38 -2 -48 -5c-14 -5 -30 -16 -48 -33zM203 -5c-16 0 -30 6 -42 18s-18 26 -18 42s6 31 18 42c12 12 26 18 42 18c17 0 32 -5 43 -17c12 -12 18 -26 18 -43s-6 -31 -18 -43c-11 -11 -26 -17 -43 -17zM203 81c-17 0 -25 -9 -25 -26s8 -25 25 -25
c18 0 27 8 27 25s-9 26 -27 26z" />
    <glyph glyph-name="at" unicode="@" horiz-adv-x="683" 
d="M395 246c44 0 80 -35 80 -78c0 -4 -1 -7 -1 -10v-1c-6 -38 -39 -68 -79 -68c-44 0 -80 35 -80 79c0 43 36 78 80 78zM438 162l1 6c1 23 -20 42 -44 42s-44 -19 -44 -42c0 -24 20 -42 44 -42c22 0 41 15 43 36zM392 496c176 0 333 -140 333 -328c0 -49 -13 -88 -44 -138
c-12 -19 -32 -30 -54 -30h-30h-96c-15 0 -28 5 -38 14c-22 -10 -44 -15 -68 -15c-94 0 -170 76 -170 169c0 92 76 168 170 168s173 -76 170 -168c0 0 -1 -31 -1 -36c0 -1 32 0 40 0c4 15 4 23 4 36c0 127 -110 209 -216 209s-215 -94 -215 -200s76 -200 182 -200
c35 0 63 -28 63 -63s-28 -63 -63 -63c-176 0 -308 150 -308 326s165 319 341 319zM650 49c28 44 38 77 38 119c0 171 -140 292 -296 292s-305 -127 -305 -283s116 -290 272 -290c15 0 27 12 27 27s-12 27 -27 27c-126 0 -218 110 -218 236s125 236 251 236
s251 -103 247 -246c-1 -28 -4 -31 -15 -76h-96c-1 0 1 71 1 77c0 73 -60 132 -134 132s-134 -59 -134 -132s60 -133 134 -133c30 0 57 10 79 26c1 -14 13 -25 27 -25h96h30c10 0 18 5 23 13z" />
    <glyph glyph-name="A" unicode="A" 
 />
    <glyph glyph-name="B" unicode="B" 
 />
    <glyph glyph-name="C" unicode="C" 
 />
    <glyph glyph-name="D" unicode="D" 
 />
    <glyph glyph-name="E" unicode="E" 
 />
    <glyph glyph-name="F" unicode="F" 
 />
    <glyph glyph-name="G" unicode="G" 
 />
    <glyph glyph-name="H" unicode="H" 
 />
    <glyph glyph-name="I" unicode="I" 
 />
    <glyph glyph-name="J" unicode="J" 
 />
    <glyph glyph-name="K" unicode="K" 
 />
    <glyph glyph-name="L" unicode="L" 
 />
    <glyph glyph-name="M" unicode="M" 
 />
    <glyph glyph-name="N" unicode="N" 
 />
    <glyph glyph-name="O" unicode="O" 
 />
    <glyph glyph-name="P" unicode="P" 
 />
    <glyph glyph-name="Q" unicode="Q" 
 />
    <glyph glyph-name="R" unicode="R" 
 />
    <glyph glyph-name="S" unicode="S" 
 />
    <glyph glyph-name="T" unicode="T" 
 />
    <glyph glyph-name="U" unicode="U" 
 />
    <glyph glyph-name="V" unicode="V" 
 />
    <glyph glyph-name="W" unicode="W" 
 />
    <glyph glyph-name="X" unicode="X" 
 />
    <glyph glyph-name="Y" unicode="Y" 
 />
    <glyph glyph-name="Z" unicode="Z" 
 />
    <glyph glyph-name="bracketleft" unicode="[" 
 />
    <glyph glyph-name="backslash" unicode="\" 
 />
    <glyph glyph-name="bracketright" unicode="]" 
 />
    <glyph glyph-name="asciicircum" unicode="^" 
 />
    <glyph glyph-name="underscore" unicode="_" horiz-adv-x="409" 
d="M111 33h131c16 0 30 -5 43 -16c12 -10 18 -23 18 -38c0 -16 -6 -29 -18 -40c-13 -10 -27 -16 -43 -16h-131c-16 0 -30 6 -42 16c-12 11 -18 24 -18 40c0 15 6 28 18 38c12 11 26 16 42 16zM111 -45h131c18 0 26 8 26 24c0 15 -8 23 -26 23h-131c-17 0 -26 -8 -26 -23
c0 -16 9 -24 26 -24z" />
    <glyph glyph-name="grave" unicode="`" horiz-adv-x="295" 
d="M156 496l-80 57c-19 10 -29 31 -24 52c5 20 24 35 45 35h57c10 0 20 -4 28 -10l32 -30c23 -21 58 -49 48 -78c-7 -18 -24 -31 -44 -31h-41c-7 0 -15 2 -21 5zM78 598c-2 -8 2 -17 10 -22c0 0 86 -59 89 -59h41c9 0 16 6 19 14s1 15 -6 21l-65 57c-3 3 -8 4 -12 4h-57
c-9 0 -17 -6 -19 -15zM156 496l-80 57c-19 10 -29 31 -24 52c5 20 24 35 45 35h57c10 0 20 -4 28 -10l32 -30c23 -21 58 -49 48 -78c-7 -18 -24 -31 -44 -31h-41c-7 0 -15 2 -21 5zM78 598c-2 -8 2 -17 10 -22c0 0 86 -59 89 -59h41c9 0 16 6 19 14s1 15 -6 21l-65 57
c-3 3 -8 4 -12 4h-57c-9 0 -17 -6 -19 -15z" />
    <glyph glyph-name="a" unicode="a" horiz-adv-x="508" 
d="M457 212v-156c0 -16 -5 -29 -16 -40s-24 -16 -40 -16c-22 0 -39 10 -50 31c-33 -21 -69 -32 -108 -32c-59 0 -109 21 -151 62c-41 42 -62 92 -62 151s21 110 62 152c42 42 92 63 151 63s110 -21 152 -62c41 -41 62 -92 62 -153zM425 56v156c0 51 -18 94 -53 130
c-36 35 -79 53 -129 53c-51 0 -94 -18 -129 -53c-35 -36 -53 -79 -53 -130c0 -50 18 -93 54 -128c35 -36 78 -53 128 -53c27 0 54 6 80 20s45 32 55 55v-50c0 -16 8 -24 23 -24c16 0 24 8 24 24zM243 347c38 0 69 -13 96 -39c26 -27 39 -58 39 -96c0 -36 -13 -68 -40 -94
s-58 -39 -95 -39s-69 13 -95 39s-39 58 -39 94c0 38 13 69 39 96c26 26 58 39 95 39zM243 110c28 0 52 10 72 30s30 44 30 72c0 29 -10 53 -29 73c-20 20 -44 30 -73 30c-28 0 -53 -10 -72 -30c-20 -20 -30 -44 -30 -73c0 -28 10 -52 30 -72c19 -20 44 -30 72 -30z" />
    <glyph glyph-name="b" unicode="b" horiz-adv-x="530" 
d="M270 355c38 0 70 -13 97 -40s40 -59 40 -97s-13 -70 -40 -97c-26 -27 -58 -40 -97 -40c-38 0 -70 13 -97 40s-40 59 -40 97s13 71 40 97c27 27 59 40 97 40zM270 113c30 0 54 10 74 31c20 20 30 45 30 74s-10 53 -30 74c-21 20 -45 30 -74 30s-54 -10 -74 -30
s-31 -44 -31 -74c0 -29 11 -54 31 -74c20 -21 45 -31 74 -31zM270 437c61 0 112 -22 155 -64c43 -43 64 -94 64 -155c0 -60 -21 -112 -64 -155s-94 -64 -155 -64s-113 22 -157 65c-41 41 -62 92 -62 154v378c0 16 6 29 17 40s25 17 40 17c16 0 29 -6 40 -17
c12 -11 17 -24 17 -40v-188c33 19 68 29 105 29zM270 32c52 0 96 18 132 54c36 37 54 81 54 132s-18 95 -54 131c-36 37 -80 55 -132 55c-27 0 -54 -6 -78 -18c-27 -14 -47 -32 -59 -54v264c0 16 -9 24 -25 24s-24 -8 -24 -24v-378c0 -52 18 -96 54 -132
c37 -36 81 -54 132 -54z" />
    <glyph glyph-name="c" unicode="c" horiz-adv-x="487" 
d="M440 113c1 -15 -4 -28 -14 -41c-43 -48 -96 -73 -162 -73c-58 0 -108 21 -150 62c-42 42 -63 92 -63 151s21 110 62 152c42 42 92 63 151 63c63 0 115 -23 157 -69c11 -11 15 -24 15 -41c-1 -15 -7 -27 -17 -37c-11 -11 -23 -16 -38 -16c-17 0 -30 6 -41 18
c-21 22 -46 33 -76 33c-28 0 -52 -10 -72 -30s-30 -44 -30 -73c0 -28 10 -52 30 -72s44 -30 72 -30c32 0 57 12 78 36c11 13 25 19 42 19c15 0 28 -5 38 -15c11 -10 17 -22 18 -37zM402 94c5 5 7 10 7 15c0 6 -3 12 -8 18c-6 5 -12 8 -17 8c-6 0 -13 -4 -19 -11
c-26 -30 -60 -45 -101 -45c-36 0 -68 13 -94 39s-39 58 -39 94c0 38 13 69 38 96c26 26 58 39 95 39c40 0 72 -15 98 -43c6 -6 12 -9 19 -9c5 0 11 3 16 8c6 6 9 11 9 16c0 6 -3 11 -8 17c-36 39 -81 59 -134 59c-50 0 -93 -18 -128 -54c-36 -35 -53 -78 -53 -129
c0 -50 18 -93 53 -128c36 -36 79 -53 128 -53c55 0 101 21 138 63z" />
    <glyph glyph-name="d" unicode="d" horiz-adv-x="530" 
d="M271 357c39 0 72 -13 98 -40c27 -27 40 -60 40 -98s-13 -70 -40 -98c-26 -27 -59 -40 -98 -40c-38 0 -70 13 -97 40c-27 28 -40 60 -40 98s13 71 40 98s59 40 97 40zM271 113c30 0 55 11 75 31c20 21 31 46 31 75c0 30 -11 54 -31 75c-20 20 -45 30 -75 30
c-28 0 -53 -10 -74 -30c-20 -21 -31 -45 -31 -75c0 -29 11 -54 31 -75c20 -20 45 -31 74 -31zM492 598v-379c0 -57 -15 -108 -62 -155c-45 -43 -97 -65 -159 -65c-61 0 -113 21 -156 64s-64 95 -64 156c0 62 22 113 65 156s95 64 155 64c37 0 72 -9 106 -27v186
c0 16 5 29 16 40c12 11 25 17 41 17s30 -5 41 -16s17 -25 17 -41zM458 219v379c0 16 -8 24 -24 24c-17 0 -25 -8 -25 -24v-253c-37 41 -82 61 -138 61c-51 0 -95 -18 -132 -54c-36 -37 -54 -81 -54 -133s18 -96 54 -133c37 -36 81 -54 132 -54c53 0 97 18 133 54
c36 37 54 81 54 133z" />
    <glyph glyph-name="e" unicode="e" horiz-adv-x="530" 
d="M306 339c53 -17 83 -52 92 -104h-264c5 32 20 58 45 79s54 32 86 32c13 0 26 -2 41 -7zM180 266h171c-14 22 -32 36 -54 43c-23 7 -44 6 -66 -1c-21 -8 -38 -22 -51 -42zM265 426c74 0 132 -29 174 -87c27 -38 41 -80 41 -128c0 -15 -6 -29 -17 -40
c-11 -10 -24 -16 -40 -16h-242c20 -31 48 -46 84 -46c21 0 39 5 55 15c10 7 19 10 29 10c16 0 30 -6 40 -17c11 -11 16 -24 16 -39c0 -22 -8 -38 -25 -48c-35 -22 -73 -33 -115 -33c-40 0 -77 10 -111 32c-31 19 -56 45 -75 78s-28 67 -28 104c0 40 10 78 32 112
c42 69 103 103 182 103zM134 187h289c17 0 25 8 25 24c0 40 -11 77 -35 108c-36 50 -86 75 -148 75c-49 0 -92 -18 -128 -54c-35 -35 -53 -78 -53 -129c0 -39 11 -74 34 -106c37 -50 85 -75 147 -75c35 0 67 9 97 27c8 5 12 11 12 17c0 7 -2 13 -7 19c-5 7 -11 10 -16 10
c-5 -1 -10 -2 -14 -5c-23 -14 -47 -20 -72 -20c-14 0 -28 2 -41 6c-50 16 -80 50 -90 103z" />
    <glyph glyph-name="f" unicode="f" horiz-adv-x="358" 
d="M168 433h117c15 0 29 -6 40 -17s17 -25 17 -40c0 -16 -6 -30 -17 -41s-25 -17 -40 -17h-120v-262c0 -16 -5 -29 -17 -40c-11 -11 -24 -17 -40 -17c-15 0 -29 6 -40 17s-17 24 -17 40v354c0 68 24 125 71 173c47 47 105 71 172 71c16 0 30 -5 41 -16s17 -25 17 -41
s-6 -30 -17 -41c-11 -12 -25 -17 -41 -17c-31 0 -59 -10 -82 -30c-24 -20 -38 -46 -44 -76zM133 351h152c16 0 24 8 24 25c0 16 -8 24 -24 24h-152v10c0 45 15 83 47 115c31 32 69 47 114 47c17 0 25 9 25 25s-8 24 -25 24c-59 0 -108 -20 -149 -61s-61 -91 -61 -150v-354
c0 -16 8 -24 24 -24s25 8 25 24v295z" />
    <glyph glyph-name="g" unicode="g" horiz-adv-x="540" 
d="M438 37c51 -45 77 -101 77 -169c0 -62 -21 -115 -63 -158c-43 -43 -95 -65 -157 -66c-60 -1 -113 19 -158 60c-46 42 -68 92 -69 151c0 16 5 30 17 42s26 17 43 17c16 0 30 -5 41 -17c11 -11 17 -25 18 -42c0 -25 11 -47 33 -66c23 -18 47 -27 73 -27c29 1 54 12 74 33
s30 46 30 75s-11 53 -32 73c-20 20 -45 29 -73 29h-23c-60 2 -112 26 -154 70c-43 44 -64 96 -64 157c0 63 22 117 66 161s98 67 162 67c63 0 117 -23 161 -67s66 -98 66 -161s-23 -117 -68 -162zM428 -265c36 37 54 82 54 133c0 36 -10 68 -28 98c-18 29 -43 52 -73 69
c61 38 91 93 91 164c0 54 -18 100 -56 138c-38 37 -84 56 -137 56c-54 0 -100 -19 -138 -57c-37 -38 -56 -83 -56 -137c0 -52 18 -98 55 -136s81 -57 133 -57h7v0h12c38 0 71 -12 98 -40c27 -27 41 -60 41 -98s-14 -70 -41 -98c-27 -27 -59 -41 -96 -41
c-35 -1 -68 11 -97 36s-43 55 -44 90c0 17 -9 26 -25 26c-18 0 -26 -9 -26 -26c1 -49 20 -91 59 -126c40 -35 84 -52 134 -51c30 0 52 3 65 8c20 7 43 23 68 49zM421 199c0 -39 -14 -73 -41 -101c-28 -28 -62 -42 -101 -42c-40 0 -74 14 -101 42c-28 28 -42 62 -42 101
s13 73 41 101s61 42 102 42c39 0 73 -14 101 -42c27 -28 41 -62 41 -101zM279 91h8c28 0 51 13 71 34s30 45 30 74c0 30 -11 56 -32 77c-22 21 -47 32 -77 32c-31 0 -57 -11 -77 -32c-21 -21 -32 -47 -32 -77s11 -55 32 -77c20 -21 46 -31 77 -31z" />
    <glyph glyph-name="h" unicode="h" horiz-adv-x="528" 
d="M488 238l1 -181c0 -16 -6 -30 -17 -41s-25 -16 -40 -16c-17 0 -30 5 -41 16s-17 25 -17 41v163c0 29 -10 53 -31 73s-46 29 -74 29c-26 0 -49 -8 -68 -26c-20 -17 -32 -39 -36 -64v-176c0 -16 -5 -29 -17 -40c-11 -11 -24 -17 -40 -17s-30 6 -41 17s-16 24 -16 40v541
c0 16 5 29 16 40s25 17 41 17s29 -6 40 -17c12 -11 17 -24 17 -40v-187c33 18 68 27 104 27c58 0 107 -19 148 -57c42 -38 65 -85 71 -142zM456 57v172c0 47 -19 88 -57 123s-81 52 -130 52c-53 0 -99 -20 -136 -59v252c0 16 -9 24 -25 24s-24 -8 -24 -24v-541
c0 -16 8 -24 24 -24s25 8 25 24v179c4 34 20 63 45 86c26 23 56 34 91 34c38 0 71 -13 98 -38c27 -26 40 -57 40 -96v-164c0 -16 8 -24 25 -24c16 0 24 8 24 24z" />
    <glyph glyph-name="i" unicode="i" horiz-adv-x="322" 
d="M241 109c15 0 28 -5 39 -16c11 -10 17 -23 17 -39c0 -15 -6 -28 -17 -38c-11 -11 -24 -16 -39 -16c-58 0 -108 20 -149 61c-40 41 -61 91 -61 149v154c0 15 6 28 17 39c10 11 23 16 38 16s28 -5 39 -16s16 -24 16 -39v-155c0 -28 10 -51 30 -71c19 -19 43 -29 70 -29z
M241 31c16 0 24 7 24 23s-8 24 -24 24c-37 0 -68 12 -93 38c-26 25 -38 56 -38 93v155c0 16 -8 24 -24 24c-15 0 -23 -8 -23 -24v-155c0 -50 17 -92 51 -125c35 -36 78 -53 127 -53zM86 643c17 0 31 -6 43 -18s18 -26 18 -42v-1c0 -17 -6 -31 -18 -43s-26 -18 -43 -18
c-16 0 -30 6 -42 18s-18 26 -18 43v1c0 16 6 30 18 42s26 18 42 18zM112 582v1c0 17 -8 26 -26 26c-17 0 -25 -9 -25 -26v-1c0 -18 8 -26 25 -26c18 0 26 8 26 26z" />
    <glyph glyph-name="j" unicode="j" horiz-adv-x="334" 
d="M235 635c18 0 33 -6 45 -18c13 -13 19 -28 19 -46v-1c0 -18 -6 -33 -19 -45c-12 -13 -27 -19 -45 -19s-33 6 -46 19c-12 12 -18 27 -18 45v1c0 18 6 33 19 45c13 13 28 19 45 19zM263 570v1c0 18 -9 27 -28 27c-18 0 -27 -9 -27 -27v-1c0 -18 9 -28 27 -28
c19 0 28 10 28 28zM235 412c16 0 29 -6 41 -17c11 -12 17 -25 17 -41v-420c0 -77 -20 -143 -61 -198c-46 -62 -106 -92 -180 -92c-16 0 -30 5 -41 17c-11 11 -17 25 -17 41s6 29 17 41c12 11 26 17 41 17c40 0 72 20 95 59c20 34 30 72 30 115v420c0 16 5 30 17 41
c11 12 25 17 41 17zM259 -66v420c0 16 -8 25 -24 25c-17 0 -26 -9 -26 -25v-420c0 -53 -12 -100 -37 -139c-30 -46 -69 -68 -120 -68c-16 0 -24 -9 -24 -25c0 -17 8 -25 24 -25c65 0 116 27 155 82c35 49 52 107 52 175z" />
    <glyph glyph-name="k" unicode="k" horiz-adv-x="528" 
d="M458 79v-26c0 -15 -5 -27 -16 -38c-10 -10 -23 -15 -38 -15c-14 0 -27 5 -37 16c-11 10 -16 23 -16 37v23c0 26 -10 115 -29 133c-19 19 -41 28 -68 28c-24 0 -46 -8 -64 -24c-19 -16 -33 -96 -33 -126v-34c0 -15 -5 -27 -15 -38c-10 -10 -23 -15 -38 -15s-27 5 -38 15
c-10 11 -15 23 -15 38v549c0 14 5 27 15 37c11 10 23 16 38 16s28 -6 38 -16s15 -23 15 -37v-284c31 17 62 25 91 25h6c22 2 42 10 62 24c23 16 35 97 35 118c0 15 5 27 15 37c11 11 23 16 38 16s28 -5 38 -16c10 -10 15 -22 15 -37c0 -51 -22 -158 -65 -195
c44 -42 66 -156 66 -211zM428 53v25c0 63 -30 179 -88 212c58 32 87 139 87 195c0 15 -8 22 -23 22c-16 0 -23 -7 -23 -22c0 -31 -15 -120 -42 -141c-26 -20 -54 -31 -85 -31c-50 0 -92 -18 -126 -56v345c0 14 -8 22 -24 22c-15 0 -22 -8 -22 -22v-549c0 -16 7 -23 22 -23
c16 0 24 7 24 23v37c0 36 18 125 42 146s52 31 84 31c35 0 65 -12 90 -36s38 -120 38 -154v-24c0 -15 7 -22 22 -22c16 0 24 7 24 22z" />
    <glyph glyph-name="l" unicode="l" horiz-adv-x="330" 
d="M270 114c16 0 29 -5 41 -17c11 -11 17 -24 17 -40s-6 -29 -17 -40c-12 -11 -25 -17 -41 -17c-64 0 -117 25 -159 76c-40 47 -60 103 -60 168v353c0 16 6 29 17 40s25 17 40 17c16 0 29 -6 40 -17c12 -11 17 -24 17 -40v-353c0 -33 10 -62 28 -87c20 -28 46 -43 77 -43z
M270 33c17 0 25 8 25 24s-8 25 -25 25c-40 0 -74 17 -101 52c-24 31 -36 68 -36 110v353c0 16 -9 24 -25 24s-24 -8 -24 -24v-353c0 -55 17 -103 51 -145c36 -44 81 -66 135 -66z" />
    <glyph glyph-name="m" unicode="m" horiz-adv-x="885" 
d="M792 217v-162c0 -15 -6 -28 -16 -39c-11 -11 -24 -16 -39 -16c-16 0 -29 5 -40 16c-11 10 -16 23 -16 39v155v4c0 28 -11 52 -31 71c-20 20 -44 29 -71 29c-26 0 -49 -8 -68 -25c-19 -16 -30 -38 -33 -63v-170c0 -16 -6 -29 -17 -40s-24 -16 -40 -16c-15 0 -28 5 -39 16
s-17 24 -17 40v138v21c0 28 -11 52 -30 71c-20 19 -44 28 -72 28c-26 0 -48 -8 -67 -25c-19 -16 -30 -37 -34 -62v-171c0 -16 -5 -29 -16 -40s-24 -16 -40 -16s-29 5 -39 16c-11 11 -16 24 -16 40v182c6 53 29 98 70 134c40 36 88 54 142 54c63 0 116 -24 158 -70
c43 46 96 70 158 70c58 0 108 -21 150 -61s63 -89 63 -148zM760 55v161c0 50 -18 92 -53 126c-36 35 -79 52 -128 52c-71 0 -123 -30 -158 -91c-35 61 -88 91 -158 91c-44 0 -85 -16 -123 -49c-38 -32 -57 -70 -57 -114v-175c0 -16 7 -24 23 -24s25 8 25 24v173
c4 33 18 61 43 83c26 23 55 34 89 34c36 0 68 -13 95 -38s40 -56 40 -92v-160c0 -16 8 -24 23 -24c17 0 25 8 25 24v139l-1 21v13c5 34 20 62 45 84s55 33 89 33c36 0 68 -13 94 -38s39 -56 39 -93v-160c0 -16 8 -23 25 -23c15 0 23 7 23 23z" />
    <glyph glyph-name="n" unicode="n" horiz-adv-x="528" 
d="M478 216v-161c0 -16 -6 -29 -17 -39c-12 -11 -25 -16 -40 -16s-28 5 -39 16c-10 11 -16 24 -16 39v159c0 27 -10 51 -31 71c-21 19 -45 29 -72 29c-25 0 -47 -8 -66 -25c-19 -16 -31 -37 -35 -62v-171c0 -16 -5 -29 -16 -40s-24 -16 -39 -16c-16 0 -29 5 -40 16
s-16 24 -16 40v182c0 65 30 98 70 134c41 36 88 54 142 54c59 0 110 -21 152 -61s63 -89 63 -149zM446 55v161c0 51 -18 93 -54 127c-35 34 -78 51 -129 51c-44 0 -85 -16 -123 -49s-57 -71 -57 -114v-175c0 -16 8 -24 24 -24s24 8 24 24v173c4 33 18 61 43 83
c26 23 55 34 89 34c37 0 69 -13 95 -38c27 -25 40 -56 40 -93v-160c0 -16 8 -23 23 -23c17 0 25 7 25 23z" />
    <glyph glyph-name="o" unicode="o" horiz-adv-x="530" 
d="M264 347c37 0 68 -13 95 -39c26 -27 39 -58 39 -95c0 -36 -13 -68 -39 -94c-27 -26 -58 -39 -95 -39s-69 13 -95 39c-25 26 -38 58 -38 94c0 37 13 68 38 95c26 26 58 39 95 39zM264 111c28 0 52 10 72 30s30 44 30 72s-10 52 -30 72s-44 30 -72 30s-52 -10 -72 -30
s-30 -44 -30 -72s10 -52 30 -72s44 -30 72 -30zM264 427c59 0 110 -21 151 -63c42 -41 63 -92 63 -151c0 -60 -21 -110 -63 -151c-41 -41 -92 -62 -151 -62s-109 21 -151 62c-41 42 -62 92 -62 151s21 110 62 151c42 42 92 63 151 63zM264 32c51 0 93 17 129 53
c35 35 53 78 53 128c0 51 -18 93 -53 129c-36 35 -78 53 -129 53s-94 -18 -129 -53c-35 -36 -52 -78 -52 -129c0 -50 17 -93 52 -128c35 -36 78 -53 129 -53z" />
    <glyph glyph-name="p" unicode="p" horiz-adv-x="530" 
d="M262 427c59 0 109 -21 150 -62c42 -41 62 -91 62 -150s-20 -109 -61 -150s-92 -62 -151 -62c-35 0 -69 9 -101 27v-332c0 -16 -5 -29 -16 -39c-10 -11 -23 -16 -39 -16c-15 0 -28 5 -39 16c-11 10 -16 23 -16 39v517c0 60 21 110 62 151c41 40 91 61 149 61zM262 35
c51 0 93 17 128 52s53 78 53 128s-18 92 -53 127s-77 53 -128 53c-49 0 -92 -18 -127 -53s-52 -77 -52 -127v-517c0 -16 7 -25 23 -25s24 9 24 25v396c36 -40 80 -59 132 -59zM262 348c37 0 68 -13 94 -39s39 -57 39 -94c0 -36 -13 -68 -38 -94c-26 -26 -57 -39 -95 -39
c-36 0 -68 13 -94 39c-25 26 -38 58 -38 94c0 37 13 68 38 94c26 26 58 39 94 39zM262 113c28 0 52 10 72 30c19 20 29 44 29 72s-9 52 -29 72c-19 19 -43 29 -72 29c-28 0 -51 -10 -71 -29c-20 -20 -30 -44 -30 -72s10 -52 30 -72s43 -30 71 -30z" />
    <glyph glyph-name="q" unicode="q" horiz-adv-x="530" 
d="M51 215c0 59 21 109 62 150s91 62 149 62c59 0 110 -21 151 -61c41 -41 61 -91 61 -151v-517c0 -16 -5 -29 -16 -39c-11 -11 -24 -16 -40 -16c-15 0 -28 5 -39 16c-10 10 -16 23 -16 39v332c-31 -18 -65 -27 -101 -27c-59 0 -109 21 -150 62s-61 91 -61 150zM83 215
c0 -50 17 -93 52 -128c34 -35 77 -52 127 -52c53 0 98 19 133 59v-396c0 -16 8 -25 23 -25c17 0 25 9 25 25c-1 507 0 511 0 517c0 50 -18 92 -53 127c-36 35 -78 53 -128 53s-93 -18 -127 -53c-35 -35 -52 -77 -52 -127zM130 215c0 37 13 68 38 94c26 26 58 39 94 39
c37 0 68 -13 94 -39s39 -57 39 -94c0 -36 -13 -68 -39 -94s-57 -39 -94 -39s-69 13 -94 39c-26 26 -38 58 -38 94zM161 215c0 -28 10 -52 29 -72c20 -20 44 -30 72 -30s52 10 72 30c19 20 29 44 29 72s-10 52 -29 72c-20 19 -44 29 -72 29s-52 -10 -72 -29
c-19 -20 -29 -44 -29 -72z" />
    <glyph glyph-name="r" unicode="r" horiz-adv-x="284" 
d="M264 427c15 0 28 -6 39 -17s16 -24 16 -39s-5 -28 -15 -39c-11 -11 -24 -17 -40 -17c-28 0 -52 -9 -72 -29c-20 -19 -30 -43 -30 -72v-159c0 -16 -5 -29 -16 -39c-10 -11 -23 -16 -39 -16s-29 5 -40 16c-11 10 -16 23 -16 39v159c0 59 21 110 62 151c42 41 92 62 151 62z
M264 347c16 0 24 8 24 24s-8 24 -24 24c-50 0 -93 -18 -128 -53c-36 -35 -53 -77 -53 -128v-159c0 -16 8 -23 24 -23s24 7 24 23v159c0 37 13 68 39 94s58 39 94 39z" />
    <glyph glyph-name="s" unicode="s" horiz-adv-x="446" 
d="M391 423c15 0 28 -5 39 -16c10 -11 16 -24 16 -39s-6 -28 -16 -38c-11 -11 -24 -17 -39 -17c-27 0 -51 -8 -72 -26c-20 -17 -30 -39 -30 -66c0 -80 -21 -127 -63 -165c-42 -37 -92 -56 -149 -56c-16 0 -29 5 -40 16c-11 10 -17 23 -17 39s6 29 17 39c11 11 24 16 40 16
c27 0 51 8 71 24s31 37 31 64v23v0c0 58 20 106 62 144c42 39 92 58 150 58zM391 345c15 0 23 8 23 23c0 16 -8 24 -23 24c-49 0 -92 -16 -127 -49c-36 -33 -54 -73 -54 -122v-23c0 -35 -13 -64 -40 -86c-26 -22 -57 -33 -93 -33c-17 0 -25 -8 -25 -24s8 -23 25 -23
c49 0 91 15 127 47c35 31 53 71 53 119v23c0 36 13 65 40 89c26 23 58 35 94 35z" />
    <glyph glyph-name="t" unicode="t" horiz-adv-x="352" 
d="M269 113c17 0 30 -5 41 -16s17 -24 17 -40s-6 -30 -17 -41s-24 -16 -41 -16c-62 0 -115 25 -158 74c-40 48 -60 104 -60 168v353c0 16 6 29 17 40s25 17 40 17c16 0 29 -6 40 -17c12 -11 17 -24 17 -40v-100h106c16 0 30 -6 41 -17s17 -25 17 -40c0 -16 -6 -29 -17 -41
c-11 -11 -25 -16 -41 -16h-106v-139c0 -33 10 -62 28 -87c20 -28 45 -42 76 -42zM269 33c17 0 25 8 25 24s-8 25 -25 25c-40 0 -73 17 -100 51c-24 31 -36 67 -36 109v171h138c17 0 25 8 25 25c0 16 -8 24 -25 24h-138v133c0 16 -9 24 -25 24s-24 -8 -24 -24v-353
c0 -55 17 -103 51 -144c36 -44 81 -65 134 -65z" />
    <glyph glyph-name="u" unicode="u" horiz-adv-x="528" 
d="M474 370v-177l-1 -7v0c-6 -54 -29 -98 -69 -133s-87 -53 -141 -53c-58 0 -107 20 -148 60c-42 42 -64 90 -64 146v164c0 16 5 29 16 40c10 10 23 16 39 16s29 -6 39 -16c11 -11 16 -24 16 -40v-120c0 54 -1 40 0 -41c1 -28 12 -51 31 -70c20 -19 43 -29 71 -29
c25 0 48 9 67 25c19 17 30 38 33 63v172c0 15 6 28 17 39c10 11 23 17 38 17c16 0 29 -6 40 -16c11 -11 16 -24 16 -40zM442 190c1 10 1 1 1 180c0 16 -8 24 -25 24c-15 0 -23 -8 -23 -24v-175c-4 -33 -19 -61 -44 -83s-54 -33 -88 -33c-36 0 -68 12 -94 37s-39 55 -39 92
v162c0 17 -8 25 -24 25s-23 -8 -23 -25v-163c0 -50 17 -91 53 -125c35 -34 78 -50 127 -50c46 0 86 15 120 45c34 29 53 67 59 113z" />
    <glyph glyph-name="v" unicode="v" horiz-adv-x="422" 
d="M357 420c15 0 28 -5 39 -15c11 -11 16 -24 16 -40v-155c0 -140 -90 -210 -271 -210h-35c-16 0 -29 5 -39 16c-11 10 -16 23 -16 39v310c0 16 5 29 16 40c10 10 23 15 39 15s29 -5 40 -15c11 -11 16 -24 16 -40v-254c60 3 101 16 122 40c12 14 18 34 18 59v155
c0 16 5 29 16 40c10 10 23 15 39 15zM381 210v155c0 16 -8 24 -24 24s-23 -8 -23 -24v-155c0 -88 -65 -131 -193 -131h-10v286c0 16 -9 24 -25 24s-23 -8 -23 -24v-310c0 -16 7 -23 23 -23h35c160 0 240 59 240 178z" />
    <glyph glyph-name="w" unicode="w" horiz-adv-x="885" 
d="M787 370v-184c-7 -54 -31 -98 -71 -133s-87 -53 -140 -53c-62 0 -114 23 -157 68c-42 -45 -94 -68 -156 -68c-58 0 -108 20 -150 60c-41 40 -62 89 -62 147v163c0 16 5 29 16 40c10 11 23 17 39 17s29 -6 40 -17s16 -24 16 -40v-157v-4c0 -28 11 -51 30 -70
c20 -19 43 -29 71 -29c25 0 48 9 67 25c19 17 30 38 33 63v172c0 16 6 29 17 40c10 10 24 16 39 16s28 -6 39 -17s16 -24 16 -39v-141v-21c0 -27 11 -50 31 -69s43 -29 71 -29c25 0 47 8 66 25c19 16 30 37 35 62v173c0 16 5 29 15 40c11 10 24 16 40 16c15 0 28 -6 38 -17
c11 -11 17 -24 17 -39zM755 190v180c0 16 -8 24 -23 24c-16 0 -24 -8 -24 -24v-175c-5 -33 -20 -61 -45 -83s-54 -33 -87 -33c-37 0 -69 12 -94 37c-26 25 -39 55 -39 91v163c0 16 -8 24 -24 24s-24 -8 -24 -24v-175c-4 -33 -19 -61 -44 -83s-54 -33 -88 -33
c-36 0 -67 12 -93 37s-39 56 -39 92v162c0 17 -9 25 -25 25s-23 -8 -23 -25v-163c0 -49 17 -90 53 -124c35 -34 78 -51 127 -51c70 0 122 30 156 89c35 -59 87 -89 157 -89c45 0 85 15 119 45c35 29 55 67 60 113z" />
    <glyph glyph-name="x" unicode="x" horiz-adv-x="531" 
d="M421 110c15 0 28 -5 39 -16s17 -24 17 -39c0 -16 -6 -29 -16 -39c-11 -11 -24 -16 -40 -16c-62 0 -115 22 -157 66c-43 -44 -95 -66 -157 -66c-16 0 -29 5 -40 16c-11 10 -16 23 -16 39s5 29 16 39c11 11 24 16 40 16c27 0 51 9 71 26c20 18 30 40 30 66v19
c0 27 -10 49 -30 66c-20 18 -44 26 -71 26c-16 0 -29 6 -40 16c-11 11 -16 24 -16 39c0 16 5 29 16 40c11 10 24 15 40 15c62 0 114 -22 157 -67c42 45 95 67 157 67c15 0 28 -5 39 -16s17 -24 17 -39s-6 -28 -16 -39c-11 -10 -24 -16 -40 -16c-26 0 -50 -8 -70 -26
c-21 -17 -32 -39 -32 -66v-20c0 -26 11 -47 32 -65c20 -17 44 -26 70 -26zM421 32c16 0 24 7 24 23s-8 24 -24 24c-35 0 -66 11 -93 35c-27 23 -40 52 -40 87v11v9c0 36 15 65 41 89c26 23 57 35 92 35c16 0 24 8 24 23c0 16 -8 24 -24 24c-70 0 -122 -29 -157 -87
c-34 58 -87 87 -157 87c-16 0 -24 -8 -24 -24c0 -15 8 -23 24 -23c36 0 67 -12 94 -35c26 -24 39 -53 39 -89v-10v-9c0 -35 -15 -65 -41 -88c-26 -24 -56 -35 -92 -35c-16 0 -24 -8 -24 -24s8 -23 24 -23c70 0 122 28 157 85c35 -57 87 -85 157 -85z" />
    <glyph glyph-name="y" unicode="y" horiz-adv-x="530" 
d="M474 193v-4v-279c0 -87 -14 -150 -44 -190c-38 -49 -103 -74 -197 -77c-16 -1 -29 4 -40 15s-17 24 -17 40c-1 15 5 28 15 38c11 11 24 17 39 17c56 2 93 13 111 35c15 19 23 58 23 116c0 50 0 78 -1 84v33c-32 -17 -65 -25 -100 -25c-58 0 -107 20 -148 60
c-42 42 -64 91 -64 147v164c0 16 5 29 16 40c10 10 23 15 39 15c15 0 28 -5 39 -16s16 -24 16 -39v-162c0 -28 11 -51 31 -70s43 -28 71 -28c25 0 48 8 67 25c19 16 30 37 33 62v173c0 15 6 28 17 39c10 11 23 16 38 16c16 0 29 -5 40 -15c11 -11 16 -24 16 -40v-174z
M232 -326c80 3 136 23 168 62c29 34 43 93 43 174v457c0 16 -8 24 -25 24c-15 0 -23 -8 -23 -24v-176c-4 -34 -19 -61 -44 -83s-54 -32 -88 -32c-36 0 -68 12 -94 36c-26 25 -39 55 -39 92v163c0 16 -8 24 -24 24s-23 -8 -23 -24v-163c0 -50 17 -91 52 -125s78 -51 128 -51
c52 0 96 19 132 57v-96c0 -107 -9 -177 -28 -209c-20 -37 -66 -56 -136 -59c-17 0 -25 -8 -24 -24s9 -23 25 -23z" />
    <glyph glyph-name="z" unicode="z" horiz-adv-x="497" 
d="M450 286v-2c0 -69 -45 -107 -124 -118c0 0 -5 -1 -6 -1c-145 -18 -156 -18 -157 -24c0 -21 22 -30 66 -30h163c15 0 29 -5 40 -16s16 -24 16 -40v0c0 -16 -5 -29 -16 -39c-11 -11 -25 -16 -40 -16h-163c-119 0 -178 48 -178 145c0 33 13 60 40 82c24 19 54 29 88 33
l124 16c17 2 29 5 35 9c5 10 -1 18 -2 19c-8 6 -30 9 -64 9h-165c-16 0 -29 6 -40 17c-11 10 -16 24 -16 39v0c0 16 5 29 16 40s24 17 40 17l165 -2c119 0 178 -46 178 -138zM418 283v2v0c-6 45 -21 75 -45 89c-19 13 -52 19 -101 19h-165c-16 0 -23 -8 -23 -24
c0 -15 7 -23 23 -23l165 -1c33 0 55 -3 68 -8c20 -9 30 -26 30 -52c0 -22 -21 -36 -63 -41l-125 -15c-27 -4 -49 -12 -67 -25c-21 -15 -32 -35 -32 -59v-1c0 -75 48 -112 146 -112h163c16 0 24 7 24 23s-8 25 -24 25h-163c-66 0 -98 21 -98 64c0 20 18 32 56 37l128 16
c68 8 103 37 103 86z" />
    <glyph glyph-name="braceleft" unicode="{" 
 />
    <glyph glyph-name="bar" unicode="|" 
 />
    <glyph glyph-name="braceright" unicode="}" 
 />
    <glyph glyph-name="asciitilde" unicode="~" 
 />
    <glyph glyph-name="DEL" 
 />
    <glyph glyph-name="Adieresis" unicode="&#xc4;" 
 />
    <glyph glyph-name="Aring" unicode="&#xc5;" 
 />
    <glyph glyph-name="Ccedilla" unicode="&#xc7;" 
 />
    <glyph glyph-name="Eacute" unicode="&#xc9;" 
 />
    <glyph glyph-name="Ntilde" unicode="&#xd1;" 
 />
    <glyph glyph-name="Odieresis" unicode="&#xd6;" 
 />
    <glyph glyph-name="Udieresis" unicode="&#xdc;" 
 />
    <glyph glyph-name="aacute" unicode="&#xe1;" horiz-adv-x="539" 
d="M370 596c5 -20 -5 -41 -23 -51l-81 -57c-6 -3 -14 -5 -21 -5h-41c-20 0 -37 12 -44 31c-10 28 25 56 48 78l32 30c8 6 18 9 28 9h57c21 0 40 -14 45 -35zM334 568c8 4 12 13 10 22s-10 15 -19 15h-57c-4 0 -9 -1 -12 -4l-64 -57c-8 -6 -10 -14 -7 -22s10 -13 19 -13h41
c3 0 89 59 89 59zM479 212v-156c0 -16 -6 -29 -17 -40s-24 -16 -40 -16c-22 0 -39 10 -50 31c-33 -21 -69 -32 -108 -32c-59 0 -109 21 -151 62c-41 42 -62 92 -62 151s21 110 62 152c42 42 92 63 151 63s110 -21 152 -62s63 -92 63 -153zM446 56v156c0 51 -18 94 -53 130
c-36 35 -78 53 -129 53s-94 -18 -129 -53c-35 -36 -52 -79 -52 -130c0 -50 17 -93 53 -128c35 -36 78 -53 128 -53c27 0 54 6 80 20c27 14 45 32 55 55v-50c0 -16 8 -24 23 -24c16 0 24 8 24 24zM264 347c38 0 70 -13 96 -39c26 -27 39 -58 39 -96c0 -36 -13 -68 -40 -94
c-26 -26 -58 -39 -95 -39s-69 13 -95 39c-25 26 -38 58 -38 94c0 38 13 69 38 96c26 26 58 39 95 39zM264 110c28 0 52 10 72 30s30 44 30 72c0 29 -10 53 -29 73c-20 20 -44 30 -73 30c-28 0 -52 -10 -72 -30s-30 -44 -30 -73c0 -28 10 -52 30 -72s44 -30 72 -30z" />
    <glyph glyph-name="agrave" unicode="&#xe0;" horiz-adv-x="530" 
d="M263 488l-80 57c-19 10 -28 31 -23 51c5 21 23 35 44 35h57c11 0 20 -3 28 -9l32 -30c23 -22 59 -50 48 -78c-7 -19 -24 -31 -43 -31h-41c-8 0 -15 2 -22 5zM185 590c-2 -9 2 -18 10 -22c0 0 86 -59 90 -59h41c8 0 16 5 18 13c3 8 1 16 -6 22l-65 57c-3 3 -7 4 -12 4h-57
c-9 0 -17 -6 -19 -15zM478 214v-8v-2v-147c0 -31 -25 -56 -55 -56c-22 0 -41 13 -50 31c-33 -21 -73 -32 -108 -32c-118 0 -214 96 -214 214s96 213 214 213s216 -95 213 -213zM447 57v147c6 103 -78 192 -182 192c-101 0 -182 -82 -182 -182c0 -101 81 -182 182 -182
c53 0 115 28 134 75v-50c0 -13 10 -24 24 -24c13 0 24 11 24 24zM265 348c74 0 134 -60 134 -134s-60 -134 -134 -134s-134 60 -134 134s60 134 134 134zM265 112c56 0 102 45 102 102c0 56 -46 102 -102 102c-57 0 -102 -46 -102 -102c0 -57 45 -102 102 -102z" />
    <glyph glyph-name="acircumflex" unicode="&#xe2;" horiz-adv-x="539" 
d="M479 212v-156c0 -16 -6 -29 -17 -40s-24 -16 -40 -16c-22 0 -39 10 -50 31c-33 -21 -69 -32 -108 -32c-59 0 -109 21 -151 62c-41 42 -62 92 -62 151s21 110 62 152c42 42 92 63 151 63s110 -21 152 -62s63 -92 63 -153zM446 56v156c0 51 -18 94 -53 130
c-36 35 -78 53 -129 53s-94 -18 -129 -53c-35 -36 -52 -79 -52 -130c0 -50 17 -93 53 -128c35 -36 78 -53 128 -53c27 0 54 6 80 20c27 14 45 32 55 55v-50c0 -16 8 -24 23 -24c16 0 24 8 24 24zM264 347c37 0 69 -13 95 -39c27 -27 40 -58 40 -96c0 -36 -13 -68 -40 -94
c-26 -26 -58 -39 -95 -39s-69 13 -95 39c-25 26 -38 58 -38 94c0 38 13 69 38 96c26 26 58 39 95 39zM264 110c28 0 52 10 72 30s30 44 30 72c0 29 -10 53 -29 73c-20 20 -44 30 -73 30c-28 0 -52 -10 -72 -30s-30 -44 -30 -73c0 -28 10 -52 30 -72s44 -30 72 -30zM285 632
l100 -39c24 -10 36 -28 36 -54c0 -16 -5 -29 -16 -41c-12 -11 -25 -16 -41 -16c-7 0 -13 1 -20 4l-80 30l-78 -30c-15 -6 -30 -5 -44 1c-23 10 -35 27 -35 52c0 26 12 43 37 53l99 40c13 5 27 5 42 0zM364 510c19 0 29 10 29 29c0 13 -6 21 -19 26l-100 40c-7 3 -14 3 -21 0
l-99 -40c-12 -5 -18 -13 -18 -26c0 -19 9 -29 28 -29c4 0 8 1 12 2l88 36l90 -36c3 -1 7 -2 10 -2z" />
    <glyph glyph-name="adieresis" unicode="&#xe4;" horiz-adv-x="539" 
d="M343 620c35 0 63 -28 63 -63s-28 -63 -63 -63s-63 28 -63 63s28 63 63 63zM343 525c18 0 32 14 32 32s-14 32 -32 32s-32 -14 -32 -32s14 -32 32 -32zM186 620c35 0 64 -28 64 -63s-29 -63 -64 -63s-63 28 -63 63s28 63 63 63zM186 525c18 0 33 14 33 32s-15 32 -33 32
s-32 -14 -32 -32s14 -32 32 -32zM478 214v-8v-2v-147c0 -31 -25 -56 -55 -56c-22 0 -41 13 -50 31c-33 -21 -73 -32 -108 -32c-118 0 -214 96 -214 214s96 213 214 213s216 -95 213 -213zM447 57v147c6 103 -78 192 -182 192c-101 0 -182 -82 -182 -182
c0 -101 81 -182 182 -182c53 0 115 28 134 75v-50c0 -13 10 -24 24 -24c13 0 24 11 24 24zM265 348c74 0 134 -60 134 -134s-60 -134 -134 -134s-134 60 -134 134s60 134 134 134zM265 112c56 0 102 45 102 102c0 56 -46 102 -102 102c-57 0 -102 -46 -102 -102
c0 -57 45 -102 102 -102z" />
    <glyph glyph-name="atilde" unicode="&#xe3;" horiz-adv-x="539" 
d="M393 592l12 -30c4 -11 2 -22 -6 -30l-1 -1c-19 -21 -54 -33 -93 -32c-20 0 -40 4 -56 10c-9 4 -16 6 -21 6c-3 0 -8 0 -23 -8l-3 -1c-12 -7 -27 -9 -40 -5c-14 4 -24 13 -27 24l-12 39c-3 13 2 27 16 34l3 2l-1 -1c28 17 60 16 84 16c22 -1 42 -6 61 -14h1
c5 -2 10 -3 15 -3c6 0 13 1 16 3l2 3c10 9 26 13 41 11c15 -3 27 -11 32 -23zM376 545c2 3 3 6 2 10l-13 30c-1 4 -5 6 -10 7s-10 0 -13 -3l-2 -3c-11 -10 -29 -11 -39 -11c-9 0 -19 2 -27 5c-16 6 -33 12 -50 12c-20 0 -45 1 -66 -11l-1 -1c-5 -3 -7 -7 -5 -11l11 -39
c1 -4 4 -7 8 -8c5 -1 9 0 13 2c0 0 3 2 4 2c18 9 29 12 41 12c9 -1 20 -3 33 -8s28 -8 44 -8c29 -1 55 8 69 22zM478 214v-8v-2v-147c0 -31 -25 -56 -55 -56c-22 0 -41 13 -50 31c-33 -21 -73 -32 -108 -32c-118 0 -214 96 -214 214s96 213 214 213s216 -95 213 -213z
M447 57v147c5 104 -78 192 -182 192c-101 0 -182 -82 -182 -182c0 -101 81 -182 182 -182c53 0 115 28 134 75v-50c0 -13 10 -24 24 -24c13 0 24 11 24 24zM265 348c74 0 134 -60 134 -134s-60 -134 -134 -134s-134 60 -134 134s60 134 134 134zM265 112
c56 0 102 45 102 102c0 56 -46 102 -102 102c-57 0 -102 -46 -102 -102c0 -57 45 -102 102 -102z" />
    <glyph glyph-name="aring" unicode="&#xe5;" 
 />
    <glyph glyph-name="ccedilla" unicode="&#xe7;" horiz-adv-x="487" 
d="M432 143c13 -12 20 -26 20 -44c0 -14 -5 -27 -14 -38c-26 -29 -58 -50 -95 -63c7 -16 10 -31 10 -46c0 -32 -11 -59 -33 -81c-22 -21 -49 -32 -81 -32c-16 0 -29 5 -41 17c-11 11 -16 25 -16 41c0 29 14 48 42 55c-27 8 -41 25 -42 52c-41 18 -72 45 -96 81
c-23 37 -35 77 -35 121c0 61 21 113 64 156s95 65 156 65c65 0 119 -24 162 -71c10 -12 16 -25 15 -42c-1 -16 -7 -29 -18 -40c-12 -11 -26 -15 -42 -15c-16 1 -29 6 -40 19c-20 22 -46 33 -77 33c-29 0 -54 -10 -74 -30c-20 -21 -31 -46 -31 -75s11 -54 31 -74
c20 -21 45 -31 74 -31c32 0 58 12 79 36c12 13 25 19 40 20s29 -4 42 -14v0zM412 83c6 6 8 12 8 17c0 6 -2 12 -8 17c-6 6 -12 9 -18 9s-12 -4 -18 -11c-28 -32 -63 -48 -105 -48c-38 0 -70 14 -98 41c-27 27 -40 60 -40 98s13 71 40 98c28 26 60 40 98 40
c41 0 74 -15 101 -44c7 -7 13 -10 19 -10s12 3 17 8c6 6 8 12 8 18s-2 12 -8 18c-37 39 -83 59 -137 59c-51 0 -95 -18 -132 -55c-37 -36 -55 -80 -55 -132c0 -43 12 -81 38 -114c25 -33 59 -56 100 -68c-5 -4 -8 -10 -8 -17c0 -16 8 -24 25 -24c22 0 32 -11 32 -31
s-10 -31 -32 -31c-17 0 -25 -8 -25 -24c0 -17 8 -26 25 -26c22 0 41 8 57 24s24 35 24 57c0 29 -12 51 -36 66c52 4 95 26 128 65z" />
    <glyph glyph-name="eacute" unicode="&#xe9;" horiz-adv-x="539" 
d="M370 590c5 -20 -4 -42 -23 -51l-80 -57c-7 -4 -14 -5 -22 -5h-41c-20 0 -37 12 -43 31c-11 28 25 56 48 78l31 29c8 7 18 10 28 10h58c21 0 39 -14 44 -35zM335 562c8 4 12 13 10 22s-10 15 -19 15h-58c-4 0 -8 -1 -12 -4l-64 -57c-7 -6 -9 -14 -7 -22
c3 -8 11 -13 19 -13h41c4 0 90 59 90 59zM306 339c53 -17 83 -52 92 -104h-264c5 32 20 58 45 79s54 32 86 32c13 0 26 -2 41 -7zM180 266h171c-14 22 -32 36 -54 43c-23 7 -44 6 -66 -1c-21 -8 -38 -22 -51 -42zM265 426c74 0 132 -29 174 -87c27 -38 41 -80 41 -128
c0 -15 -6 -29 -17 -40c-11 -10 -24 -16 -40 -16h-242c20 -31 48 -46 84 -46c21 0 39 5 55 15c10 7 19 10 29 10c16 0 30 -6 40 -17c11 -11 16 -24 16 -39c0 -22 -8 -38 -25 -48c-35 -22 -73 -33 -115 -33c-40 0 -77 10 -111 32c-31 19 -56 45 -75 78s-28 67 -28 104
c0 40 10 78 32 112c42 69 103 103 182 103zM134 187h289c17 0 25 8 25 24c0 40 -11 77 -35 108c-36 50 -86 75 -148 75c-49 0 -92 -18 -128 -54c-35 -35 -53 -78 -53 -129c0 -39 11 -74 34 -106c37 -50 85 -75 147 -75c35 0 67 9 97 27c8 5 12 11 12 17c0 7 -2 13 -7 19
c-5 7 -11 10 -16 10c-5 -1 -10 -2 -14 -5c-23 -14 -47 -20 -72 -20c-14 0 -28 2 -41 6c-50 16 -80 50 -90 103z" />
    <glyph glyph-name="egrave" unicode="&#xe8;" horiz-adv-x="539" 
d="M264 482l-81 57c-18 9 -28 31 -23 51c5 21 24 35 45 35h57c10 0 20 -3 28 -10l31 -29c24 -22 59 -50 49 -78c-7 -19 -24 -31 -44 -31h-41c-7 0 -15 1 -21 5zM186 584c-3 -9 2 -18 10 -22c0 0 86 -59 89 -59h41c9 0 16 5 19 13s0 16 -7 22l-64 57c-3 3 -8 4 -12 4h-57
c-9 0 -17 -6 -19 -15zM306 334c49 -16 83 -55 91 -104h-264c1 6 2 11 4 17c11 34 35 62 67 79c31 16 68 19 102 8zM180 262h171c-13 19 -31 34 -55 42c-26 8 -53 6 -78 -7c-16 -8 -29 -20 -38 -35zM330 410c91 -29 149 -109 149 -204c0 -31 -25 -56 -56 -56h-243
c13 -19 31 -34 54 -41c29 -9 60 -5 85 11c27 16 61 8 77 -18c17 -26 9 -61 -17 -77c-54 -34 -119 -42 -179 -23c-54 18 -99 55 -125 106s-31 109 -14 163c18 55 55 99 106 126c51 26 109 31 163 13zM423 182c14 0 24 11 24 24c0 81 -49 149 -126 174c-47 15 -96 10 -139 -12
c-44 -22 -76 -60 -90 -106c-31 -96 22 -199 118 -229c51 -17 106 -10 152 19c11 7 14 22 7 33s-21 15 -33 8c-33 -21 -74 -27 -112 -15c-34 11 -62 35 -78 67c-6 12 -10 24 -12 37h289z" />
    <glyph glyph-name="ecircumflex" unicode="&#xea;" horiz-adv-x="539" 
d="M286 632l100 -39c24 -10 36 -28 36 -54c0 -16 -5 -29 -16 -41c-12 -11 -25 -16 -41 -16c-6 0 -13 1 -20 4l-80 30l-78 -30c-15 -6 -29 -6 -44 1c-23 9 -34 27 -34 52c0 26 12 43 36 53l99 40c13 5 27 5 42 0zM365 510c19 0 29 10 29 29c0 13 -6 21 -18 26l-100 40
c-4 1 -7 2 -11 2c-3 0 -6 -1 -10 -2l-100 -40c-12 -4 -17 -13 -17 -26c0 -19 9 -29 28 -29c4 0 7 1 11 2l88 36l90 -36c4 -1 7 -2 10 -2zM306 339c53 -17 83 -52 92 -104h-264c5 32 20 58 45 79s54 32 86 32c13 0 26 -2 41 -7zM180 266h171c-14 22 -32 36 -54 43
c-23 7 -44 6 -66 -1c-21 -8 -38 -22 -51 -42zM265 426c74 0 133 -29 175 -87c27 -37 40 -80 40 -128c0 -15 -6 -29 -17 -40c-11 -10 -24 -16 -40 -16h-242c20 -31 48 -46 84 -46c21 0 39 5 55 15c10 7 19 10 29 10c16 0 30 -6 40 -17c11 -11 16 -24 16 -39
c0 -22 -8 -38 -25 -48c-35 -22 -73 -33 -115 -33c-40 0 -77 10 -111 32c-31 19 -56 45 -75 78s-28 67 -28 104c0 40 10 78 32 112c42 69 103 103 182 103zM134 187h289c17 0 25 8 25 24c0 40 -11 77 -35 108c-36 50 -86 75 -148 75c-49 0 -92 -18 -128 -54
c-35 -35 -53 -78 -53 -129c0 -39 11 -74 34 -106c37 -50 85 -75 147 -75c35 0 67 9 97 27c8 5 12 11 12 17c0 7 -2 13 -7 19c-5 7 -11 10 -16 10c-5 -1 -10 -2 -14 -5c-22 -13 -46 -20 -72 -20c-14 0 -28 2 -41 6c-50 16 -80 50 -90 103z" />
    <glyph glyph-name="edieresis" unicode="&#xeb;" horiz-adv-x="539" 
d="M344 614c34 0 63 -28 63 -63s-29 -63 -63 -63c-35 0 -64 28 -64 63s29 63 64 63zM344 518c17 0 32 15 32 33s-15 32 -32 32c-18 0 -33 -14 -33 -32s15 -33 33 -33zM187 614c35 0 63 -28 63 -63s-28 -63 -63 -63s-63 28 -63 63s28 63 63 63zM187 518c18 0 32 15 32 33
s-14 32 -32 32s-33 -14 -33 -32s15 -33 33 -33zM306 334c49 -16 83 -55 91 -104h-264c1 6 2 11 4 17c11 34 35 62 67 79c31 16 68 19 102 8zM180 262h171c-13 19 -31 34 -55 42c-26 8 -53 6 -78 -7c-16 -8 -29 -20 -38 -35zM330 410c91 -29 149 -109 149 -204
c0 -31 -25 -56 -56 -56h-243c13 -19 31 -34 54 -41c29 -9 60 -5 85 11c27 16 61 8 77 -18c17 -26 9 -61 -17 -77c-54 -34 -119 -42 -179 -23c-54 18 -99 55 -125 106s-31 109 -14 163c18 55 55 99 106 126c51 26 109 31 163 13zM423 182c14 0 24 11 24 24
c0 81 -49 149 -126 174c-47 15 -96 10 -139 -12c-44 -22 -76 -60 -90 -106c-31 -96 22 -199 118 -229c51 -17 106 -10 152 19c11 7 14 22 7 33s-21 15 -33 8c-33 -21 -74 -27 -112 -15c-34 11 -62 35 -78 67c-6 12 -10 24 -12 37h289z" />
    <glyph glyph-name="iacute" unicode="&#xed;" horiz-adv-x="367" 
d="M288 596c5 -21 -4 -42 -23 -52l-80 -57c-7 -3 -14 -5 -21 -5h-42c-19 0 -36 13 -43 31c-10 29 25 57 48 78l32 30c8 6 18 10 28 10h57c21 0 39 -15 44 -35zM253 567c8 5 12 14 10 22c-2 9 -10 15 -19 15h-57c-5 0 -9 -1 -12 -4l-65 -57c-7 -6 -9 -14 -6 -21
c2 -8 10 -14 18 -14h42c3 0 89 59 89 59zM261 110c30 0 55 -25 55 -55s-25 -55 -55 -55c-116 0 -209 94 -210 211v3v151c0 30 25 54 55 54s55 -24 55 -54v-145v-4v-6c0 -55 45 -100 100 -100zM261 31c13 0 24 11 24 24s-11 23 -24 23c-73 0 -133 59 -132 132v7c1 1 0 2 0 3
v145c0 13 -10 23 -23 23s-24 -10 -24 -23v-151v-1v-3c-2 -98 81 -179 179 -179z" />
    <glyph glyph-name="igrave" unicode="&#xec;" horiz-adv-x="451" 
d="M156 496l-80 57c-19 10 -29 31 -24 52c5 20 24 35 45 35h57c10 0 20 -4 28 -10l32 -30c23 -21 58 -49 48 -78c-7 -18 -24 -31 -44 -31h-41c-7 0 -15 2 -21 5zM78 598c-2 -8 2 -17 10 -22c0 0 86 -59 89 -59h41c9 0 16 6 19 14s1 15 -6 22l-65 56c-3 3 -8 4 -12 4h-57
c-9 0 -17 -6 -19 -15zM372 110c30 0 55 -25 55 -55s-25 -55 -55 -55c-116 0 -209 94 -210 211v3v151c0 30 25 54 55 54s55 -24 55 -54v-145v-4v-6c0 -55 45 -100 100 -100zM372 31c13 0 24 11 24 24s-11 23 -24 23c-72 0 -133 59 -132 132v10v145c0 13 -10 23 -23 23
s-24 -10 -24 -23v-151v-4c-2 -98 81 -179 179 -179z" />
    <glyph glyph-name="icircumflex" unicode="&#xee;" horiz-adv-x="451" 
d="M352 109c16 0 29 -5 39 -16c11 -10 16 -23 16 -39c0 -15 -5 -28 -16 -38c-11 -11 -24 -16 -39 -16c-58 0 -107 20 -148 61c-42 41 -62 91 -62 149v154c0 15 5 28 16 39s24 16 39 16s28 -5 39 -16s16 -24 16 -39v-155c0 -27 10 -50 30 -70c19 -20 43 -30 70 -30zM352 31
c16 0 24 7 24 23s-8 24 -24 24c-37 0 -68 12 -93 38c-26 25 -39 56 -39 93v155c0 16 -7 24 -23 24s-24 -8 -24 -24v-155c0 -49 18 -92 53 -126c34 -35 76 -52 126 -52zM229 632l100 -39c24 -10 36 -28 36 -54c0 -16 -5 -29 -17 -41c-11 -11 -24 -16 -40 -16
c-6 0 -13 1 -20 4l-80 30l-78 -30c-15 -6 -29 -6 -44 1c-24 10 -35 27 -35 52c0 26 12 43 37 53l99 40c13 5 27 5 42 0zM308 510c19 0 29 10 29 29c0 13 -6 21 -19 26l-100 40c-3 1 -6 2 -10 2c-3 0 -7 -1 -10 -2l-100 -40c-12 -4 -17 -13 -17 -26c0 -19 9 -29 28 -29
c4 0 7 1 10 2l89 36l90 -36c3 -1 7 -2 10 -2z" />
    <glyph glyph-name="idieresis" unicode="&#xef;" horiz-adv-x="428" 
d="M271 620c35 0 63 -29 63 -64s-28 -63 -63 -63s-63 28 -63 63s28 64 63 64zM271 524c18 0 32 14 32 32s-14 33 -32 33s-32 -15 -32 -33s14 -32 32 -32zM114 620c35 0 63 -29 63 -64s-28 -63 -63 -63s-63 28 -63 63s28 64 63 64zM114 524c18 0 33 14 33 32s-15 33 -33 33
s-32 -15 -32 -33s14 -32 32 -32zM338 110c30 0 55 -25 55 -55s-25 -55 -55 -55c-116 0 -209 94 -210 211v3v151c0 30 25 54 55 54s55 -24 55 -54v-145v-4v-6c0 -55 45 -100 100 -100zM338 31c13 0 24 11 24 24s-11 23 -24 23c-72 0 -133 59 -131 132v7v3v145
c0 13 -11 23 -24 23s-23 -10 -23 -23v-151v-1v-3c-2 -98 80 -179 178 -179z" />
    <glyph glyph-name="ntilde" unicode="&#xf1;" horiz-adv-x="528" 
d="M392 591l13 -30c4 -10 2 -21 -6 -30l-1 -1c-19 -21 -54 -33 -93 -32c-20 1 -40 4 -56 11c-9 3 -16 5 -21 5c-3 0 -8 0 -23 -7l-4 -2c-11 -7 -26 -9 -40 -5c-13 4 -23 13 -27 24l-11 39c-4 13 2 27 16 34l3 2l-2 -1c29 17 61 17 84 16c23 0 43 -6 61 -13l2 -1
c4 -1 10 -3 14 -3c6 0 13 1 16 4l3 2c10 9 25 13 40 11s28 -11 32 -23zM375 545c3 2 3 6 2 9l-12 30c-2 4 -6 7 -10 7c-5 1 -10 0 -13 -3l-3 -2c-11 -11 -29 -12 -38 -12c-10 1 -19 3 -28 6c-15 6 -32 11 -49 11c-21 1 -46 1 -66 -11l-2 -1c-4 -3 -6 -7 -5 -11l12 -39
c1 -3 4 -6 8 -7c4 -2 9 -1 13 1c0 0 3 2 4 3c17 8 28 11 40 11c10 0 20 -2 34 -8c12 -5 28 -8 44 -8c29 0 55 8 68 23zM478 217v-40v-121c0 -31 -25 -56 -56 -56s-56 25 -56 56v121v38c-1 56 -46 99 -102 99c-51 0 -94 -37 -101 -87v-3v-168c0 -31 -25 -56 -56 -56
s-56 25 -56 56v167v7v8c13 107 105 188 213 188c116 0 214 -92 214 -209zM446 56v121v40c0 99 -83 177 -182 177c-92 0 -170 -69 -181 -160v-3v-8v-167c0 -13 11 -24 24 -24s24 11 24 24v168v5c8 67 65 117 133 117c73 0 134 -57 134 -130v-39v-121c0 -13 11 -24 24 -24
s24 11 24 24z" />
    <glyph glyph-name="oacute" unicode="&#xf3;" horiz-adv-x="539" 
d="M265 348c73 0 134 -61 134 -134c0 -74 -61 -134 -134 -134c-74 0 -134 60 -134 134c0 73 60 134 134 134zM265 111c56 0 102 46 102 103c0 56 -46 102 -102 102c-57 0 -103 -46 -103 -102c0 -57 46 -103 103 -103zM265 427c117 0 213 -96 213 -213
c0 -118 -96 -214 -213 -214c-118 0 -214 96 -214 214c0 117 96 213 214 213zM265 32c100 0 181 81 181 182c0 100 -81 181 -181 181c-101 0 -182 -81 -182 -181c0 -101 81 -182 182 -182zM368 596c5 -21 -5 -42 -23 -52l-81 -57c-6 -3 -14 -5 -21 -5h-41
c-20 0 -37 13 -44 31c-10 29 25 57 48 78l32 30c8 6 18 10 28 10h57c21 0 40 -15 45 -35zM332 567c8 5 12 14 10 22c-2 9 -10 15 -19 15h-57c-4 0 -9 -1 -12 -4l-64 -57c-8 -6 -10 -14 -7 -21c3 -8 10 -14 19 -14h41c3 0 89 59 89 59z" />
    <glyph glyph-name="ograve" unicode="&#xf2;" horiz-adv-x="539" 
d="M263 496l-80 57c-19 10 -28 31 -23 52c5 20 23 35 44 35h57c10 0 20 -4 28 -10l32 -30c23 -21 59 -49 48 -78c-7 -18 -24 -31 -43 -31h-42c-7 0 -14 2 -21 5zM185 598c-2 -8 2 -17 10 -22c0 0 86 -59 89 -59h42c8 0 16 6 18 14c3 8 1 15 -6 22l-65 56c-3 3 -7 4 -12 4
h-57c-9 0 -17 -6 -19 -15zM265 348c73 0 134 -61 134 -134c0 -74 -61 -134 -134 -134c-74 0 -134 60 -134 134c0 73 60 134 134 134zM265 111c56 0 102 46 102 103c0 56 -46 102 -102 102c-57 0 -103 -46 -103 -102c0 -57 46 -103 103 -103zM265 427c117 0 213 -96 213 -213
c0 -118 -96 -214 -213 -214c-118 0 -214 96 -214 214c0 117 96 213 214 213zM265 32c100 0 181 81 181 182c0 100 -81 181 -181 181c-101 0 -182 -81 -182 -181c0 -101 81 -182 182 -182z" />
    <glyph glyph-name="ocircumflex" unicode="&#xf4;" horiz-adv-x="539" 
d="M285 632l100 -39c24 -10 36 -28 36 -54c0 -16 -5 -29 -16 -41c-12 -11 -25 -16 -41 -16c-7 0 -14 1 -21 4l-79 30l-78 -30c-15 -6 -30 -5 -44 1c-23 10 -35 27 -35 52c0 26 12 43 37 53l99 40c13 5 27 5 42 0zM364 510c19 0 29 10 29 29c0 13 -6 21 -19 26l-100 40
c-7 3 -14 3 -21 0l-99 -40c-12 -5 -18 -13 -18 -26c0 -19 9 -29 28 -29c4 0 8 1 12 2l88 36l90 -36c3 -1 7 -2 10 -2zM264 347c37 0 68 -13 95 -39c26 -27 39 -58 39 -95c0 -36 -13 -68 -39 -94c-27 -26 -58 -39 -95 -39s-69 13 -95 39c-25 26 -38 58 -38 94
c0 37 13 68 38 95c26 26 58 39 95 39zM264 111c28 0 52 10 72 30s30 44 30 72s-10 52 -30 72s-44 30 -72 30s-52 -10 -72 -30s-30 -44 -30 -72s10 -52 30 -72s44 -30 72 -30zM264 427c59 0 110 -21 151 -63c42 -41 63 -92 63 -151c0 -60 -21 -110 -63 -151
c-41 -41 -92 -62 -151 -62s-109 21 -151 62c-41 42 -62 92 -62 151s21 110 62 151c42 42 92 63 151 63zM264 32c51 0 93 17 129 53c35 35 53 78 53 128c0 51 -18 93 -53 129c-36 35 -78 53 -129 53s-94 -18 -129 -53c-35 -36 -52 -78 -52 -129c0 -50 17 -93 52 -128
c35 -36 78 -53 129 -53z" />
    <glyph glyph-name="odieresis" unicode="&#xf6;" horiz-adv-x="539" 
d="M343 620c35 0 63 -29 63 -64s-28 -63 -63 -63s-63 28 -63 63s28 64 63 64zM343 524c18 0 32 14 32 32s-14 33 -32 33s-32 -15 -32 -33s14 -32 32 -32zM186 620c35 0 63 -29 63 -64s-28 -63 -63 -63s-63 28 -63 63s28 64 63 64zM186 524c18 0 33 14 33 32s-15 33 -33 33
s-32 -15 -32 -33s14 -32 32 -32zM265 348c73 0 134 -61 134 -134c0 -74 -61 -134 -134 -134c-74 0 -134 60 -134 134c0 73 60 134 134 134zM265 111c56 0 102 46 102 103c0 56 -46 102 -102 102c-57 0 -103 -46 -103 -102c0 -57 46 -103 103 -103zM265 427
c117 0 213 -96 213 -213c0 -118 -96 -214 -213 -214c-118 0 -214 96 -214 214c0 117 96 213 214 213zM265 32c100 0 181 81 181 182c0 100 -81 181 -181 181c-101 0 -182 -81 -182 -181c0 -101 81 -182 182 -182z" />
    <glyph glyph-name="otilde" unicode="&#xf5;" horiz-adv-x="539" 
d="M393 591l12 -30c4 -10 2 -21 -6 -30l-1 -1c-19 -21 -54 -33 -93 -32c-20 1 -40 4 -56 11c-9 3 -16 5 -21 5c-3 0 -8 0 -23 -7l-3 -2c-12 -7 -27 -9 -41 -5c-13 4 -23 13 -27 24l-11 39c-4 13 2 27 16 34l3 2l-2 -1c29 17 61 17 84 16c23 0 43 -6 61 -13l2 -1
c4 -1 10 -3 15 -3s13 1 16 4l2 2c10 9 26 13 41 11s27 -11 32 -23zM375 545c3 2 4 6 2 9l-12 30c-2 4 -5 7 -10 7c-5 1 -10 0 -13 -3l-2 -2c-12 -11 -30 -12 -39 -12c-9 1 -19 3 -27 6c-16 6 -33 11 -50 11c-20 1 -45 1 -66 -11l-2 -1c-4 -3 -6 -7 -4 -11l11 -39
c1 -3 4 -6 8 -7c5 -2 9 -1 13 1c0 0 3 2 4 3c17 8 28 11 40 11c10 0 21 -2 34 -8c12 -5 28 -8 44 -8c29 0 55 8 69 23v1zM265 348c73 0 134 -61 134 -134c0 -74 -61 -134 -134 -134c-74 0 -134 60 -134 134c0 73 60 134 134 134zM265 111c56 0 102 46 102 103
c0 56 -46 102 -102 102c-57 0 -103 -46 -103 -102c0 -57 46 -103 103 -103zM265 427c117 0 213 -96 213 -213c0 -118 -96 -214 -213 -214c-118 0 -214 96 -214 214c0 117 96 213 214 213zM265 32c100 0 181 81 181 182c0 100 -81 181 -181 181c-101 0 -182 -81 -182 -181
c0 -101 81 -182 182 -182z" />
    <glyph glyph-name="uacute" unicode="&#xfa;" horiz-adv-x="538" 
d="M368 596c5 -21 -5 -42 -23 -52l-81 -57c-6 -3 -14 -5 -21 -5h-41c-20 0 -37 13 -44 31c-10 29 25 57 48 78l32 30c8 6 18 10 28 10h57c21 0 40 -15 45 -35zM332 567c8 5 12 14 10 22c-2 9 -10 15 -19 15h-57c-4 0 -9 -1 -12 -4l-64 -57c-8 -6 -10 -14 -7 -21
c3 -8 10 -14 19 -14h41c3 0 89 59 89 59zM474 371v-178v-6v0c-13 -107 -104 -187 -211 -187c-115 0 -207 91 -212 207v0v164c0 31 25 55 55 55c31 0 56 -24 56 -55v-162c1 -55 46 -98 101 -98c51 0 94 37 101 87c0 6 -1 173 -1 173c0 30 25 55 56 55c30 0 55 -25 55 -55z
M443 190v3v178c0 13 -11 23 -24 23s-24 -10 -24 -23v-176c-8 -66 -65 -116 -132 -116c-72 0 -133 57 -133 129v163c0 13 -11 24 -24 24s-23 -11 -23 -24v-163c0 -99 82 -176 180 -176c92 0 169 68 180 158z" />
    <glyph glyph-name="ugrave" unicode="&#xf9;" horiz-adv-x="538" 
d="M261 496l-80 57c-19 10 -28 31 -23 52c5 20 23 35 44 35h57c10 0 20 -4 28 -10l32 -30c23 -21 59 -49 48 -78c-7 -18 -24 -31 -43 -31h-41c-8 0 -15 2 -22 5zM183 598c-2 -8 2 -17 10 -22c0 0 86 -59 90 -59h41c8 0 16 6 18 14c3 8 1 15 -6 22l-65 56c-3 3 -7 4 -12 4
h-57c-9 0 -17 -6 -19 -15zM474 371v-178v-6v0c-13 -107 -104 -187 -211 -187c-115 0 -207 91 -212 207v0v164c0 31 25 55 55 55c31 0 56 -24 56 -55v-162c1 -55 46 -98 101 -98c51 0 94 37 101 87c0 6 -1 173 -1 173c0 30 25 55 56 55c30 0 55 -25 55 -55zM443 190v3v178
c0 13 -11 23 -24 23s-24 -10 -24 -23v-176c-8 -66 -65 -116 -132 -116c-72 0 -133 57 -133 129v163c0 13 -11 24 -24 24s-23 -11 -23 -24v-163c0 -99 82 -176 180 -176c92 0 169 68 180 158z" />
    <glyph glyph-name="ucircumflex" unicode="&#xfb;" horiz-adv-x="538" 
d="M283 632l100 -39c24 -10 36 -28 36 -54c0 -16 -5 -29 -16 -41c-12 -11 -25 -16 -41 -16c-7 0 -13 1 -20 4l-80 30l-78 -30c-15 -6 -30 -5 -44 1c-23 10 -35 27 -35 52c0 26 12 43 37 53l99 40c13 5 27 5 42 0zM362 510c19 0 29 10 29 29c0 13 -6 21 -19 26l-100 40
c-3 1 -6 2 -10 2c-3 0 -7 -1 -10 -2l-100 -40c-12 -4 -17 -13 -17 -26c0 -19 9 -29 28 -29c4 0 7 1 10 2l89 36l90 -36c3 -1 7 -2 10 -2zM474 370v-177l-1 -7v0c-6 -54 -29 -98 -69 -133s-87 -53 -141 -53c-58 0 -107 20 -148 60c-42 42 -64 90 -64 146v164c0 16 5 29 16 40
c10 10 23 16 39 16s29 -6 39 -16c11 -11 16 -24 16 -40v-120c0 54 -1 40 0 -41c1 -28 12 -51 31 -70c20 -19 43 -29 71 -29c25 0 48 9 67 25c19 17 30 38 33 63v172c0 15 6 28 17 39c10 11 23 17 38 17c16 0 29 -6 40 -16c11 -11 16 -24 16 -40zM442 190l1 180
c0 16 -8 24 -25 24c-15 0 -23 -8 -23 -24v-175c-4 -33 -19 -61 -44 -83s-54 -33 -88 -33c-36 0 -68 12 -94 37s-39 55 -39 92v162c0 17 -8 25 -24 25s-23 -8 -23 -25v-163c0 -50 17 -91 53 -125c35 -34 78 -50 127 -50c46 0 86 15 120 45c34 29 53 67 59 113z" />
    <glyph glyph-name="udieresis" unicode="&#xfc;" horiz-adv-x="538" 
d="M341 620c35 0 63 -29 63 -64s-28 -63 -63 -63s-63 28 -63 63s28 64 63 64zM341 524c18 0 32 14 32 32s-14 33 -32 33s-32 -15 -32 -33s14 -32 32 -32zM184 620c35 0 63 -29 63 -64s-28 -63 -63 -63s-63 28 -63 63s28 64 63 64zM184 524c18 0 33 14 33 32s-15 33 -33 33
s-32 -15 -32 -33s14 -32 32 -32zM474 371v-178v-6v0c-13 -107 -104 -187 -211 -187c-115 0 -207 91 -212 207v0v164c0 31 25 55 55 55c31 0 56 -24 56 -55v-162c1 -55 46 -98 101 -98c51 0 94 37 101 87c0 6 -1 173 -1 173c0 30 25 55 56 55c30 0 55 -25 55 -55zM443 190v3
v178c0 13 -11 23 -24 23s-24 -10 -24 -23v-176c-8 -66 -65 -116 -132 -116c-72 0 -133 57 -133 129v163c0 13 -11 24 -24 24s-23 -11 -23 -24v-163c0 -99 82 -176 180 -176c92 0 169 68 180 158z" />
    <glyph glyph-name="dagger" unicode="&#x2020;" 
 />
    <glyph glyph-name="degree" unicode="&#xb0;" 
 />
    <glyph glyph-name="cent" unicode="&#xa2;" 
 />
    <glyph glyph-name="sterling" unicode="&#xa3;" 
 />
    <glyph glyph-name="section" unicode="&#xa7;" 
 />
    <glyph glyph-name="bullet" unicode="&#x2022;" 
 />
    <glyph glyph-name="paragraph" unicode="&#xb6;" 
 />
    <glyph glyph-name="germandbls" unicode="&#xdf;" 
 />
    <glyph glyph-name="registered" unicode="&#xae;" 
 />
    <glyph glyph-name="copyright" unicode="&#xa9;" 
 />
    <glyph glyph-name="trademark" unicode="&#x2122;" 
 />
    <glyph glyph-name="acute" unicode="&#xb4;" horiz-adv-x="295" 
d="M262 605c5 -20 -4 -41 -23 -51l-80 -57c-7 -3 -14 -5 -21 -5h-42c-19 0 -36 12 -43 31c-11 28 25 56 48 78l32 30c8 6 18 9 28 9h57c21 0 39 -14 44 -35zM227 577c8 4 12 13 10 22s-10 15 -19 15h-57c-5 0 -9 -1 -12 -4l-65 -57c-7 -6 -9 -14 -6 -22c2 -8 10 -13 18 -13
h42c3 0 89 59 89 59z" />
    <glyph glyph-name="dieresis" unicode="&#xa8;" horiz-adv-x="287" 
d="M104 618c15 0 28 -5 38 -15c11 -10 16 -23 16 -38s-5 -27 -16 -38c-10 -11 -23 -16 -38 -16s-27 5 -38 16c-10 11 -15 23 -15 38s5 28 15 38c11 10 23 15 38 15zM104 542c16 0 24 8 24 23s-8 23 -24 23c-15 0 -22 -8 -22 -23s7 -23 22 -23zM249 618c14 0 27 -5 37 -15
c11 -11 16 -23 16 -38s-5 -27 -15 -38s-23 -16 -38 -16s-28 5 -38 16c-11 11 -16 23 -16 38s5 28 16 38c10 10 23 15 38 15zM249 542c15 0 22 8 22 23s-7 23 -22 23c-16 0 -23 -8 -23 -23s7 -23 23 -23z" />
    <glyph glyph-name="notequal" unicode="&#x2260;" 
 />
    <glyph glyph-name="AE" unicode="&#xc6;" 
 />
    <glyph glyph-name="Oslash" unicode="&#xd8;" 
 />
    <glyph glyph-name="infinity" unicode="&#x221e;" 
 />
    <glyph glyph-name="plusminus" unicode="&#xb1;" 
 />
    <glyph glyph-name="lessequal" unicode="&#x2264;" 
 />
    <glyph glyph-name="greaterequal" unicode="&#x2265;" 
 />
    <glyph glyph-name="yen" unicode="&#xa5;" 
 />
    <glyph glyph-name="mu" unicode="&#xb5;" 
 />
    <glyph glyph-name="mu" unicode="&#x3bc;" 
 />
    <glyph glyph-name="partialdiff" unicode="&#x2202;" 
 />
    <glyph glyph-name="summation" unicode="&#x2211;" 
 />
    <glyph glyph-name="product" unicode="&#x220f;" 
 />
    <glyph glyph-name="pi" unicode="&#x3c0;" 
 />
    <glyph glyph-name="integral" unicode="&#x222b;" 
 />
    <glyph glyph-name="ordfeminine" unicode="&#xaa;" 
 />
    <glyph glyph-name="ordmasculine" unicode="&#xba;" 
 />
    <glyph glyph-name="Omega" unicode="&#x3a9;" 
 />
    <glyph glyph-name="Omega" unicode="&#x2126;" 
 />
    <glyph glyph-name="ae" unicode="&#xe6;" 
 />
    <glyph glyph-name="oslash" unicode="&#xf8;" 
 />
    <glyph glyph-name="questiondown" unicode="&#xbf;" horiz-adv-x="419" 
d="M330 216c16 0 30 -5 42 -17s18 -26 18 -43c0 -43 -16 -80 -47 -111v0c-33 -33 -74 -50 -123 -50c-46 0 -86 15 -119 46s-50 70 -50 116c0 39 12 73 35 103s53 51 91 63v53c0 17 5 31 17 42c12 12 27 18 44 18c16 0 30 -6 42 -18s18 -27 18 -44v-101c0 -16 -6 -30 -18 -42
s-26 -18 -43 -18s-32 -5 -46 -15c-13 -10 -20 -24 -20 -41c0 -12 5 -22 15 -30s21 -12 34 -12s24 4 34 12s15 18 15 29c0 17 6 31 17 43s26 17 44 17zM220 30c36 0 68 12 95 36s40 54 40 90c0 18 -8 27 -25 27s-26 -9 -26 -27c0 -22 -8 -40 -25 -54s-37 -21 -59 -21
s-42 7 -58 22c-17 14 -25 32 -25 54c0 27 10 48 30 65s44 26 71 26c17 0 25 8 25 25v101c0 18 -8 27 -25 27v0c-18 0 -27 -8 -27 -25v-79c-36 -6 -66 -22 -90 -48c-23 -26 -35 -56 -35 -92c0 -37 13 -67 40 -91c26 -24 58 -36 94 -36zM237 583c17 0 31 -6 43 -18
s18 -27 18 -44s-6 -31 -18 -42c-13 -12 -27 -18 -43 -18c-17 0 -32 6 -43 18c-12 12 -17 26 -17 42c0 17 5 32 17 44c11 12 26 18 43 18zM237 496c17 0 26 8 26 25c0 18 -9 27 -26 27s-26 -9 -26 -27c0 -17 9 -25 26 -25z" />
    <glyph glyph-name="exclamdown" unicode="&#xa1;" horiz-adv-x="174" 
d="M111 429c17 0 30 -6 42 -18c12 -11 17 -25 17 -42v-314c0 -17 -5 -31 -16 -43c-12 -11 -26 -17 -43 -17s-31 6 -43 17c-11 12 -17 26 -17 43v314c0 17 6 31 18 42c12 12 26 18 42 18zM137 55v314c0 17 -9 26 -26 26s-25 -9 -25 -26v-314c0 -18 8 -26 25 -26s26 8 26 26z
M111 580c17 0 30 -6 42 -18s17 -26 17 -43c0 -16 -5 -30 -17 -41c-12 -12 -25 -18 -42 -18c-16 0 -30 6 -42 18c-12 11 -18 25 -18 41c0 17 6 31 18 43s26 18 42 18zM111 494c17 0 26 8 26 25s-9 26 -26 26s-25 -9 -25 -26s8 -25 25 -25z" />
    <glyph glyph-name="logicalnot" unicode="&#xac;" 
 />
    <glyph glyph-name="radical" unicode="&#x221a;" 
 />
    <glyph glyph-name="florin" unicode="&#x192;" 
 />
    <glyph glyph-name="approxequal" unicode="&#x2248;" 
 />
    <glyph glyph-name="Delta" unicode="&#x394;" 
 />
    <glyph glyph-name="Delta" unicode="&#x2206;" 
 />
    <glyph glyph-name="guillemotleft" unicode="&#xab;" 
 />
    <glyph glyph-name="guillemotright" unicode="&#xbb;" 
 />
    <glyph glyph-name="ellipsis" unicode="&#x2026;" 
 />
    <glyph glyph-name="nbspace" unicode="&#xa0;" 
 />
    <glyph glyph-name="Agrave" unicode="&#xc0;" 
 />
    <glyph glyph-name="Atilde" unicode="&#xc3;" 
 />
    <glyph glyph-name="Otilde" unicode="&#xd5;" 
 />
    <glyph glyph-name="OE" unicode="&#x152;" 
 />
    <glyph glyph-name="oe" unicode="&#x153;" 
 />
    <glyph glyph-name="endash" unicode="&#x2013;" 
 />
    <glyph glyph-name="emdash" unicode="&#x2014;" 
 />
    <glyph glyph-name="quotedblleft" unicode="&#x201c;" horiz-adv-x="355" 
d="M243 634c-18 18 -20 42 -20 60v6v6v-1c0 43 31 104 88 104c18 0 34 -15 34 -34c0 -17 -13 -31 -30 -34c-3 0 -5 -2 -7 -3c25 -9 43 -32 43 -60v0c0 -35 -28 -63 -63 -63c-12 0 -24 3 -34 10c-4 3 -8 6 -11 9zM247 705v-5c0 -15 0 -36 13 -49c2 -2 4 -4 7 -6
c6 -4 13 -6 21 -6c21 0 39 17 39 39v0c0 22 -18 39 -39 39c-7 0 -14 -2 -20 -6c3 15 15 49 43 54c5 1 10 4 10 10s-5 10 -10 10c-41 0 -63 -49 -64 -80zM70 634c-17 18 -19 42 -19 60v6v6v-1c0 43 31 104 88 104c18 0 34 -15 34 -34c0 -17 -13 -31 -30 -34c-3 0 -5 -2 -7 -3
c25 -9 43 -32 43 -60v0c0 -35 -28 -63 -63 -63c-12 0 -24 3 -34 10zM75 705v-5c0 -15 0 -36 13 -49c2 -2 4 -4 7 -6c6 -4 13 -6 21 -6c21 0 39 17 39 39v0c0 22 -18 39 -39 39c-7 0 -14 -2 -20 -6c3 15 15 49 43 54c5 1 10 4 10 10s-5 10 -10 10c-41 0 -63 -49 -64 -80z" />
    <glyph glyph-name="quotedblright" unicode="&#x201d;" horiz-adv-x="355" 
d="M159 790c18 -18 20 -42 20 -60v-6v-6v1c0 -43 -32 -104 -88 -104c-19 0 -34 15 -34 34c0 17 12 31 30 34c2 0 5 2 7 3c-25 9 -43 32 -43 60v0c0 35 28 63 63 63c12 0 23 -3 34 -10c4 -3 8 -6 11 -9zM154 719v5c1 15 1 36 -12 49c-2 2 -5 4 -7 6c-6 4 -14 6 -21 6
c-22 0 -39 -17 -39 -39v0c0 -22 17 -39 39 -39c7 0 14 2 20 6c-3 -15 -16 -49 -43 -54c-5 -1 -10 -4 -10 -10c0 -5 5 -10 10 -10c40 0 63 49 63 80zM331 790c18 -18 20 -42 20 -60v-6v-6v1c0 -43 -32 -104 -88 -104c-19 0 -34 15 -34 34c0 17 12 31 30 34c2 0 5 2 7 3
c-25 9 -43 32 -43 60v0c0 35 28 63 63 63c12 0 23 -3 34 -10c4 -3 8 -6 11 -9zM327 719v5c0 15 0 36 -13 49c-2 2 -5 4 -7 6c-6 4 -13 6 -21 6c-21 0 -39 -17 -39 -39v0c0 -22 18 -39 39 -39c7 0 14 2 20 6c-3 -15 -15 -49 -43 -54c-5 -1 -10 -4 -10 -10c0 -5 5 -10 10 -10
c40 0 63 49 64 80z" />
    <glyph glyph-name="quoteleft" unicode="&#x2018;" horiz-adv-x="227" 
d="M70 634c-17 18 -19 42 -19 60v6v6v-1c0 43 31 104 88 104c18 0 34 -15 34 -34c0 -17 -13 -31 -30 -34c-3 0 -5 -2 -7 -3c25 -9 43 -32 43 -60v0c0 -35 -28 -63 -63 -63c-12 0 -24 3 -34 10zM75 705v-5c0 -15 0 -36 13 -49c2 -2 4 -4 7 -6c6 -4 13 -6 21 -6
c21 0 39 17 39 39v0c0 22 -18 39 -39 39c-7 0 -14 -2 -20 -6c3 15 15 49 43 54c5 1 10 4 10 10s-5 10 -10 10c-41 0 -63 -49 -64 -80z" />
    <glyph glyph-name="quoteright" unicode="&#x2019;" horiz-adv-x="227" 
d="M159 790c18 -18 20 -42 20 -60v-6l-1 -6v1c0 -43 -31 -104 -87 -104c-19 0 -34 15 -34 34c0 17 12 31 30 34c2 0 5 2 7 3c-25 9 -43 32 -43 60v0c0 35 28 63 63 63c12 0 23 -3 34 -10c4 -3 8 -6 11 -9zM154 719v5c1 15 1 36 -12 49c-2 2 -5 4 -7 6c-6 4 -14 6 -21 6
c-22 0 -39 -17 -39 -39v0c0 -22 17 -39 39 -39c7 0 14 2 20 6c-3 -15 -16 -49 -43 -54c-5 -1 -10 -4 -10 -10c0 -5 5 -10 10 -10c40 0 63 49 63 80z" />
    <glyph glyph-name="divide" unicode="&#xf7;" 
 />
    <glyph glyph-name="lozenge" unicode="&#x25ca;" 
 />
    <glyph glyph-name="ydieresis" unicode="&#xff;" 
 />
    <glyph glyph-name="Ydieresis" unicode="&#x178;" 
 />
    <glyph glyph-name="fraction" unicode="&#x2044;" 
 />
    <glyph glyph-name="currency" unicode="&#xa4;" 
 />
    <glyph glyph-name="guilsinglleft" unicode="&#x2039;" 
 />
    <glyph glyph-name="guilsinglright" unicode="&#x203a;" 
 />
    <glyph glyph-name="fi" unicode="&#xfb01;" 
 />
    <glyph glyph-name="fl" unicode="&#xfb02;" 
 />
    <glyph glyph-name="daggerdbl" unicode="&#x2021;" 
 />
    <glyph glyph-name="periodcentered" unicode="&#xb7;" 
 />
    <glyph glyph-name="quotesinglbase" unicode="&#x201a;" 
 />
    <glyph glyph-name="quotedblbase" unicode="&#x201e;" 
 />
    <glyph glyph-name="perthousand" unicode="&#x2030;" 
 />
    <glyph glyph-name="Acircumflex" unicode="&#xc2;" 
 />
    <glyph glyph-name="Ecircumflex" unicode="&#xca;" 
 />
    <glyph glyph-name="Aacute" unicode="&#xc1;" 
 />
    <glyph glyph-name="Edieresis" unicode="&#xcb;" 
 />
    <glyph glyph-name="Egrave" unicode="&#xc8;" 
 />
    <glyph glyph-name="Iacute" unicode="&#xcd;" 
 />
    <glyph glyph-name="Icircumflex" unicode="&#xce;" 
 />
    <glyph glyph-name="Idieresis" unicode="&#xcf;" 
 />
    <glyph glyph-name="Igrave" unicode="&#xcc;" 
 />
    <glyph glyph-name="Oacute" unicode="&#xd3;" 
 />
    <glyph glyph-name="Ocircumflex" unicode="&#xd4;" 
 />
    <glyph glyph-name="apple" 
 />
    <glyph glyph-name="Ograve" unicode="&#xd2;" 
 />
    <glyph glyph-name="Uacute" unicode="&#xda;" 
 />
    <glyph glyph-name="Ucircumflex" unicode="&#xdb;" 
 />
    <glyph glyph-name="Ugrave" unicode="&#xd9;" 
 />
    <glyph glyph-name="dotlessi" unicode="&#x131;" 
 />
    <glyph glyph-name="circumflex" unicode="&#x2c6;" horiz-adv-x="360" 
d="M229 632l100 -39c24 -10 36 -28 36 -54c0 -16 -5 -29 -17 -41c-11 -11 -24 -16 -40 -16c-7 0 -13 1 -20 4l-80 30l-78 -30c-15 -6 -30 -5 -44 1c-23 10 -35 27 -35 52c0 26 12 43 37 53l99 40c13 5 27 5 42 0zM308 510c19 0 29 10 29 29c0 13 -6 21 -19 26l-100 40
c-3 1 -6 2 -10 2c-3 0 -7 -1 -10 -2l-100 -40c-12 -5 -18 -13 -18 -26c0 -19 9 -29 28 -29c4 0 8 1 11 2l89 36l90 -36c3 -1 7 -2 10 -2z" />
    <glyph glyph-name="tilde" unicode="&#x2dc;" horiz-adv-x="405" 
d="M320 590l13 -30c4 -10 2 -22 -6 -30l-1 -1c-19 -21 -54 -33 -93 -32c-20 0 -40 4 -56 10c-9 4 -16 6 -21 6c-3 0 -8 0 -23 -7l-4 -2c-11 -7 -26 -9 -40 -5c-13 4 -23 13 -27 24l-11 39c-4 13 2 27 16 34l3 2l-2 -1c29 17 61 17 84 16c23 0 43 -6 61 -13l2 -1
c4 -2 10 -3 14 -3c6 0 13 1 16 3l3 3c10 9 26 13 40 11c15 -3 28 -11 32 -23zM303 543l-1 -1c-13 -14 -39 -23 -68 -22c-16 0 -32 3 -44 8c-14 5 -24 8 -34 8c-12 0 -23 -3 -40 -12c-1 0 -4 -2 -4 -2c-4 -2 -9 -3 -13 -2c-4 2 -7 4 -8 8l-12 39c-1 4 1 8 5 11l2 1
c20 12 45 12 66 11c17 0 34 -5 50 -11c8 -4 18 -6 27 -6s27 1 38 11l3 3c3 3 8 4 13 3c4 -1 8 -3 10 -7l12 -30c2 -4 1 -7 -2 -10zM320 590l13 -30c4 -10 2 -22 -6 -30l-1 -1c-19 -21 -54 -33 -93 -32c-20 0 -40 4 -56 10c-9 4 -16 6 -21 6c-3 0 -8 0 -23 -7l-4 -2
c-11 -7 -26 -9 -40 -5c-13 4 -23 13 -27 24l-11 39c-4 13 2 27 16 34l3 2l-2 -1c29 17 61 17 84 16c23 0 43 -6 61 -13l2 -1c4 -2 10 -3 14 -3c6 0 13 1 16 3l3 3c10 9 26 13 40 11c15 -3 28 -11 32 -23zM303 543l-1 -1c-13 -14 -39 -23 -68 -22c-16 0 -32 3 -44 8
c-14 5 -24 8 -34 8c-12 0 -23 -3 -40 -12c-1 0 -4 -2 -4 -2c-4 -2 -9 -3 -13 -2c-4 2 -7 4 -8 8l-12 39c-1 4 1 8 5 11l2 1c20 12 45 12 66 11c17 0 34 -5 50 -11c8 -4 18 -6 27 -6s27 1 38 11l3 3c3 3 8 4 13 3c4 -1 8 -3 10 -7l12 -30c2 -4 1 -7 -2 -10z" />
    <glyph glyph-name="macron" unicode="&#xaf;" 
 />
    <glyph glyph-name="breve" unicode="&#x2d8;" 
 />
    <glyph glyph-name="dotaccent" unicode="&#x2d9;" 
 />
    <glyph glyph-name="ring" unicode="&#x2da;" 
 />
    <glyph glyph-name="cedilla" unicode="&#xb8;" 
 />
    <glyph glyph-name="hungarumlaut" unicode="&#x2dd;" 
 />
    <glyph glyph-name="ogonek" unicode="&#x2db;" 
 />
    <glyph glyph-name="caron" unicode="&#x2c7;" 
 />
    <glyph glyph-name="NUL" 
 />
    </font>
</defs>
</svg>
