<?xml version="1.0" standalone="no"?>
<!DOCTYPE svg PUBLIC "-//W3C//DTD SVG 1.1//EN" "http://www.w3.org/Graphics/SVG/1.1/DTD/svg11.dtd" >
<svg>
<metadata>
Created by FontForge 20090914 at Fri Feb 24 06:14:31 2012
 By root
&#194;&#169;GemFonts
</metadata>
<defs>
<font id="FortuneCityOutline" horiz-adv-x="1761" >
  <font-face 
    font-family="FortuneCity Outline"
    font-weight="400"
    font-stretch="normal"
    units-per-em="2610"
    panose-1="0 0 4 0 0 0 0 0 0 0"
    ascent="2088"
    descent="-522"
    x-height="1051"
    cap-height="1553"
    bbox="-711 -550 2286 2050"
    underline-thickness="150"
    underline-position="-142"
    unicode-range="U+0020-U+2219"
  />
<missing-glyph horiz-adv-x="1305" 
d="M163 0v2050h979v-2050h-979zM326 163h653v1724h-653v-1724z" />
    <glyph glyph-name=".notdef" horiz-adv-x="1305" 
d="M163 0v2050h979v-2050h-979zM326 163h653v1724h-653v-1724z" />
    <glyph glyph-name=".null" horiz-adv-x="0" 
 />
    <glyph glyph-name="nonmarkingreturn" horiz-adv-x="1263" 
 />
    <glyph glyph-name="space" unicode=" " horiz-adv-x="1263" 
 />
    <glyph glyph-name="exclam" unicode="!" horiz-adv-x="357" 
d="M186 47v106h-105v-106h105zM234 -47h-201l-47 47v200l47 48h201l47 -48v-200zM81 399h105v1059h-105v-1059zM-14 351v1155l47 47h201l47 -47v-1155l-47 -47h-201z" />
    <glyph glyph-name="quotedbl" unicode="&#x22;" horiz-adv-x="708" 
d="M81 1458v-105h53l47 -48v-100l-13 -34l-87 -87v-16l105 106v284h-105zM33 1553h201l47 -47v-352l-14 -33l-200 -201l-81 34v150l14 33l86 87v34h-53l-47 47v201zM431 1458v-105h53l47 -48v-100l-14 -34l-86 -87v-16l106 106v284h-106zM384 1553h200l48 -47v-352l-14 -33
l-201 -201l-81 34v150l14 33l86 87v34h-52l-48 47v201z" />
    <glyph glyph-name="numbersign" unicode="#" horiz-adv-x="1060" 
d="M889 1007h-102l-48 47v103h-106v-103l-48 -47h-200l-48 47v103h-105v-103l-48 -47h-103v-106h103l48 -48v-200l-48 -48h-103v-106h103l48 -48v-102h105v102l48 48h200l48 -48v-102h106v102l48 48h102v106h-102l-48 48v200l48 48h102v106zM984 1054v-201l-47 -47h-103
v-106h103l47 -47v-202l-47 -47h-103v-103l-47 -47h-202l-47 47v103h-106v-103l-47 -47h-201l-47 47v103h-104l-47 47v202l47 47h104v106h-104l-47 47v201l47 48h104v103l47 47h201l47 -47v-103h106v103l47 47h202l47 -47v-103h103zM585 901l48 -48v-200l-48 -48h-200l-48 48
v200l48 48h200zM538 806h-106v-106h106v106z" />
    <glyph glyph-name="dollar" unicode="$" horiz-adv-x="1161" 
d="M588 -104v113l39 46q154 28 255 133q108 111 108 263t-108 264q-101 105 -255 132l-39 47v405l59 46q153 -40 183 -194h107q-14 123 -99 206.5t-208 98.5l-42 47v106h-105v-106l-42 -47q-137 -17 -223.5 -115.5t-86.5 -236.5t86.5 -236t223.5 -115l42 -47v-491l-61 -46
q-200 59 -232 235h-106q16 -134 122 -232q100 -91 238 -117l39 -46v-113h105zM636 -199h-201l-47 48v121q-173 43 -285 172q-117 135 -117 309l47 48h201l47 -48q0 -104 107 -165v380q-157 32 -254.5 154.5t-97.5 283.5t97.5 283.5t254.5 155.5v114l47 47h201l47 -47v-114
q157 -32 254.5 -154.5t97.5 -284.5l-48 -48h-200l-48 48q0 72 -56 119v-291q174 -42 285 -171q117 -134 117 -310t-117 -310q-111 -128 -285 -171v-121zM884 451q0 -101 -69 -179q-65 -73 -166 -103l-61 46v473l61 45q101 -29 166 -102q69 -79 69 -180zM741 570
q-24 27 -58 47v-331q106 61 106 165q0 66 -48 119zM423 1345l60 -46v-389l-60 -46q-82 21 -134 88t-52 152t52 152t134 89zM332 1104q0 -72 56 -118v237q-56 -47 -56 -119z" />
    <glyph glyph-name="percent" unicode="%" horiz-adv-x="1518" 
d="M519 1366q-71 92 -185 92q-117 0 -188 -96q-65 -87 -65 -208q0 -120 65 -207q71 -97 188 -97q118 0 189 97q65 87 65 207q0 124 -69 212zM594 1425q89 -114 89 -271q0 -160 -92 -275q-99 -124 -257 -124q-157 0 -256 124q-92 115 -92 275q0 161 92 275q99 124 256 124
q160 0 260 -128zM216 1274q42 79 118 79q70 0 113 -68q36 -57 36 -131q0 -73 -36 -131q-42 -66 -113 -66q-70 0 -112 66q-36 58 -36 131q0 65 30 120zM299 1229q-18 -34 -18 -75q0 -102 53 -102q54 0 54 102q0 30 -13 62q-15 42 -41 42q-19 0 -35 -29zM128 45h131l1050 1413
l-132 -1zM-5 25l1120 1507l38 19l251 2l38 -76l-1121 -1508l-38 -19h-250zM834 351q0 -120 65 -207q72 -97 189 -97t189 97q64 87 64 207q0 121 -64 208q-72 96 -189 96q-113 0 -183.5 -90t-70.5 -214zM828 622q100 128 260 128q157 0 256 -123q92 -115 92 -276
q0 -160 -92 -275q-99 -123 -256 -123q-158 0 -257 123q-92 115 -92 275q0 157 89 271zM1206 471q30 -55 30 -120q0 -73 -36 -131q-42 -67 -112 -67t-112 67q-36 58 -36 131q0 74 35 131q42 67 113 67q76 0 118 -78zM1123 426q-15 28 -35 28q-53 0 -53 -103q0 -29 12 -62
q15 -41 41 -41q25 0 41 41q12 33 12 62q0 41 -18 75z" />
    <glyph glyph-name="ampersand" unicode="&#x26;" horiz-adv-x="1156" 
d="M678 673v-95l133 67l69 -43v-151q0 -135 -109 -220q-101 -78 -238 -78q-138 0 -238 78q-109 85 -109 220q0 122 93 206q85 78 209 91v108q-107 0 -179 70.5t-72 177.5q0 106 71 177.5t177 71.5q92 0 160.5 -56t83.5 -146h107q-15 135 -114.5 221t-236.5 86
q-151 0 -252.5 -101.5t-101.5 -252.5q0 -159 120 -266l-4 -74q-166 -121 -166 -313q0 -182 137 -296q128 -107 313 -108q184 0 315 108q139 115 139 296v304h-137zM610 746l206 99l21 5h196l47 -47v-352q0 -219 -165 -362q-158 -136 -379 -136h-5q-224 0 -381 134
q-164 142 -164 364q0 213 162 356q-112 124 -112 297q0 191 129.5 320t319.5 129q191 0 320 -129t129 -320l-48 -48h-200l-48 48q0 67 -43 110.5t-110 43.5t-110 -43.5t-43 -110.5t43.5 -110t109.5 -43h51l47 -48v-200l-47 -48q-99 0 -172 -51q-83 -58 -83 -153
q0 -94 82 -152q72 -51 170 -51t170 51q82 58 82 152v74l-133 -66l-69 43v201z" />
    <glyph glyph-name="quotesingle" unicode="'" horiz-adv-x="357" 
d="M81 1458v-105h53l47 -48v-100l-13 -34l-87 -87v-16l105 106v284h-105zM33 1553h201l47 -47v-352l-14 -33l-200 -201l-81 34v150l14 33l86 87v34h-53l-47 47v201z" />
    <glyph glyph-name="parenleft" unicode="(" horiz-adv-x="502" 
d="M228 1860q-147 -751 -147 -1108t147 -1106h94q-76 432 -92 551q-44 306 -44 555q0 360 136 1108h-94zM189 1955h190l47 -56q-145 -793 -145 -1147q0 -255 47 -575q12 -83 98 -571l-47 -55h-190l-47 38q-156 795 -156 1163t156 1165z" />
    <glyph glyph-name="parenright" unicode=")" horiz-adv-x="503" 
d="M223 1955l47 -38q157 -789 157 -1165t-157 -1163l-47 -38h-190l-46 56q144 797 144 1145q0 349 -144 1147l46 56h190zM184 1860h-94q136 -752 136 -1108q0 -354 -136 -1106h94q148 742 148 1106q0 365 -148 1108z" />
    <glyph glyph-name="asterisk" unicode="*" horiz-adv-x="893" 
d="M529 1316l-76 38v104h-106v-98l-77 -37l-106 81l-64 -84l167 -128v-76l-167 -127l64 -85l106 82l77 -38v-98h106v105l76 37l119 -90l64 84l-171 130v76l171 131l-64 84zM548 1450l81 61l66 -9l122 -159l-9 -67l-160 -122l160 -122l9 -66l-122 -160l-66 -9l-81 62v-56
l-47 -48h-202l-47 48v49l-68 -52l-67 9l-122 160l9 66l156 119l-156 119l-9 67l122 159l67 9l68 -52v50l47 47h202l47 -47v-56z" />
    <glyph glyph-name="plus" unicode="+" horiz-adv-x="961" 
d="M488 1107h-106v-254l-48 -47h-253v-106h253l48 -47v-255h106v255l48 47h253v106h-253l-48 47v254zM583 1154v-253h254l47 -48v-200l-47 -48h-254v-254l-47 -48h-202l-47 48v254h-254l-47 48v200l47 48h254v253l47 48h202z" />
    <glyph glyph-name="comma" unicode="," horiz-adv-x="357" 
d="M81 47h53l47 -47v-101l-13 -33l-87 -87v-16l105 106v284h-105v-106zM-14 0v200l47 48h201l47 -48v-351l-14 -34l-200 -200l-81 34v150l14 33l86 87v33l-53 1z" />
    <glyph glyph-name="hyphen" unicode="-" horiz-adv-x="961" 
d="M789 700v106h-708v-106h708zM837 605h-804l-47 48v200l47 48h804l47 -48v-200z" />
    <glyph glyph-name="hyphen" unicode="&#x2010;" horiz-adv-x="961" 
d="M789 700v106h-708v-106h708zM837 605h-804l-47 48v200l47 48h804l47 -48v-200z" />
    <glyph glyph-name="period" unicode="." horiz-adv-x="357" 
d="M186 47v106h-105v-106h105zM234 -47h-201l-47 47v200l47 48h201l47 -48v-200z" />
    <glyph glyph-name="slash" unicode="/" horiz-adv-x="1218" 
d="M114 46h120l785 1412h-121zM-8 22l837 1507l41 24h230l42 -70l-838 -1508l-42 -24l-229 1z" />
    <glyph glyph-name="zero" unicode="0" horiz-adv-x="1262" 
d="M1043 233q-173 -280 -458 -280q-281 0 -452 271q-147 233 -147 528t147 529q171 272 452 272q283 0 454 -271q147 -233 147 -530q0 -288 -143 -519zM962 282q129 209 129 470q0 255 -122 462q-144 244 -384 244q-239 0 -383 -245q-121 -207 -121 -461t121 -460
q144 -245 383 -245q232 0 377 235zM814 1083q-86 175 -229 175q-149 0 -236 -189q-68 -149 -68 -317t68 -316q86 -188 236 -188q151 0 237 188q67 147 67 316q0 179 -75 331zM984 752q0 -213 -91 -386q-111 -213 -308 -213q-195 0 -307 214q-92 174 -92 385q0 212 92 386
q112 215 307 215t308 -213q91 -173 91 -388z" />
    <glyph glyph-name="one" unicode="1" horiz-adv-x="609" 
d="M84 -47l-48 47v200l48 48h53v909h-104l-33 81l52 52l302 252l78 -36v-1258h53l48 -48v-200l-48 -47h-401zM154 1252h30l48 -47v-1005l-48 -47h-53v-106h307v106h-53l-48 47v1204z" />
    <glyph glyph-name="two" unicode="2" horiz-adv-x="1161" 
d="M915 688q-157 -133 -379 -133q-90 0 -159 -113q-50 -83 -75 -194h685l48 -48v-200l-48 -47h-954l-47 47v49q0 286 128 519q156 282 422 282q96 0 170 53q83 59 83 151q0 95 -82 152q-73 52 -171 52t-172 -52q-83 -58 -83 -152l-47 -47h-201l-47 47q0 222 167 364
q158 135 383 135t382 -134q167 -142 167 -365t-170 -366zM910 818q80 99 80 236q0 183 -139 297q-130 107 -315 107q-169 0 -297 -93q-138 -100 -156 -263h107q19 115 126 186q98 65 220 65q137 0 238 -78q110 -86 110 -221q0 -133 -110 -219q-102 -80 -238 -80
q-222 0 -351 -257q-104 -207 -104 -451h859v106h-695l-47 55q26 164 99 284q96 158 239 158q102 0 186 32q114 44 188 136z" />
    <glyph glyph-name="three" unicode="3" horiz-adv-x="1161" 
d="M915 85q-158 -132 -379 -132q-225 0 -383 134q-167 143 -167 364l47 48h201l47 -48q0 -94 83 -152q74 -51 172 -51t171 51q82 58 82 152q0 93 -83 152q-74 52 -170 52h-51l-47 48v200l47 48h51q26 0 53 -2h11q139 13 139 155q0 67 -43.5 110.5t-110.5 43.5h-100
q-67 0 -110 -43.5t-43 -110.5l-48 -48h-200l-48 48q0 191 129.5 320t319.5 129h100q191 0 320.5 -129t129.5 -320q0 -173 -113 -297q163 -143 163 -356q0 -223 -170 -366zM854 158q136 114 136 293q0 192 -167 313l-3 74q120 107 120 266q0 151 -101.5 252.5t-253.5 101.5
h-100q-136 0 -236 -86t-115 -221h106q16 90 84.5 146t160.5 56h100q107 0 178 -71.5t71 -177.5t-94 -184q-82 -68 -148 -64l-10 -2q-23 2 -48 2l2 -106q136 0 238 -79q110 -86 110 -220q0 -135 -110 -220q-101 -78 -238 -78q-122 0 -220 65q-107 71 -126 186h-107
q18 -163 156 -263q128 -94 297 -94q186 0 318 111z" />
    <glyph glyph-name="four" unicode="4" horiz-adv-x="1262" 
d="M884 404v-404l-47 -47h-201l-48 47v404h-555l-42 68l100 202l383 851l44 28l219 -2l43 -66l-347 -785h155v304l48 48h201l47 -48v-304h254l48 -47v-202l-48 -47h-254zM837 499h254v106h-254l-48 48v304h-106v-304l-47 -48h-276l-43 67l347 785l-116 1l-438 -959h526
l47 -48v-404h106v404z" />
    <glyph glyph-name="five" unicode="5" horiz-adv-x="1161" 
d="M536 -47q-234 0 -392 157.5t-158 391.5l47 47h201l47 -47q0 -110 72.5 -182t182.5 -72q109 0 181 72t72 182q0 109 -72 181t-181 72h-402l-48 48v703l48 47h803l47 -47v-201l-47 -47h-555v-206h154q233 0 391 -159t158 -391t-159 -390.5t-390 -158.5zM983 414q7 42 7 88
q0 193 -130.5 324t-323.5 131h-202l-47 47v301l47 48h555v105h-708v-608h355q148 0 248 -100t100 -248q0 -149 -100 -249t-248 -100q-134 0 -232.5 84.5t-114.5 216.5h-106q15 -177 144.5 -292t308.5 -115q165 0 292 102.5t155 264.5z" />
    <glyph glyph-name="six" unicode="6" horiz-adv-x="1161" 
d="M915 85q-158 -132 -379 -132q-225 0 -383 134q-167 143 -167 364v101q0 385 201 675q227 326 600 326l47 -47v-201l-47 -47q-145 0 -265 -102q-104 -88 -167 -232q86 27 181 27q226 0 383 -134q166 -142 166 -366q0 -223 -170 -366zM854 158q136 114 136 293
q0 184 -138 298q-129 107 -316 107q-130 0 -239 -61l-69 55q57 196 182 330q142 153 329 171v106q-310 -21 -496 -318q-162 -259 -162 -587v-101q0 -182 139 -296q131 -108 316 -108q186 0 318 111zM711 599q-75 56 -175 56q-99 0 -172 -51q-83 -58 -83 -153q0 -94 83 -152
q74 -51 172 -51t171 51q82 58 82 152q0 89 -78 148zM884 451q0 -135 -110 -220q-101 -78 -238 -78q-138 0 -239 78q-111 86 -111 220q0 136 110 221q101 78 240 78q136 0 238 -79q110 -87 110 -220z" />
    <glyph glyph-name="seven" unicode="7" horiz-adv-x="1169" 
d="M640 -14l-45 -33h-210l-46 61l373 1244h-679l-47 47v201l47 47h1014l45 -61zM559 47l424 1411h-902v-105h695l46 -61l-373 -1245h110z" />
    <glyph glyph-name="eight" unicode="8" horiz-adv-x="1161" 
d="M1007 194q-161 -241 -471 -241q-221 0 -382 137q-168 145 -168 361q0 213 162 356q-112 124 -112 297q0 191 129.5 320t319.5 129h100q192 0 321 -129t129 -320q0 -173 -113 -297q163 -143 163 -356q0 -139 -78 -257zM928 247q62 93 62 204q0 192 -167 313l-3 74
q120 107 120 266q0 152 -101.5 253t-253.5 101h-100q-151 0 -252.5 -101.5t-101.5 -252.5q0 -159 120 -266l-4 -74q-166 -121 -166 -313q0 -177 141 -293q133 -111 314 -111q259 0 392 200zM585 1258h-100q-67 0 -110 -43.5t-43 -110.5t43.5 -110t109.5 -43h100
q67 0 110.5 43t43.5 110t-43.5 110.5t-110.5 43.5zM834 1104q0 -106 -71.5 -177t-177.5 -71h-100q-106 0 -177 71t-71 177t71 177.5t177 71.5h100q106 0 177.5 -71.5t71.5 -177.5zM711 599q-75 56 -175 56q-99 0 -172 -51q-83 -58 -83 -153q0 -94 83 -152q74 -51 172 -51
t171 51q82 58 82 152q0 89 -78 148zM884 451q0 -135 -110 -220q-101 -78 -238 -78q-138 0 -239 78q-111 86 -111 220q0 136 110 221q101 78 240 78q136 0 238 -79q110 -87 110 -220z" />
    <glyph glyph-name="nine" unicode="9" horiz-adv-x="1161" 
d="M887 286q-229 -333 -603 -333l-47 47v200l47 48q287 0 432 334q-86 -27 -180 -27q-226 0 -384 134q-166 143 -166 365t167 364q158 135 383 135t382 -134q167 -143 167 -365v-100q0 -379 -198 -668zM808 339q182 265 182 615v100q0 183 -139 297q-130 107 -315 107
t-316 -107q-139 -115 -139 -297q0 -183 139 -297q129 -107 316 -107q129 0 238 60l69 -54q-58 -197 -182 -331q-142 -153 -329 -170v-106q291 20 476 290zM536 1258q-98 0 -172 -52q-83 -58 -83 -152q0 -95 83 -152q73 -52 172 -52q96 0 170 53q83 59 83 151q0 91 -76 147.5
t-177 56.5zM884 1054q0 -133 -110 -219q-102 -80 -238 -80q-139 0 -240 79q-110 85 -110 220t111 220q101 79 239 79t239 -79q109 -85 109 -220z" />
    <glyph glyph-name="colon" unicode=":" horiz-adv-x="357" 
d="M186 47v106h-105v-106h105zM234 -47h-201l-47 47v200l47 48h201l47 -48v-200zM186 670v105h-105v-105h105zM234 575h-201l-47 47v201l47 47h201l47 -47v-201z" />
    <glyph glyph-name="semicolon" unicode=";" horiz-adv-x="357" 
d="M81 47h53l47 -47v-101l-13 -33l-87 -87v-16l105 106v284h-105v-106zM-14 0v200l47 48h201l47 -48v-351l-14 -34l-200 -200l-81 34v150l14 33l86 87v33l-53 1zM186 670v105h-105v-105h105zM234 575h-201l-47 47v201l47 47h201l47 -47v-201z" />
    <glyph glyph-name="less" unicode="&#x3c;" horiz-adv-x="1011" 
d="M839 1032v116l-758 -349v-153l759 -350v116l-579 268v86zM906 958l-511 -235l512 -237l28 -43v-221l-68 -43l-854 393l-27 44v213l27 43l853 394l68 -43v-222z" />
    <glyph glyph-name="equal" unicode="=" horiz-adv-x="1011" 
d="M839 901v105h-758v-105h758zM886 806h-853l-47 47v201l47 47h853l48 -47v-201zM81 499h759v106h-759v-106zM-14 451v202l47 47h854l48 -47v-202l-48 -47h-854z" />
    <glyph glyph-name="greater" unicode="&#x3e;" horiz-adv-x="1011" 
d="M14 958l-27 43v222l67 43l853 -394l28 -43v-213l-28 -44l-854 -393l-67 43v221l27 43l513 237zM82 1032l577 -266v-86l-578 -268v-116l759 350v153l-758 349v-116z" />
    <glyph glyph-name="question" unicode="?" horiz-adv-x="1161" 
d="M83 1101h107q19 116 125 187q98 65 221 65q136 0 238 -80q110 -86 110 -219q0 -135 -110 -221q-101 -78 -238 -78h-104v-357h106v206l43 48q170 14 286 121q123 113 123 281q0 183 -138 297q-129 107 -316 107q-171 0 -298 -93q-137 -100 -155 -264zM156 1420
q158 133 380 133q226 0 383 -134q166 -142 166 -365q0 -192 -133 -331q-127 -132 -319 -161v-211l-48 -48h-200l-48 48v452l48 47h151q98 0 171 52q82 57 82 152q0 92 -83 151q-74 53 -170 53q-99 0 -172 -52q-83 -57 -83 -152l-47 -48h-201l-47 48q0 224 170 366zM538 47
v106h-106v-106h106zM585 -47h-200l-48 47v200l48 48h200l48 -48v-200z" />
    <glyph glyph-name="at" unicode="@" horiz-adv-x="1858" 
d="M1339 697v711q-203 140 -453 140q-344 0 -574.5 -231t-230.5 -575q0 -345 230 -576t575 -231q300 0 521 183t273 476h-109q-50 -246 -241 -399t-444 -153q-298 0 -499 200.5t-201 499.5t201 499.5t499 200.5q173 0 324 -79l26 -43v-177l-76 -38q-121 91 -274 91
q-193 0 -323.5 -130.5t-130.5 -323.5q0 -194 130 -324.5t324 -130.5q181 0 308 115t145 294v1zM1430 1444h3v-5v-2q2 15 3 -5l-3 5v-9v-741q-21 -216 -175.5 -355.5t-371.5 -139.5q-233 0 -391 158t-158 392q0 233 158.5 391t390.5 158q138 0 255 -62v62q-120 56 -255 56
q-259 0 -432 -173t-173 -432t173 -432t432 -173q230 0 397 142.5t201 368.5l47 41h204l47 -53q-41 -350 -292.5 -573t-603.5 -223q-384 0 -642 258.5t-258 643.5q0 384 258.5 642.5t641.5 258.5q294 0 531 -173zM1236 742q0 -150 -100 -249.5t-250 -99.5q-148 0 -248 100
t-100 249t100 249t248 100t249 -100.5t101 -248.5zM886 996q-109 0 -181 -72.5t-72 -181.5t72 -181.5t181 -72.5q111 0 183 72t72 182q0 108 -73 181t-182 73z" />
    <glyph glyph-name="A" unicode="A" horiz-adv-x="1728" 
d="M728 1458l-622 -1410l118 -1l230 523l44 28h653l44 -28l230 -523l111 1l-615 1410h-193zM697 1553h255l43 -28l657 -1505l-43 -67l-215 -1l-44 28l-230 523h-591l-231 -523l-44 -28l-221 1l-43 67l664 1505zM781 1315h87l239 -544l-44 -66h-477l-43 66zM825 1178
l-166 -378h331z" />
    <glyph glyph-name="B" unicode="B" horiz-adv-x="1211" 
d="M940 1104q0 151 -101.5 252.5t-252.5 101.5h-505v-1411h505q187 0 316 106q138 115 138 298q0 210 -193 330l-9 74q102 104 102 249zM1035 1104q0 -155 -92 -273q192 -145 192 -380q0 -223 -166 -365q-157 -134 -383 -134h-553l-47 47v1507l47 47h553q191 0 320 -129
t129 -320zM586 1353q106 0 177 -71.5t71 -177.5q0 -107 -70.5 -177.5t-177.5 -70.5h-351l-48 47v402l48 48h351zM586 1258h-304v-307h304q67 0 110 43t43 110t-43 110.5t-110 43.5zM586 750q138 0 239 -79q110 -85 110 -220q0 -133 -111 -220q-102 -79 -238 -79h-351l-48 47
v503l48 48h351zM586 655h-304v-408h304q96 0 171 53q83 58 83 151q0 94 -83 152q-73 52 -171 52z" />
    <glyph glyph-name="C" unicode="C" horiz-adv-x="1349" 
d="M787 152q-257 0 -428.5 172t-171.5 428q0 257 171.5 428.5t428.5 171.5q163 0 301 -81l77 77q-170 110 -378 110q-302 0 -504 -202t-202 -504t201.5 -503.5t504.5 -201.5q208 0 378 109l-77 77q-138 -81 -301 -81zM787 247q154 0 281 86l60 -6l144 -144l-5 -72
q-213 -159 -480 -159q-342 0 -571.5 229.5t-229.5 570.5t230 571t571 230q267 0 480 -160l5 -72l-144 -143l-60 -6q-127 85 -281 85q-218 0 -361.5 -143.5t-143.5 -361.5q0 -217 143.5 -361t361.5 -144z" />
    <glyph glyph-name="D" unicode="D" horiz-adv-x="1362" 
d="M81 1458v-1411h404q303 0 504.5 201.5t201.5 503.5t-202 504t-504 202h-404zM33 1553h452q341 0 571 -230t230 -571t-229.5 -570.5t-571.5 -229.5h-452l-47 47v1507zM485 1352q257 0 428.5 -171.5t171.5 -428.5q0 -256 -171.5 -428t-428.5 -172h-250l-48 47v1105l48 48
h250zM485 1257h-203v-1010h203q218 0 361.5 144t143.5 361q0 218 -143.5 361.5t-361.5 143.5z" />
    <glyph glyph-name="E" unicode="E" horiz-adv-x="1011" 
d="M81 47h759v105h-605l-48 47v453l48 47h403v106h-403l-48 47v452l48 48h605v106h-759v-1411zM-14 -1v1507l47 47h854l48 -47v-202l-48 -47h-605v-357h404l47 -48v-200l-47 -48h-404v-357h605l48 -48v-200l-48 -47h-854z" />
    <glyph glyph-name="F" unicode="F" horiz-adv-x="885" 
d="M840 1458h-759v-1411h106v605l48 47h403v106h-403l-48 47v452l48 48h605v106zM935 1506v-202l-48 -47h-605v-357h404l47 -48v-200l-47 -48h-404v-605l-47 -47h-202l-47 47v1507l47 47h854z" />
    <glyph glyph-name="G" unicode="G" horiz-adv-x="1362" 
d="M1079 47h112v708h-407v-106h254l48 -48v-341l-26 -42q-129 -66 -273 -66q-257 0 -428.5 172t-171.5 428q0 257 171.5 428.5t428.5 171.5q163 0 301 -81l77 77q-170 110 -378 110q-302 0 -504 -202t-202 -504t201.5 -503.5t504.5 -201.5q121 0 236 40zM1008 -18
q-109 -30 -221 -30q-342 0 -571.5 229.5t-229.5 570.5t230 571t571 230q267 0 480 -160l5 -72l-144 -143l-60 -6q-127 85 -281 85q-218 0 -361.5 -143.5t-143.5 -361.5q0 -217 143.5 -361t361.5 -144q107 0 204 43v264h-255l-47 47v202l47 47h503l47 -47v-804l-47 -47h-201z
" />
    <glyph glyph-name="H" unicode="H" horiz-adv-x="1361" 
d="M234 806l-48 47v605h-105v-1411h105v606l48 47h803l48 -47v-606h105v1411h-105v-605l-48 -47h-803zM281 901h709v605l47 47h201l47 -47v-1506l-47 -47h-201l-47 47v605h-709v-605l-47 -47h-201l-47 47v1506l47 47h201l47 -47v-605z" />
    <glyph glyph-name="I" unicode="I" horiz-adv-x="559" 
d="M388 1458h-307v-105h53l47 -48v-1105l-47 -47h-53v-106h307v106h-54l-47 47v1105l47 48h54v105zM483 1506v-201l-48 -47h-53v-1010h53l48 -48v-200l-48 -47h-402l-47 47v200l47 48h53v1010h-53l-47 47v201l47 47h402z" />
    <glyph glyph-name="J" unicode="J" horiz-adv-x="1060" 
d="M784 450q0 -127 -85.5 -212.5t-213.5 -85.5q-113 0 -196.5 70t-99.5 181h-106q16 -156 130.5 -256.5t271.5 -100.5q173 0 288.5 116t115.5 288v1007h-105v-1007zM689 450v1055l47 47h201l47 -47v-1055q0 -211 -143.5 -355t-355.5 -144q-211 0 -355 144t-144 355l47 48
h201l47 -48q0 -88 58 -145.5t146 -57.5q89 0 146.5 57.5t57.5 145.5z" />
    <glyph glyph-name="K" unicode="K" horiz-adv-x="1312" 
d="M1086 1459l-133 -1l-682 -861l-85 29v832h-105v-1411h105v257l11 30l212 267l74 2l474 -556l139 -1l-559 656l-1 60zM1222 1477l-588 -743l602 -705l-37 -78l-265 2l-35 16l-451 528l-167 -210v-287l-47 -47h-201l-47 47v1506l47 47h201l47 -47v-743l612 772l37 18l254 1
z" />
    <glyph glyph-name="L" unicode="L" horiz-adv-x="1111" 
d="M186 1458h-105v-1411h859v106h-706l-48 47v1258zM281 1506v-1258h706l48 -48v-200l-48 -47h-954l-47 47v1506l47 47h201z" />
    <glyph glyph-name="M" unicode="M" horiz-adv-x="1613" 
d="M857 407v0h-2l-5 -3q-8 0 -41 3h-75l2 -2l-76 1l-40 22l-339 557v-985l-47 -47h-201l-47 47v1506l47 47h223l40 -23l461 -759l462 759l41 23h230l47 -47v-1506l-47 -47h-202l-47 47v1000l-350 -574zM738 499h86l424 694l88 -25v-1121h106v1411h-156l-488 -803h-81
l-488 803h-148v-1411h105v1107l88 25l413 -679h50z" />
    <glyph glyph-name="N" unicode="N" horiz-adv-x="1361" 
d="M1085 344l-87 -27l-773 1141h-144v-1411h105v1123l87 27l778 -1150h139v1411h-105v-1114zM990 499v1007l47 47h201l47 -47v-1506l-47 -47h-212l-39 20l-706 1042v-1015l-47 -47h-201l-47 47v1506l47 47h217l39 -21z" />
    <glyph glyph-name="O" unicode="O" horiz-adv-x="1664" 
d="M81 752q0 -302 201.5 -503.5t504.5 -201.5q301 0 503 202t202 503q0 303 -201.5 504.5t-503.5 201.5q-301 0 -503.5 -202.5t-202.5 -503.5zM787 1553q341 0 570.5 -229.5t229.5 -571.5q0 -340 -230 -569.5t-570 -229.5q-342 0 -571.5 229t-229.5 570q0 340 230.5 570.5
t570.5 230.5zM186 752q0 257 172 429t429 172q256 0 427.5 -172t171.5 -429q0 -255 -172 -427t-427 -172q-256 0 -428.5 172.5t-172.5 426.5zM787 248q216 0 360 144t144 360q0 218 -143.5 362t-360.5 144q-218 0 -362 -144t-144 -362q0 -215 145 -359.5t361 -144.5z" />
    <glyph glyph-name="P" unicode="P" horiz-adv-x="1211" 
d="M81 1458v-1411h105v555l48 48h351q187 0 316 107q139 114 139 297q0 182 -139 297q-131 107 -316 107h-504zM33 1553h552q225 0 383 -135q167 -142 167 -364t-166 -365q-158 -134 -384 -134h-304v-555l-47 -47h-201l-47 47v1506zM234 755l-48 48v502l48 48h351
q137 0 239 -79q111 -85 111 -220t-110 -220q-101 -79 -240 -79h-351zM281 850h304q99 0 172 52q83 57 83 152q0 94 -84 152q-73 52 -171 52h-304v-408z" />
    <glyph glyph-name="Q" unicode="Q" horiz-adv-x="1664" 
d="M787 1458q-303 0 -504.5 -201.5t-201.5 -504.5q0 -302 201.5 -503.5t504.5 -201.5q196 0 364 102l60 -10l79 -93l147 1l-137 160l1 63q191 204 191 482q0 301 -202.5 503.5t-502.5 202.5zM1587 752q0 -294 -188 -515l177 -206l-36 -78l-271 -2l-37 16l-68 80
q-175 -94 -377 -94q-342 0 -571.5 229t-229.5 570q0 342 229.5 571.5t571.5 229.5q339 0 569.5 -230.5t230.5 -570.5zM1386 752q0 -223 -146 -392l-72 1l-326 380l-81 -68l318 -378l-14 -73q-130 -69 -278 -69q-257 0 -429 171.5t-172 427.5q0 257 172 429t429 172
q255 0 427 -172.5t172 -428.5zM787 1258q-218 0 -362 -144t-144 -362q0 -216 144.5 -360t361.5 -144q94 0 180 33l-310 367l6 67l154 129l66 -6l319 -372q89 127 89 286q0 216 -144.5 361t-359.5 145z" />
    <glyph glyph-name="R" unicode="R" horiz-adv-x="1211" 
d="M1040 1054q0 182 -139 297q-131 107 -316 107h-504v-1411h105v555l48 48h305l42 -25l307 -578h123l-300 558l27 68q132 42 215 142q87 106 87 239zM1028 757q-84 -102 -208 -155l312 -579l-41 -70h-231l-42 25l-308 577h-229v-555l-47 -47h-201l-47 47v1506l47 47h552
q225 0 383 -135q167 -142 167 -364q0 -165 -107 -297zM186 1305l48 48h351q137 0 239 -79q111 -85 111 -220t-110 -220q-101 -79 -240 -79h-351l-48 48v502zM281 1258v-408h304q99 0 172 52q83 57 83 152q0 94 -84 152q-73 52 -171 52h-304z" />
    <glyph glyph-name="S" unicode="S" horiz-adv-x="1159" 
d="M235 1104q0 106 71 177.5t178 71.5h99q92 0 161 -56t84 -146h107q-15 135 -115 221t-237 86h-99q-153 0 -254 -101t-101 -253t101 -253t254 -101h49q138 0 239 -78q111 -85 111 -221q0 -134 -110 -220q-101 -78 -238 -78q-122 0 -220 65q-106 70 -125 186h-107
q18 -161 155 -262q128 -95 295 -95q185 0 315 108q140 115 140 296q0 183 -139 298q-130 107 -316 107h-49q-107 0 -178 71.5t-71 176.5zM484 951h49q226 0 383 -135q167 -142 167 -365q0 -221 -167 -364q-159 -134 -383 -134q-222 0 -380 136q-167 143 -167 362l47 48h201
l47 -48q0 -94 83 -152q73 -51 171 -51q97 0 170 51q83 58 83 152q0 95 -83 153q-73 51 -172 51h-49q-192 0 -321 128.5t-129 320.5q0 191 129 320t321 129h99q191 0 320.5 -129t129.5 -320l-48 -48h-200l-48 48q0 67 -43.5 110.5t-110.5 43.5h-99q-68 0 -111 -43.5
t-43 -110.5q0 -66 43.5 -109.5t110.5 -43.5z" />
    <glyph glyph-name="T" unicode="T" horiz-adv-x="1161" 
d="M81 1353h354l48 -48v-1258h105v1258l48 48h354v105h-909v-105zM-14 1305v201l47 47h1004l48 -47v-201l-48 -47h-354v-1258l-47 -47h-201l-47 47v1258h-355z" />
    <glyph glyph-name="U" unicode="U" horiz-adv-x="1361" 
d="M1085 752q0 -599 -449 -599q-450 0 -450 599v706h-105v-706q0 -300 122 -485q145 -220 433 -220q289 0 433 219q121 184 121 486v706h-105v-706zM990 752v754l47 47h201l47 -47v-754q0 -342 -148 -554q-171 -245 -501 -245t-501 246q-149 213 -149 553v754l47 47h201
l47 -47v-754q0 -504 355 -504q354 0 354 504z" />
    <glyph glyph-name="V" unicode="V" horiz-adv-x="1594" 
d="M794 215l-89 1l-483 1242l-119 -1l551 -1410h190l560 1410l-113 1zM750 362l465 1161l44 30l215 -2l44 -65l-598 -1504l-44 -30h-255l-44 30l-588 1505l44 64l221 2l45 -30z" />
    <glyph glyph-name="W" unicode="W" horiz-adv-x="1999" 
d="M523 47h156l242 552h87l232 -552h150l423 1411h-111l-357 -1183l-89 -5l-231 536h-144l-226 -538l-90 5l-357 1185h-111zM1292 427l330 1092l45 34h210l46 -61l-453 -1506l-45 -33h-217l-43 29l-202 478l-209 -480l-43 -28l-224 1l-45 33l-454 1506l45 61h210l46 -34
l329 -1092l188 445l43 29h207l44 -29z" />
    <glyph glyph-name="X" unicode="X" horiz-adv-x="1519" 
d="M1309 1460l-132 -2l-419 -563h-76l-418 563h-132l502 -674v-57l-506 -680h131l423 568h76l423 -568h129l-504 680v57zM1442 1480l-538 -725l539 -728l-38 -75l-248 1l-38 19l-399 536l-399 -536l-38 -19h-250l-38 75l541 727l-536 722l38 76h250l38 -19l394 -531l395 531
l38 19l251 3z" />
    <glyph glyph-name="Y" unicode="Y" horiz-adv-x="1515" 
d="M753 896h-76l-418 563h-131l525 -706l9 -28v-678h106v674l9 28l528 712l-132 -2zM715 1004l395 531l38 19l252 3l38 -76l-575 -776v-705l-48 -47h-200l-48 47v709l-572 769l38 76h250l38 -19z" />
    <glyph glyph-name="Z" unicode="Z" horiz-adv-x="1563" 
d="M64 -50l-38 75l916 1233h-909l-47 47v201l47 47h112v0h1146v-1l144 1l39 -76l-914 -1229h879l48 -48v-200l-48 -47zM251 46l1141 1v106h-927l-38 76l913 1228l-102 -1l-4 4h-834q-167 0 -319 -2v-105h955l39 -76l-917 -1232h93v1z" />
    <glyph glyph-name="bracketleft" unicode="[" horiz-adv-x="659" 
d="M488 1860h-407v-2214h407v105h-254l-48 48v1907l48 48h254v106zM583 1908v-202l-47 -47h-255v-1813h255l47 -47v-201l-47 -47h-503l-47 47v2310l47 47h503z" />
    <glyph glyph-name="backslash" unicode="\" horiz-adv-x="1218" 
d="M1142 22l-42 -70l-229 -1l-41 24l-838 1508l41 70h230l42 -24zM1020 46l-785 1412h-121l785 -1412h121z" />
    <glyph glyph-name="bracketright" unicode="]" horiz-adv-x="659" 
d="M-14 1908l47 47h503l47 -47v-2310l-47 -47h-503l-47 47v201l47 47h254v1813h-254l-47 47v202zM81 1860v-106h253l48 -48v-1907l-48 -48h-253v-105h407v2214h-407z" />
    <glyph glyph-name="asciicircum" unicode="^" horiz-adv-x="1090" 
d="M603 1462h-162q-8 0 -20 -1t-15 -1l-282 -411h133l210 312h79l209 -310h130zM631 1553l39 -20l344 -503l-39 -74h-245l-40 21l-184 273l-184 -275l-40 -21h-249l-39 74l347 505l41 20h249z" />
    <glyph glyph-name="underscore" unicode="_" horiz-adv-x="1292" 
d="M50 -376h1071v105h-1071v-105zM-45 -424v201l48 47h1165l48 -47v-201l-48 -47h-1165z" />
    <glyph glyph-name="grave" unicode="`" horiz-adv-x="623" 
d="M295 1285h127l-121 208h-128zM227 1214l-178 303l41 71h238l41 -23l177 -303l-41 -72h-237z" />
    <glyph glyph-name="a" unicode="a" horiz-adv-x="1162" 
d="M842 841q-128 116 -306 116q-195 0 -325 -130.5t-130 -324.5q0 -195 130 -325t325 -130q151 0 273 91l75 -38v-53h106l-1 517q-3 64 -53 152q-45 80 -94 125zM906 911q176 -159 180 -305l-1 -54v-552l-48 -47h-200l-48 47v14q-116 -61 -253 -61q-234 0 -392 157.5
t-158 391.5q0 233 158 391.5t392 158.5q215 0 370 -141zM884 502q0 -149 -100 -249t-248 -100q-149 0 -249.5 100t-100.5 249q0 148 100.5 248t249.5 100q148 0 248 -100t100 -248zM536 755q-110 0 -182.5 -72t-72.5 -181q0 -110 72.5 -182t182.5 -72q109 0 181 72t72 182
q0 108 -72.5 180.5t-180.5 72.5z" />
    <glyph glyph-name="b" unicode="b" horiz-adv-x="1161" 
d="M262 865l-76 38v555h-105v-1020q-9 -111 113 -241q143 -150 342 -150q193 0 323.5 130.5t130.5 324.5t-130 324.5t-324 130.5q-152 0 -274 -92zM281 990q117 62 255 62q233 0 391 -158.5t158 -391.5t-158 -391t-391 -158q-216 0 -371 139q-173 156 -176 312l-3 47v1055
l47 47h201l47 -47v-516zM884 502q0 -149 -100 -249t-248 -100q-149 0 -249.5 100t-100.5 249q0 148 100.5 248t249.5 100q148 0 248 -100t100 -248zM536 755q-110 0 -182.5 -72t-72.5 -181q0 -110 72.5 -182t182.5 -72q109 0 181 72t72 182q0 108 -72.5 180.5t-180.5 72.5z
" />
    <glyph glyph-name="c" unicode="c" horiz-adv-x="1032" 
d="M186 502q0 148 100.5 248t249.5 100q145 0 243 -98l75 74q-129 131 -318 131q-195 0 -325 -130.5t-130 -324.5q0 -195 130 -325t325 -130q181 0 308 121l-74 74q-97 -89 -234 -89q-148 0 -249 100.5t-101 248.5zM536 248q120 0 196 93l70 3l143 -142l1 -65
q-164 -184 -410 -184q-234 0 -392 157.5t-158 391.5q0 233 158 391.5t392 158.5q255 0 420 -197l-3 -64l-143 -143l-72 6q-76 101 -202 101q-110 0 -182.5 -72t-72.5 -181t73 -181.5t182 -72.5z" />
    <glyph glyph-name="d" unicode="d" horiz-adv-x="1161" 
d="M808 865l76 38v555h106v-1020q9 -111 -114 -241q-142 -150 -341 -150q-194 0 -324 130.5t-130 324.5t130 324.5t324 130.5q152 0 273 -92zM789 990q-117 62 -254 62q-234 0 -391.5 -158.5t-157.5 -391.5t158 -391t391 -158q216 0 371 139q173 156 176 312l3 47v1055
l-48 47h-200l-48 -47v-516zM186 502q0 -149 100 -249t249 -100q148 0 248.5 100t100.5 249q0 148 -100.5 248t-248.5 100t-248.5 -100t-100.5 -248zM535 755q109 0 181.5 -72t72.5 -181q0 -110 -72.5 -182t-181.5 -72t-181.5 72t-72.5 182q0 108 72.5 180.5t181.5 72.5z" />
    <glyph glyph-name="e" unicode="e" horiz-adv-x="1150" 
d="M-14 502q0 233 158 391.5t392 158.5q200 0 349 -122t188 -318l-6 -35l-125 -201l-40 -23h-573q76 -105 207 -105h451l48 -48v-203l-48 -47q-88 3 -178 3h-275v-2q-233 1 -390.5 159.5t-157.5 391.5zM534 47h406v106h-404q-111 0 -201.5 63.5t-127.5 168.5l45 63h623
l101 163q-37 156 -158.5 251t-281.5 95q-195 0 -325 -130.5t-130 -324.5t129.5 -324t322.5 -131h1zM864 618l-45 -63h-567l-45 63q37 105 127.5 168.5t201.5 63.5q112 0 201 -63t127 -169zM682 709q-64 46 -146 46q-131 0 -207 -105h413q-24 34 -60 59z" />
    <glyph glyph-name="f" unicode="f" horiz-adv-x="794" 
d="M612 1281q54 -54 67 -130h108q-16 135 -116 221t-236 86q-151 0 -252.5 -101.5t-101.5 -252.5v-1057h105v606l48 47h304v106h-304l-48 47v251q0 106 71.5 177.5t177.5 71.5q105 0 177 -72zM435 1258q-67 0 -110.5 -43.5t-43.5 -110.5v-203h304l48 -48v-200l-48 -48h-304
v-605l-47 -47h-201l-47 47v1104q0 191 129 320t320 129t320 -129t129 -320l-47 -48h-201l-48 48q0 67 -43.5 110.5t-109.5 43.5z" />
    <glyph glyph-name="g" unicode="g" horiz-adv-x="1161" 
d="M81 502q0 -195 130 -325t325 -130q151 0 273 91l75 -38v-100q0 -149 -100 -249t-248 -100q-202 0 -298 165l-103 -33q126 -238 401 -238q193 0 323.5 131t130.5 324v502q0 194 -130 324.5t-324 130.5q-193 0 -324 -131t-131 -324zM536 1052q233 0 391 -158.5t158 -391.5
v-502q0 -233 -158 -391.5t-391 -158.5q-171 0 -308.5 92.5t-202.5 251.5l30 63l193 62l57 -26q68 -147 231 -147q109 0 181 72.5t72 181.5v14q-116 -61 -253 -61q-234 0 -392 157.5t-158 391.5q0 232 158.5 391t391.5 159zM884 502q0 -149 -100 -249t-248 -100
q-149 0 -249.5 100t-100.5 249q0 148 100.5 248t249.5 100q148 0 248 -100t100 -248zM536 755q-110 0 -182.5 -72t-72.5 -181q0 -110 72.5 -182t182.5 -72q109 0 181 72t72 182q0 108 -72.5 180.5t-180.5 72.5z" />
    <glyph glyph-name="h" unicode="h" horiz-adv-x="1161" 
d="M536 957q-152 0 -274 -92l-76 38v555h-105v-1411h105v455q0 149 100 248.5t250 99.5q148 0 248 -100t100 -248v-455h106v455q0 193 -130.5 324t-323.5 131zM1085 502v-502l-48 -47h-200l-48 47v502q0 109 -72 181t-181 72q-110 0 -182.5 -71.5t-72.5 -181.5v-502l-47 -47
h-201l-47 47v1506l47 47h201l47 -47v-516q117 62 255 62q232 0 390.5 -159t158.5 -391z" />
    <glyph glyph-name="i" unicode="i" horiz-adv-x="357" 
d="M81 55h105v909h-105v-909zM-14 8v1004l47 47h201l47 -47v-1004l-47 -48h-201zM81 1210h105v106h-105v-106zM-14 1163v200l47 48h201l47 -48v-200l-47 -48h-201z" />
    <glyph glyph-name="j" unicode="j" horiz-adv-x="430" 
d="M153 1210h105v106h-105v-106zM58 1163v200l47 48h201l47 -48v-200l-47 -48h-201zM-201 -341q-200 0 -297 165l-103 -33q124 -238 400 -238q194 0 324.5 130t130.5 325v956h-107v-956q0 -148 -100 -248.5t-248 -100.5zM52 8v1004l48 47h201l48 -47v-1004
q0 -234 -158.5 -392t-391.5 -158q-171 0 -309.5 93.5t-200.5 251.5l30 63l192 61l57 -26q69 -147 231 -147q108 0 180.5 72.5t72.5 181.5z" />
    <glyph glyph-name="k" unicode="k" horiz-adv-x="1156" 
d="M903 965l-159 -1l-479 -428l-79 35v895h-105v-1411h105v245l16 36l207 186l70 -8l333 -459h135l-394 537l6 64zM1060 978l-405 -364l424 -578l-38 -76h-253l-39 20l-316 436l-152 -137v-271l-47 -48h-201l-47 48v1505l47 48h201l47 -48v-836l413 370l31 12l303 2z" />
    <glyph glyph-name="l" unicode="l" horiz-adv-x="357" 
d="M81 55h105v1411h-105v-1411zM-14 8v1505l47 48h201l47 -48v-1505l-47 -48h-201z" />
    <glyph glyph-name="m" unicode="m" horiz-adv-x="1810" 
d="M899 784h-78q-124 180 -329 180q-184 0 -301 -138q-110 -130 -110 -317v-454h88v454q0 145 88 245q92 105 235 105t236 -105q88 -100 88 -245v-454h88v454q0 145 88 245q92 105 235 105q144 0 236 -105q87 -100 87 -245v-454h89v454q0 187 -111 317q-117 138 -301 138
q-205 0 -328 -180zM860 889q145 170 367 170q224 0 369 -166q138 -158 138 -384v-501l-48 -48h-183l-48 48v501q0 106 -60 178q-64 77 -168 77q-103 0 -167 -77q-61 -72 -61 -178v-501l-47 -48h-183l-48 48v501q0 105 -61 178q-65 77 -168 77q-104 0 -168 -77
q-60 -72 -60 -178v-501l-47 -48h-184l-47 48v501q0 226 138 384q145 166 368 166t368 -170z" />
    <glyph glyph-name="n" unicode="n" horiz-adv-x="1161" 
d="M81 509v-454h105v454q0 150 100 250t250 100q148 0 248 -100.5t100 -249.5v-454h106v454q0 195 -130 325t-324 130q-193 0 -324 -131t-131 -324zM536 1059q233 0 391 -158t158 -392v-501l-48 -48h-200l-48 48v501q0 110 -72 182.5t-181 72.5q-110 0 -182.5 -72.5
t-72.5 -182.5v-501l-47 -48h-201l-47 48v501q0 233 158.5 391.5t391.5 158.5z" />
    <glyph glyph-name="o" unicode="o" horiz-adv-x="1161" 
d="M81 509q0 -193 130.5 -323.5t324.5 -130.5q193 0 323.5 130.5t130.5 323.5q0 195 -130 325t-324 130q-193 0 -324 -131t-131 -324zM536 1059q233 0 391 -158t158 -392q0 -233 -158 -391t-391 -158t-391.5 158t-158.5 391t158.5 391.5t391.5 158.5zM884 509
q0 -148 -100 -248t-248 -100q-149 0 -249.5 100t-100.5 248q0 150 100 250t250 100q148 0 248 -101t100 -249zM536 764q-110 0 -182.5 -72.5t-72.5 -182.5q0 -109 72.5 -181t182.5 -72q109 0 181 72t72 181t-72.5 182t-180.5 73z" />
    <glyph glyph-name="p" unicode="p" horiz-adv-x="1161" 
d="M262 156l-76 -38v-555h-105v1020q-9 111 113 241q143 150 342 150q193 0 323.5 -130.5t130.5 -323.5q0 -195 -130 -325t-324 -130q-152 0 -274 91zM281 31q117 -61 255 -61q233 0 391 158t158 392q0 232 -158 390.5t-391 158.5q-216 0 -371 -140q-173 -155 -176 -312
l-3 -47v-1054l47 -48h201l47 48v515zM884 520q0 148 -100 248t-248 100q-149 0 -249.5 -100t-100.5 -248q0 -149 100.5 -249t249.5 -100q148 0 248 100.5t100 248.5zM536 266q-110 0 -182.5 72t-72.5 182q0 109 72.5 181t182.5 72q109 0 181 -72t72 -181t-72.5 -181.5
t-180.5 -72.5z" />
    <glyph glyph-name="q" unicode="q" horiz-adv-x="1161" 
d="M808 156l76 -38v-555h106v1020q9 111 -114 241q-142 150 -341 150q-194 0 -324 -130.5t-130 -323.5q0 -195 130 -325t324 -130q152 0 273 91zM789 31q-117 -61 -254 -61q-234 0 -391.5 158t-157.5 392q0 232 158 390.5t391 158.5q216 0 371 -140q173 -155 176 -312l3 -47
v-1054l-48 -48h-200l-48 48v515zM186 520q0 148 100 248t249 100q148 0 248.5 -100t100.5 -248q0 -149 -100.5 -249t-248.5 -100t-248.5 100.5t-100.5 248.5zM535 266q109 0 181.5 72t72.5 182q0 109 -72.5 181t-181.5 72t-181.5 -72t-72.5 -181t72.5 -181.5t181.5 -72.5z
" />
    <glyph glyph-name="r" unicode="r" horiz-adv-x="747" 
d="M672 945q-65 19 -136 19q-195 0 -325 -130t-130 -325v-454h105v454q0 150 100 250t250 100q36 0 70 -7l41 56q15 21 25 37zM536 1059q241 0 241 -94q0 -38 -113 -195l-53 -17q-35 11 -75 11q-110 0 -182.5 -72.5t-72.5 -182.5v-501l-47 -48h-201l-47 48v501
q0 234 158 392t392 158z" />
    <glyph glyph-name="s" unicode="s" horiz-adv-x="1060" 
d="M237 703q0 147 248 147q231 0 287 -100h111q-26 101 -165 159q-112 48 -233 48q-137 0 -256 -58q-148 -72 -148 -196q0 -125 148 -197q119 -58 256 -58q248 0 248 -147q0 -148 -248 -148q-232 0 -287 101h-111q26 -101 165 -159q113 -48 233 -48q138 0 256 58
q148 72 148 196q0 125 -148 196q-118 58 -256 58q-248 0 -248 148zM332 703q0 -53 153 -53q181 0 325 -82q174 -98 174 -267t-174 -267q-144 -81 -325 -81q-180 0 -325 81q-174 99 -174 267l47 48q60 -1 106 -7q113 -12 143 -43q13 -24 96 -39q63 -12 107 -12q153 0 153 53
q0 52 -153 52q-180 0 -325 82q-174 99 -174 268q0 168 174 267q145 82 325 82q181 0 325 -82q174 -98 174 -267l-47 -48q-60 2 -107 7q-112 12 -142 42q-13 24 -96 39q-63 12 -107 12q-153 0 -153 -52z" />
    <glyph glyph-name="t" unicode="t" horiz-adv-x="659" 
d="M186 1458h-105v-1411h105v806l48 48h254v106h-254l-48 47v404zM281 1506v-404h255l47 -48v-201l-47 -47h-255v-806l-47 -47h-201l-47 47v1506l47 47h201z" />
    <glyph glyph-name="u" unicode="u" horiz-adv-x="1161" 
d="M884 502q0 -149 -100 -249t-248 -100q-149 0 -249.5 100t-100.5 249v455h-105v-455q0 -195 130 -325t325 -130q193 0 323.5 130.5t130.5 324.5v455h-106v-455zM789 502v502l48 48h200l48 -48v-502q0 -233 -158 -391t-391 -158q-234 0 -392 157.5t-158 391.5v502l47 48
h201l47 -48v-502q0 -110 72.5 -182t182.5 -72q109 0 181 72t72 182z" />
    <glyph glyph-name="v" unicode="v" horiz-adv-x="1317" 
d="M659 176h-87l-352 779l-114 -1l401 -907h216l401 907l-115 1zM615 311l320 712l44 28l218 -2l43 -67l-442 -1002l-44 -28h-278l-44 28l-442 1002l43 67l217 2l44 -28z" />
    <glyph glyph-name="w" unicode="w" horiz-adv-x="1810" 
d="M1550 502q0 -144 -88 -244q-92 -105 -235 -105q-142 0 -234 105q-89 100 -89 244v455h-88v-455q0 -142 -90 -243q-94 -106 -234 -106q-142 0 -234 105q-89 100 -89 244v455h-88v-455q0 -188 110 -318q116 -137 301 -137q205 0 329 180h78q123 -180 328 -180
q186 0 302 137q110 130 110 318v455h-89v-455zM1455 502v502l48 48h183l48 -48v-502q0 -228 -138 -385q-144 -164 -369 -164q-222 0 -367 169q-145 -169 -368 -169q-225 0 -369 164q-137 157 -137 385v502l47 48h184l47 -48v-502q0 -105 61 -177q65 -77 167 -77
q100 0 166 78q63 74 63 176v502l48 48h183l47 -48v-502q0 -105 61 -177q65 -77 167 -77q103 0 167 77q61 72 61 177z" />
    <glyph glyph-name="x" unicode="x" horiz-adv-x="1198" 
d="M987 957h-136l-254 -323h-75l-255 323h-136l338 -426v-59l-337 -425h135l255 323h75l254 -323h136l-337 425v59zM1122 975l-375 -473l375 -472l-37 -77h-257l-37 18l-232 293l-232 -294l-37 -17h-257l-37 77l375 472l-375 473l37 77h257l37 -18l232 -294l232 294l37 18
h257z" />
    <glyph glyph-name="y" unicode="y" horiz-adv-x="1161" 
d="M884 502q0 -149 -100 -249t-248 -100q-149 0 -249.5 100t-100.5 249v455h-105v-455q0 -195 130 -325t325 -130q151 0 273 91l75 -38v-100q0 -149 -100 -249t-248 -100q-202 0 -298 165l-103 -33q126 -238 401 -238q193 0 323.5 131t130.5 324v957h-106v-455zM789 502v502
l48 48h200l48 -48v-1004q0 -233 -158 -391.5t-391 -158.5q-171 0 -308.5 92.5t-202.5 251.5l30 63l193 62l57 -26q68 -147 231 -147q109 0 181 72.5t72 181.5v14q-116 -61 -253 -61q-234 0 -392 157.5t-158 391.5v502l47 48h201l47 -48v-502q0 -110 72.5 -182t182.5 -72
q109 0 181 72t72 182z" />
    <glyph glyph-name="z" unicode="z" horiz-adv-x="1211" 
d="M987 957h-906v-107h589l37 -77l-575 -726h908v106h-592l-37 77zM1122 975l-575 -727h541l47 -48v-200l-47 -47h-1055l-37 77l575 725h-538l-47 48v201l47 48h1052z" />
    <glyph glyph-name="braceleft" unicode="{" horiz-adv-x="813" 
d="M81 675l184 -128l21 -39v-609q0 -109 72 -181t182 -72h102v105h-102q-62 0 -105.5 43.5t-43.5 104.5v693l-175 118v79l175 117v700q0 62 43.5 105t105.5 43h102v106h-102q-110 0 -182 -72t-72 -182v-620l-21 -39l-183 -125zM690 1659h-150q-54 0 -54 -53v-725l-21 -40
l-137 -92l137 -92l21 -40v-718q0 -53 54 -53h150l47 -47v-201l-47 -47h-150q-149 0 -249 100t-100 248v584q-182 126 -179 126l-26 43l2 196l20 39l183 124v595q0 149 100 249t249 100h150l47 -47v-202z" />
    <glyph glyph-name="bar" unicode="|" horiz-adv-x="408" 
d="M131 -353h106v2208h-106v-2208zM36 -401v2304l48 47h200l48 -47v-2304l-48 -47h-200z" />
    <glyph glyph-name="braceright" unicode="}" horiz-adv-x="813" 
d="M33 1659l-47 47v202l47 47h151q149 0 249 -100t100 -249v-595l183 -124l20 -39l1 -196l-26 -43q4 0 -178 -126v-584q0 -148 -100 -248t-249 -100h-151l-47 47v201l47 47h151q53 0 53 53v718l21 40l137 92l-137 92l-21 40v725q0 53 -53 53h-151zM642 675l-1 147l-182 125
l-21 39v620q0 110 -72 182t-182 72h-103v-106h103q61 0 104.5 -43.5t43.5 -104.5v-700l175 -117v-79l-175 -118v-693q0 -61 -43 -104.5t-105 -43.5h-103v-105h103q110 0 182 72t72 181v609l21 39z" />
    <glyph glyph-name="asciitilde" unicode="~" horiz-adv-x="1161" 
d="M551 1366q-68 -88 -68 -212q0 -73 -36 -131q-42 -66 -113 -66q-70 0 -112 66q-36 58 -36 131v204h-105v-204q0 -120 65 -207q71 -97 188 -97q118 0 189 97q65 87 65 207q0 74 36 131q42 68 112 68t112 -68q36 -57 36 -131v-203h106v203q0 121 -65 208q-72 96 -189 96
q-113 0 -185 -92zM476 1425q101 128 260 128q158 0 257 -124q92 -114 92 -275v-251l-48 -47h-200l-48 47v251q0 30 -12 62q-15 42 -41 42q-25 0 -41 -42q-12 -32 -12 -62q0 -160 -92 -275q-99 -124 -257 -124q-157 0 -256 124q-92 115 -92 275v251l47 48h201l47 -48v-251
q0 -102 53 -102q54 0 54 102q0 157 88 271z" />
    <glyph glyph-name="quotesinglbase" unicode="&#x201a;" horiz-adv-x="357" 
d="M81 47h53l47 -47v-101l-13 -33l-87 -87v-16l105 106v284h-105v-106zM-14 0v200l47 48h201l47 -48v-351l-14 -34l-200 -200l-81 34v150l14 33l86 87v33l-53 1z" />
    <glyph glyph-name="florin" unicode="&#x192;" 
 />
    <glyph glyph-name="quotedblbase" unicode="&#x201e;" horiz-adv-x="642" 
d="M81 47h53l47 -47v-101l-13 -33l-87 -87v-16l105 106v284h-105v-106zM-14 0v200l47 48h201l47 -48v-351l-14 -34l-200 -200l-81 34v150l14 33l86 87v33l-53 1zM366 47h53l47 -47v-101l-13 -33l-87 -87v-16l105 106v284h-105v-106zM271 0v200l47 48h201l47 -48v-351
l-14 -34l-200 -200l-81 34v150l14 33l86 87v33l-53 1z" />
    <glyph glyph-name="ellipsis" unicode="&#x2026;" horiz-adv-x="1317" 
d="M186 47v106h-105v-106h105zM234 -47h-201l-47 47v200l47 48h201l47 -48v-200zM671 47v106h-106v-106h106zM718 -47h-200l-48 47v200l48 48h200l48 -48v-200zM1146 47v106h-106v-106h106zM1193 -47h-200l-48 47v200l48 48h200l48 -48v-200z" />
    <glyph glyph-name="dagger" unicode="&#x2020;" 
 />
    <glyph glyph-name="daggerdbl" unicode="&#x2021;" 
 />
    <glyph glyph-name="circumflex" unicode="&#x2c6;" horiz-adv-x="991" 
d="M394 1588v2q-3 -10 -8 -23zM578 1528h-108q-23 -2 -49 -3l-194 -209h72l167 185h71l166 -184h69zM415 1621l-7 1v0h18l173 -1l17 -8l21 -10l278 -302l-35 -79h-198l-35 15l-145 161l-147 -162l-35 -15h-201l-35 79l280 304l30 13z" />
    <glyph glyph-name="perthousand" unicode="&#x2030;" horiz-adv-x="2159" 
d="M519 1366q-71 92 -185 92q-117 0 -188 -96q-65 -87 -65 -208q0 -120 65 -207q71 -97 188 -97q118 0 189 97q65 87 65 207q0 124 -69 212zM594 1425q89 -114 89 -271q0 -160 -92 -275q-99 -124 -257 -124q-157 0 -256 124q-92 115 -92 275q0 161 92 275q99 124 256 124
q160 0 260 -128zM216 1274q42 79 118 79q70 0 113 -68q36 -57 36 -131q0 -73 -36 -131q-42 -66 -113 -66q-70 0 -112 66q-36 58 -36 131q0 65 30 120zM299 1229q-18 -34 -18 -75q0 -102 53 -102q54 0 54 102q0 30 -13 62q-15 42 -41 42q-19 0 -35 -29zM128 45h131l1050 1413
l-132 -1zM-5 25l1120 1507l38 19l251 2l38 -76l-1121 -1508l-38 -19h-250zM834 351q0 -120 65 -207q72 -97 189 -97t189 97q64 87 64 207q0 121 -64 208q-72 96 -189 96q-113 0 -183.5 -90t-70.5 -214zM828 622q100 128 260 128q157 0 256 -123q92 -115 92 -276
q0 -160 -92 -275q-99 -123 -256 -123q-158 0 -257 123q-92 115 -92 275q0 157 89 271zM1206 471q30 -55 30 -120q0 -73 -36 -131q-42 -67 -112 -67t-112 67q-36 58 -36 131q0 74 35 131q42 67 113 67q76 0 118 -78zM1123 426q-15 28 -35 28q-53 0 -53 -103q0 -29 12 -62
q15 -41 41 -41q25 0 41 41q12 33 12 62q0 41 -18 75zM1480 351q0 -120 65 -207q72 -97 189 -97t189 97q64 87 64 207q0 121 -64 208q-72 96 -189 96q-113 0 -183.5 -90t-70.5 -214zM1474 622q100 128 260 128q157 0 256 -123q92 -115 92 -276q0 -160 -92 -275
q-99 -123 -256 -123q-158 0 -257 123q-92 115 -92 275q0 157 89 271zM1852 471q30 -55 30 -120q0 -73 -36 -131q-42 -67 -112 -67t-112 67q-36 58 -36 131q0 74 35 131q42 67 113 67q76 0 118 -78zM1769 426q-15 28 -35 28q-53 0 -53 -103q0 -29 12 -62q15 -41 41 -41
q25 0 41 41q12 33 12 62q0 41 -18 75z" />
    <glyph glyph-name="Scaron" unicode="&#x160;" horiz-adv-x="1112" 
d="M235 1104q0 106 71 177.5t178 71.5h99q92 0 161 -56t84 -146h107q-15 135 -115 221t-237 86h-99q-153 0 -254 -101t-101 -253t101 -253t254 -101h49q138 0 239 -78q111 -85 111 -221q0 -134 -110 -220q-101 -78 -238 -78q-122 0 -220 65q-106 70 -125 186h-107
q18 -161 155 -262q128 -95 295 -95q185 0 315 108q140 115 140 296q0 183 -139 298q-130 107 -316 107h-49q-107 0 -178 71.5t-71 176.5zM484 951h49q226 0 383 -135q167 -142 167 -365q0 -221 -167 -364q-159 -134 -383 -134q-222 0 -380 136q-167 143 -167 362l47 48h201
l47 -48q0 -94 83 -152q73 -51 171 -51q97 0 170 51q83 58 83 152q0 95 -83 153q-73 51 -172 51h-49q-192 0 -321 128.5t-129 320.5q0 191 129 320t321 129h99q191 0 320.5 -129t129.5 -320l-48 -48h-200l-48 48q0 67 -43.5 110.5t-110.5 43.5h-99q-68 0 -111 -43.5
t-43 -110.5q0 -66 43.5 -109.5t110.5 -43.5zM457 1593v-2q-3 10 -9 23zM641 1653h-108q-23 2 -49 3l-194 209h72l167 -185h71l166 184h68zM478 1560l-8 -1v0h18l174 1l16 8l22 10l277 302l-35 79h-197l-35 -15l-146 -161l-146 162l-35 15h-202l-34 -79l280 -304l30 -13z" />
    <glyph glyph-name="guilsinglleft" unicode="&#x2039;" 
 />
    <glyph glyph-name="OE" unicode="&#x152;" 
 />
    <glyph glyph-name="quoteleft" unicode="&#x2018;" horiz-adv-x="357" 
d="M186 1001v106h-52l-48 47v101l14 33l86 87v16l-105 -105v-285h105zM234 906h-201l-47 48v351l14 34l200 200l81 -33v-150l-14 -34l-86 -87v-33h53l47 -48v-200z" />
    <glyph glyph-name="quoteright" unicode="&#x2019;" horiz-adv-x="357" 
d="M81 1458v-105h53l47 -48v-100l-13 -34l-87 -87v-16l105 106v284h-105zM33 1553h201l47 -47v-352l-14 -33l-200 -201l-81 34v150l14 33l86 87v34h-53l-47 47v201z" />
    <glyph glyph-name="quotedblleft" unicode="&#x201c;" horiz-adv-x="708" 
d="M537 1001v106h-53l-48 47v101l14 34l87 86v16l-106 -105v-285h106zM584 906h-200l-48 48v351l14 34l201 200l81 -33v-150l-14 -34l-87 -87v-33h53l48 -48v-200zM186 1001v106h-52l-48 47v101l14 33l86 87v16l-105 -105v-285h105zM234 906h-201l-47 48v351l14 34l200 200
l81 -33v-150l-14 -34l-86 -87v-33h53l47 -48v-200z" />
    <glyph glyph-name="quotedblright" unicode="&#x201d;" horiz-adv-x="708" 
d="M81 1458v-105h53l47 -48v-100l-13 -34l-87 -87v-16l105 106v284h-105zM33 1553h201l47 -47v-352l-14 -33l-200 -201l-81 34v150l14 33l86 87v34h-53l-47 47v201zM431 1458v-105h53l47 -48v-100l-14 -34l-86 -87v-16l106 106v284h-106zM384 1553h200l48 -47v-352l-14 -33
l-201 -201l-81 34v150l14 33l86 87v34h-52l-48 47v201z" />
    <glyph glyph-name="bullet" unicode="&#x2022;" 
 />
    <glyph glyph-name="endash" unicode="&#x2013;" 
 />
    <glyph glyph-name="emdash" unicode="&#x2014;" 
 />
    <glyph glyph-name="tilde" unicode="&#x2dc;" horiz-adv-x="773" 
d="M697 1288l-47 -47h-109l-48 47v124q0 21 -4 26q-5 1 -7 1q-4 -8 -4 -26q0 -92 -60.5 -157t-151.5 -65t-151.5 64.5t-60.5 156.5v123l48 48h109l47 -48v-123q0 -22 4 -27q5 -1 7 -1q5 8 5 28q0 89 59.5 154.5t151.5 65.5t152 -64t60 -156v-124zM477 1537q-54 0 -90 -36
t-36 -89q0 -88 -76 -88q-77 0 -77 88v82h-49v-82q0 -52 35 -89t91 -37t91 39q34 36 34 88q0 87 77 87q76 0 76 -88v-83h49v83q0 52 -34.5 88.5t-90.5 36.5z" />
    <glyph glyph-name="trademark" unicode="&#x2122;" 
 />
    <glyph glyph-name="scaron" unicode="&#x161;" horiz-adv-x="1013" 
d="M237 703q0 147 248 147q231 0 287 -100h111q-26 101 -165 159q-112 48 -233 48q-137 0 -256 -58q-148 -72 -148 -196q0 -125 148 -197q119 -58 256 -58q248 0 248 -147q0 -148 -248 -148q-232 0 -287 101h-111q26 -101 165 -159q113 -48 233 -48q138 0 256 58
q148 72 148 196q0 125 -148 196q-118 58 -256 58q-248 0 -248 148zM332 703q0 -53 153 -53q181 0 325 -82q174 -98 174 -267t-174 -267q-144 -81 -325 -81q-180 0 -325 81q-174 99 -174 267l47 48q60 -1 106 -7q113 -12 143 -43q13 -24 96 -39q63 -12 107 -12q153 0 153 53
q0 52 -153 52q-180 0 -325 82q-174 99 -174 268q0 168 174 267q145 82 325 82q181 0 325 -82q174 -98 174 -267l-47 -48q-60 1 -107 7q-112 12 -142 42q-13 24 -96 39q-63 12 -107 12q-153 0 -153 -52zM392 1255v-2q-3 10 -8 23zM576 1315h-108q-23 2 -49 3l-194 209h72
l167 -185h71l166 184h69zM413 1222l-7 -1v0h18l174 1l16 8l21 9l278 302l-35 80h-198l-35 -16l-145 -160l-147 161l-35 16h-201l-35 -80l280 -303l30 -13z" />
    <glyph glyph-name="guilsinglright" unicode="&#x203a;" 
 />
    <glyph glyph-name="oe" unicode="&#x153;" 
 />
    <glyph glyph-name="Ydieresis" unicode="&#x178;" horiz-adv-x="1476" 
d="M753 896h-76l-418 563h-131l525 -706l9 -28v-678h106v674l9 28l528 712l-132 -2zM715 1004l395 531l38 19l252 3l38 -76l-575 -776v-705l-48 -47h-200l-48 47v709l-572 769l38 76h250l38 -19zM396 1787l48 47h178l48 -47v-195l-48 -47h-178l-48 47v195zM491 1739v-99h84
v99h-84zM750 1787l48 47h179l47 -47v-195l-47 -47h-179l-48 47v195zM845 1739v-99h84v99h-84z" />
    <glyph glyph-name="nonbreakingspace" 
 />
    <glyph glyph-name="exclamdown" unicode="&#xa1;" horiz-adv-x="357" 
d="M234 1268l47 -47v-201l-47 -47h-201l-47 47v201l47 47h201zM186 1173h-105v-105h105v105zM-14 869l47 48h201l47 -48v-1154l-47 -47h-201l-47 47v1154zM81 822v-1059h105v1059h-105z" />
    <glyph glyph-name="cent" unicode="&#xa2;" horiz-adv-x="1032" 
d="M538 799l55 47q110 -19 186 -94l75 74q-112 112 -273 128l-43 47v106h-106v-127l-33 -45q-146 -45 -232 -162.5t-86 -270.5t86.5 -271t231.5 -163l33 -45v-127h106v106l42 47q154 16 264 119l-75 75q-74 -68 -176 -86l-55 47v595zM633 737v-470q57 23 99 74l70 3
l143 -141l2 -65q-129 -145 -314 -177v-112l-48 -48h-200l-48 48v140q-161 60 -256 199.5t-95 313.5t94.5 313t256.5 199v140l48 48h200l48 -48v-111q193 -33 323 -188l-3 -64l-143 -143l-72 6q-43 58 -105 83zM432 241l-71 -41q-175 101 -175 302t175 301l71 -41v-521z
M337 340v324q-56 -64 -56 -162t56 -162z" />
    <glyph glyph-name="sterling" unicode="&#xa3;" horiz-adv-x="1060" 
d="M984 0l-47 -47h-904l-47 47v1104q0 193 156 324q148 125 343 125t343 -125q156 -132 156 -324l-47 -48h-201l-47 48q0 59 -65.5 106.5t-138.5 47.5q-67 0 -131 -43q-73 -47 -73 -111v-254h455l48 -47v-201l-48 -47h-455v-307h656l47 -48v-200zM889 47v106h-655l-48 47
v402l48 48h455v105h-455l-48 48l6 348q21 87 114 146q86 56 179 56q103 0 194 -65q80 -58 99 -137h108q-19 135 -144 224q-116 83 -257 83q-140 0 -258 -83q-127 -89 -146 -224v-1104h808z" />
    <glyph glyph-name="currency" unicode="&#xa4;" horiz-adv-x="1137" 
d="M768 1321l-58 -7q-83 49 -180 49t-180 -49l-58 7l-116 118l-75 -75l117 -117l7 -59q-49 -80 -49 -178q-1 -101 49 -180l-7 -59l-117 -117l75 -75l116 118l58 7q84 -49 180 -49q97 0 180 49l58 -7l117 -118l75 75l-117 117l-7 58q48 83 48 180t-48 180l7 58l117 117
l-75 75zM726 1413l126 126h67l142 -141v-67l-126 -126q44 -92 44 -196t-44 -196l126 -126v-67l-142 -142h-67l-126 126q-92 -44 -196 -44q-103 0 -195 44l-126 -125l-67 -1l-142 142v67l125 126q-45 90 -44 197q0 105 45 195l-126 126v67l142 141h67l125 -126q92 45 196 45
t196 -45zM292 923q-10 29 -10 86q0 106 71 177t177 71q107 0 178 -71t71 -177q0 -107 -71 -177.5t-178 -70.5q-74 0 -144 46.5t-94 115.5zM382 954q7 -21 40 -53q45 -45 108 -45q67 0 110.5 43t43.5 110t-43.5 110t-110.5 43t-110 -43t-43 -110q0 -41 5 -55z" />
    <glyph glyph-name="yen" unicode="&#xa5;" horiz-adv-x="1515" 
d="M1038 941h105l47 -47v-201l-47 -47h-280v-105h281l47 -48v-201l-47 -48h-281v-244l-48 -47h-200l-48 47v244h-277l-48 48v201l48 48h277v105h-277l-48 47v201l48 47h105l-400 537l38 76h250l38 -19l394 -531l395 531l38 19l252 3l38 -76zM905 922l400 539l-132 -2
l-420 -563h-76l-418 563h-131l399 -537l-38 -76h-152v-105h278l47 -48v-200l-47 -47h-278v-107h278l47 -47v-245h106v245l47 47h281v107h-281l-47 47v200l47 48h280v105h-152z" />
    <glyph glyph-name="brokenbar" unicode="&#xa6;" 
 />
    <glyph glyph-name="section" unicode="&#xa7;" horiz-adv-x="1060" 
d="M313 987q-76 38 -76 117q0 148 248 148q233 0 287 -101h111q-26 101 -165 159q-112 48 -233 48q-137 0 -256 -58q-148 -72 -148 -196q0 -91 96 -162v-77q-96 -71 -96 -162q0 -125 148 -197q119 -58 256 -58q248 0 248 -147q0 -148 -248 -148q-232 0 -287 101h-111
q26 -101 165 -159q113 -48 233 -48q138 0 256 58q148 72 148 196q0 91 -96 162v77q96 71 96 163q0 124 -148 196q-118 58 -256 58q-111 0 -172 30zM485 1052q181 0 325 -82q174 -98 174 -267q0 -114 -89 -201q89 -88 89 -201q0 -169 -174 -267q-144 -81 -325 -81
q-180 0 -325 81q-174 99 -174 267l47 48q60 -1 106 -7q113 -12 143 -43q13 -24 96 -39q63 -12 107 -12q153 0 153 53q0 52 -153 52q-180 0 -325 82q-174 99 -174 268q0 113 89 200q-89 88 -89 201q0 168 174 267q145 82 325 82q181 0 325 -82q174 -98 174 -267l-47 -48
q-60 1 -107 7q-112 12 -142 43q-13 24 -96 40q-63 11 -107 11q-153 0 -153 -53q0 -8 2 -13q17 -39 151 -39zM657 820q76 -38 76 -117q0 -148 -247 -148q-249 0 -249 148q0 147 247 147q113 0 173 -30zM484 755q-152 0 -152 -52q0 -53 154 -53q152 0 152 53q0 8 -2 14
q-18 38 -152 38z" />
    <glyph glyph-name="dieresis" unicode="&#xa8;" horiz-adv-x="715" 
d="M10 1515l48 48h179l47 -48v-195l-47 -47h-179l-48 47v195zM105 1468v-100h84v100h-84zM365 1515l47 48h179l47 -48v-195l-47 -47h-179l-47 47v195zM460 1468v-100h83v100h-83z" />
    <glyph glyph-name="copyright" unicode="&#xa9;" horiz-adv-x="1864" 
d="M1352 1399l-16 12q-10 7 -103 58l-6 4q-14 7 -143 50l-36 9q-71 16 -162 16q-261 0 -473 -155q-332 -241 -332 -651q0 -345 230 -576t575 -231q346 0 576.5 231t230.5 576q0 410 -333 652q-3 2 -8 5zM1407 1477l11 -8q370 -270 370 -727q0 -385 -258.5 -643.5
t-643.5 -258.5q-384 0 -642 258.5t-258 643.5q0 458 371 728q237 173 529 173q120 0 220 -27l5 -2q111 -29 165 -60q41 -15 114 -65zM1417 1199q170 -198 170 -457q0 -300 -200.5 -500t-500.5 -200q-298 0 -499 200.5t-201 499.5q0 295 202.5 497.5t497.5 202.5
q321 0 531 -243zM1345 1137q-181 210 -459 210q-255 0 -430 -174.5t-175 -430.5q0 -259 173 -432t432 -173q261 0 433.5 172.5t172.5 432.5q0 224 -147 395zM1165 294l-39 40q-100 -58 -218 -58q-192 0 -321 133t-129 325q0 193 129 325.5t321 132.5q118 0 218 -56l38 39
q-116 71 -256 71q-217 0 -359 -147t-142 -365q0 -217 141 -363q144 -149 360 -149q140 0 257 72zM1267 249q-159 -122 -359 -122q-256 0 -426 175.5t-170 431.5q0 257 170 432t426 175q200 0 359 -122l5 -71l-105 -106l-60 -6q-90 61 -199 61q-153 0 -254 -104.5
t-101 -258.5q0 -153 101 -258t254 -105q109 0 198 62l61 -6l105 -107z" />
    <glyph glyph-name="ordfeminine" unicode="&#xaa;" 
 />
    <glyph glyph-name="guillemotleft" unicode="&#xab;" 
 />
    <glyph glyph-name="logicalnot" unicode="&#xac;" 
 />
    <glyph glyph-name="minus" unicode="&#xad;" horiz-adv-x="2362" 
d="M328 1123l3 44q23 -33 61 -101l-33 -70q-69 -13 -123 -13q-252 0 -252 196q0 166 167 279q148 99 317 99q188 0 188 -125q0 -120 -121 -172q-57 -24 -221 -47q-10 -7 -25 -16l-32 88q338 58 338 163q0 36 -71 36q-48 0 -113 -15q-135 -31 -235 -100q-129 -89 -129 -207
q0 -105 153 -105q62 0 148 18l52 -25q44 -86 44 -249q0 -253 -87 -341l-19 -11q-8 -5 -12 -8l13 16q0 10 4 18l-65 44q102 40 102 318q0 122 -33 192l-63 109l-7 24q45 0 45 -43zM369 1181l62 -108q44 -75 44 -236q0 -343 -162 -406l-65 44q0 12 6 24l12 16q15 12 29 19
q54 65 54 277q0 107 -20 164q-72 -13 -129 -13q-247 0 -247 200q0 172 194 300q175 116 358 116q185 0 185 -130q0 -125 -157 -192q-79 -34 -260 -65l-32 88q15 9 24 16l24 11q141 19 166 26q106 30 106 100q0 29 -68 29q-63 0 -119 -15q-295 -75 -295 -267q0 -101 157 -101
q18 0 38 2q-12 20 -21 33l3 59q38 42 66 42q36 0 47 -33zM563 1105q0 -57 95 -141q-22 -14 -47 8q6 3 17 13v-72q-128 111 -128 218q0 19 5 36q17 56 68 56q56 0 71 -60q14 -60 -39 -80l-24 -17zM629 881q-55 0 -110 90q-51 80 -51 134t43.5 96.5t97.5 42.5q72 0 72 -74
q0 -87 -119 -112l-37 85l31 22l18 8q-7 -12 -19 -14q3 -13 -2 -22q8 -2 13 -9q12 8 23 4q1 3 7 8q-1 -6 -1 -12q0 -60 95 -143v-72q-36 -32 -61 -32zM686 1059l-4 -25q-4 13 -7 29l-1 5q-3 18 -9 58v6q-1 21 9 47l18 22q8 6 17 9l15 2q46 0 58 -88l-73 33l6 4l8 4q3 1 5 3
q32 81 102 81q62 0 68 -82q8 -120 -83 -354l-66 60q6 3 14 8q75 189 75 285v0q-20 -10 -38 -30l-52 13l15 -12q-36 -1 -36 -30q2 -16 14 -72zM762 1230q53 41 107 41q52 0 61 -54q3 -19 3 -51q0 -118 -87 -334l-16 -20q-21 -16 -38 -24l-66 60q62 159 74 256l-1 -2
q-18 -15 -37 -24l-74 33q-3 21 -5 31q35 0 41 -25l15 3l6 2l17 22q-1 -4 -2 -9q7 -53 13 -75l-6 -39q-8 -12 -48 -37l-71 31q-16 77 -16 92q0 121 127 125zM924 823l-3 -12v25q0 265 4 315l51 44q24 -2 76 -6q6 4 14 11l25 -85l-121 11l-43 50q28 408 228 408q73 0 125 -42
q56 -44 56 -114q0 -79 -60 -148.5t-138 -73.5l-19 -13l-26 86q61 -2 121 52t60 115q0 64 -86 64q-97 0 -148 -115q-44 -100 -54 -299q-3 -48 -3 -307zM1018 1096q-2 -81 -2 -285l-5 -21q-8 -17 -52 -42l-71 41q0 20 -1 78.5t-1 94.5q0 642 297 642q74 0 127 -41
q59 -45 59 -117q0 -102 -88.5 -183.5t-190.5 -78.5l-26 86l33 23l27 8q44 -1 80.5 41t36.5 86q0 61 -86 61q-96 0 -129 -273l74 -7l24 -85q-41 -31 -64 -31zM1319 1086q-3 21 16 33q16 -33 16 -82q0 -99 -59 -175q0 17 9 25l-51 -47q-30 1 -80 12q-49 23 -82 81
q-31 55 -31 112q0 133 115 133q97 0 97 -92q0 -36 -30 -77l-57 72q6 3 16 9q8 12 8 17q-6 -1 -20 -7q-67 -29 -67 -84q0 -34 22 -68q24 -37 56 -37q40 0 69 54q25 46 25 89q0 27 -9 47zM1172 1082l-6 -1q-3 0 -8 -3q-6 -9 -6 -33q0 -79 59 -106q7 -2 18 -2q27 43 27 100
q0 18 -6 42t-6 32q0 30 64 54l61 -24q17 -39 17 -87q0 -85 -50 -157q-57 -81 -139 -81q-73 0 -125 65q-48 61 -48 135q0 118 125 171q26 11 53 11q99 0 99 -91q0 -36 -29 -77l-12 -13q-23 -16 -41 -23l-57 71q6 8 10 17zM1518 1063h-1q-23 0 -54 -24l-75 25q-4 14 -12 26
l41 -11l5 41q21 -31 31 -69l-1 -17l4 -2q4 -30 4 -128l-64 45q0 43 -3 101l2 24q23 65 102 65q78 0 83 -82q5 -87 -37 -182q-14 -33 -89 -165l-57 68q4 2 12 8q109 196 109 277zM1490 1043q3 -38 3 -117l-15 -35q-25 -22 -49 -31l-64 44q0 91 -3 114l68 -35q2 3 11 10
l-86 36q1 5 2 11q-5 15 -13 27l9 63q20 17 42 28l55 -16q34 16 67 16h35l12 -1q2 -1 3 -1q27 -9 40 -36l5 -28q0 -1 -7 -102q-3 -35 -32 -101q-10 -22 -86 -159l-12 -14q-26 -20 -46 -27l-58 68q116 204 115 278q1 6 1 18h2q12 -1 21 -11q-8 1 -20 1zM2103 746l12 10l31 -83
q-28 0 -84.5 -2t-84.5 -2q-417 0 -417 274q0 46 23 217l52 41q136 -14 359 -14h220q9 7 22 15l23 -88q-67 3 -313 2q-193 -1 -319 14l-42 54q14 97 14 170q0 46 -6 82l70 -33l-5 -3q4 -35 4 -74q0 -68 -11 -151l-54 -41q-211 29 -211 133q0 34 18 57l32 19q32 4 62 -9l5 3
l-1 -75q-9 7 -17 7q-25 0 -36 -18q21 -33 158 -48l42 -53q-27 -196 -27 -242q0 -136 244 -162h237zM1466 1244l3 -3q-12 9 -21 8l16 9v0v0q8 2 16 10q0 2 2 5q-1 -3 -1 -6q19 -16 81 -31q5 48 5 90q0 50 -7 89l18 45q20 15 38 25l71 -33q7 -44 7 -98q0 -60 -9 -134
q108 -9 260 -9q249 1 318 -2l23 -88q-17 -10 -26 -18l-30 -11h-236q-192 0 -323 10q-16 -125 -16 -159q0 -179 322 -179q28 0 84.5 2t84.5 2l31 -84q-39 -33 -64 -33h-254q-332 17 -332 257q0 46 21 208q-194 36 -194 133q0 48 42 83q39 32 89 32q41 0 76 -27l-1 -75
q-40 -30 -62 -30q-17 0 -32 12zM1747 967q-11 6 -43 15l-5 2q-8 1 -16 1l-10 2q-46 12 -46 66q0 19 9 43l3 8q20 34 68 34q29 0 62 -13q7 4 13 9l6 -84q-28 13 -47 13q-26 0 -39 -11l7 -2q101 -22 101 -103q0 -31 -21 -59l-10 -9q-7 -6 -22 -13l-9 -4q-48 -13 -84 26
q19 13 36 2l1 40q26 0 45 36zM1716 1055q-18 6 -18 23l-10 2q20 -1 38 -5q117 -28 117 -103q0 -51 -47.5 -92.5t-98.5 -41.5q-42 0 -68 30l3 64q21 21 36 30q-16 3 -31 4l-42 48q0 38 6 54l2 6q30 84 138 84q40 0 87 -21l5 -84q-15 -10 -28 -20l-53 -5q-28 15 -45 15
q-4 0 -6 -1q5 9 15 13zM1157 615l-15 -8l-69 -91l-59 -14q-67 33 -111 137l42 -12l-43 56l8 10q26 -34 28 -37v0l28 -37q-6 -2 -12 -6l-7 -4q-37 -46 -54 -76l-76 -8q-36 40 -92 127l48 -22q-52 70 -46 84l35 13q56 -4 356 -4l20 13l26 -87q-294 0 -380 4l-7 -4l3 -7
q-7 -5 -12 -7q-38 -36 -120 -176l-7 -10l-5 -4q1 -7 -3 -13l-65 67l19 12l42 -49l2 33q156 -136 312 -356l1 -19h13l49 -74l-5 7q-18 0 -30 12q-3 -3 -8 -4l-3 -46q-30 47 -61 89l-2 53q125 203 307 363l31 -83q7 4 15 4q-50 -27 -151 -146q-90 -105 -132 -174l-80 -1l-4 6
l9 43q-4 -7 -11 -11l1 -11l-78 322l56 -24l3 25l7 -29l52 -214l-84 -40q-116 152 -235 256l32 83q162 0 385 8l18 -89l9 16q-20 -95 -73 -285l-65 57q5 2 10 5q22 93 66 261l44 35l174 6q-4 -2 -7 -2l10 -5q7 3 11 5q7 -15 7 -25q0 -18 -17 -29l-3 8q-22 76 -47 123z
M1294 521q3 -9 3 -17q0 -33 -60 -62l-12 6q-9 -3 -157 -8q-42 -157 -60 -240l-18 -28q-24 -19 -43 -27l-65 57q41 146 62 234q-96 -2 -170 -4h-21l29 -31l-11 47l4 32q8 17 52 42l69 -30l80 -334q0 -28 -27 -46l12 61l-75 -2q54 88 160 209q134 152 189 152l31 -83
q-159 -141 -271 -315q23 -32 45 -67l-3 -57q-34 -40 -66 -40q-22 0 -37 15l-6 7q-3 2 -9 7l-17 -20q-23 -15 -41 -23l-60 66q22 44 47 86q-141 194 -280 315l3 74q3 2 6 5l62 -71l-19 -12l-19 19v88q-10 -10 -28 -10l-7 -10q93 162 145 204l6 4l-2 9q18 9 25 16l35 10
q62 -5 389 -5l26 -87q-27 -18 -29 -20l-29 -9q-317 0 -376 4l21 7l-54 71q19 12 34 14l48 -21q24 -38 44 -66q13 18 29 37l10 9q23 16 40 24l12 -16l51 -15q16 -37 36 -64l46 61l15 13l26 14l-10 -74q-8 8 -15 20l8 57q34 34 64 34q72 0 134 -219zM1011 574l92 113l75 -1
q44 -57 76 -160l-44 -61q-372 -13 -572 -13l-42 69q28 56 98 158l82 -7q11 -22 94 -124l-11 -70q4 8 12 13l-69 61q5 3 12 6l38 -12l-3 2q-5 -5 -13 -6q7 63 45 113l81 -9q22 -50 49 -72zM1120 557h22q-4 9 -8 17zM1120 557l-38 -48l-16 -8q4 1 7 1q-16 -14 -52 -31l-25 3
q-44 18 -78 61l-2 -36q-31 -46 -67 -46q-23 0 -40 17l-6 7q-3 5 6 7q12 -1 46 -11l-54 47l-5 -32q-39 48 -62 79l-13 -19q159 1 399 9zM1573 268v2l2 -3q18 -27 40 -27q14 12 14 25q-20 31 -79 31q-18 0 -48 -3l-32 86l29 20l21 8q20 2 39 2q111 0 166 -81q19 -29 19 -59
q0 -74 -86 -125q-29 -17 -54 -17q-50 0 -97 42t-47 91q0 57 65 98q44 27 103 6l8 -85l-22 -14l-41 -4q-10 1 -10 0zM1568 357q7 0 13 -1l5 4l9 -85q-8 2 -19 2q-6 -3 -21 -15q26 -40 47 -40q47 16 47 47q-16 45 -90 45h-17l-19 -13l-32 86q36 4 59 4q65 0 116 -30
q58 -36 58 -96q0 -61 -58 -104l-7 -5q-21 -11 -44 -11q-53 0 -94 37.5t-41 84.5q0 41 34 73l16 11q19 6 38 6zM1590 241q2 1 7 2l18 11q0 6 2 9q-1 2 -1 7l-5 6q-5 1 -12 5q-10 -18 -27 -18l17 18l31 21l64 -69q-24 -31 -51 -50q-21 -16 -45 -16q-34 0 -60 28t-26 63
q0 44 42 71q54 36 114 7l7 -81l-19 -14l-48 -3q-5 2 -8 3zM1612 321l5 -70q-7 3 -13 5l-12 -9q1 4 3 7q-1 4 0 7q-6 -1 -12 1q-2 -2 -5 -2l16 13l15 18l64 -68l-25 -17q-18 -20 -49 -20q-41 0 -62 32l-4 6q-11 16 -11 39q0 32 26 58l19 12q10 3 22 3q24 0 51 -13zM1736 174
q-1 -3 -16 -12l-69 58q32 37 71 96q21 -24 38 -35q12 8 21 8q1 2 4 6l-23 -34l-22 -14l-71 47q6 49 61 86q56 37 94 -20q13 -21 13 -43q0 -25 -22 -56l-5 -6l8 -66l-20 -14l-42 -6q-12 4 -20 5zM1747 312q11 -4 17 -14q7 4 19 3l-18 -13q-1 -1 -2 -7l-72 47l7 5q8 16 26 32
q18 11 36 11q19 0 33 -10l19 -24q4 -13 4 -29q0 -31 -71 -122q-3 -2 -6 -6l-69 58q24 15 18 10l18 12q13 4 28 4q24 0 31 -2l10 -84q-21 8 -31 9q6 3 11 3l-56 74q18 21 45 57q0 -6 -2 -9q4 -3 5 -5zM1850 277q1 -1 2 -3q-3 1 -8 2l-18 87l23 15l34 7q73 -12 73 -98
q0 -67 -46 -94q-36 -21 -63 -21q-37 0 -59 38q-17 28 -17 64q0 61 42 87q53 34 105 14l8 -85l-22 -13l-44 -3q3 1 10 1l1 1q-4 2 -7 6q-2 -1 -8 -1zM1875 289l-7 -4q-7 -13 2 -27q-5 1 -13 7q-6 -1 -12 0l13 6q0 1 1 3q2 9 1 24q3 -2 7 -7l10 2l-16 77q35 -7 54 -25l8 -11
q15 -29 15 -56q0 -43 -33 -76l-19 -11q-10 -4 -22 -4q-37 0 -55 27l-4 6q-16 25 -16 59q0 40 28 72l18 12q13 6 27 6q5 0 9 -1l5 3l8 -85q-5 2 -9 3zM1986 275q1 -6 4 -13l-7 11q-11 0 -17 7q-15 -6 -36 -2l-18 86l22 16l35 7q92 -17 92 -114q0 -51 -61 -89q-22 -14 -45 -14
q-37 0 -61 34q-20 27 -20 66q0 57 37 85l16 12l7 4q14 7 29 7q26 0 54 -21l-4 -79l-19 -11l-4 20q-3 -6 -4 -12zM1960 284q2 0 3 -1q6 3 13 3l8 5l-13 -9q-4 -9 -2 -20l4 -5q-11 2 -14 7q-3 -1 -9 0l16 9q0 6 -2 12l-18 87q53 -9 81 -49q15 -29 15 -54q0 -41 -32 -69l-15 -9
q-15 -6 -29 -6q-32 0 -54 25l-7 11q-14 28 -14 54q0 35 21 65l39 21q7 0 13 -1zM2049 275l3 -5l-7 4q-8 4 -13 6l-10 85l21 14l41 4q76 -28 76 -103q0 -59 -60 -95q-19 -11 -39 -11q-35 0 -62 28.5t-27 64.5q0 62 66 101q28 16 66 9l17 -86l-23 -16l-41 -5q4 0 8 -1q5 1 9 1
l10 7q-4 4 -12 9q-2 -1 -8 -2zM2053 356q21 -4 34 -70l-19 -11q0 -1 -1 -6v-2v0q-5 0 -9 2q-3 -2 -6 -2l13 7v6q0 4 -1 7l-1 1q-4 3 -11 6l18 1l-9 75q42 -13 63 -38l7 -11q11 -24 11 -46q0 -38 -28 -68l-19 -13q-11 -3 -23 -3q-38 0 -67 36l-6 10q-8 18 -8 38q0 37 33 72
l20 13q2 1 3 2q9 2 18 2q11 0 22 -4z" />
    <glyph glyph-name="minus" unicode="&#x2212;" horiz-adv-x="2362" 
d="M328 1123l3 44q23 -33 61 -101l-33 -70q-69 -13 -123 -13q-252 0 -252 196q0 166 167 279q148 99 317 99q188 0 188 -125q0 -120 -121 -172q-57 -24 -221 -47q-10 -7 -25 -16l-32 88q338 58 338 163q0 36 -71 36q-48 0 -113 -15q-135 -31 -235 -100q-129 -89 -129 -207
q0 -105 153 -105q62 0 148 18l52 -25q44 -86 44 -249q0 -253 -87 -341l-19 -11q-8 -5 -12 -8l13 16q0 10 4 18l-65 44q102 40 102 318q0 122 -33 192l-63 109l-7 24q45 0 45 -43zM369 1181l62 -108q44 -75 44 -236q0 -343 -162 -406l-65 44q0 12 6 24l12 16q15 12 29 19
q54 65 54 277q0 107 -20 164q-72 -13 -129 -13q-247 0 -247 200q0 172 194 300q175 116 358 116q185 0 185 -130q0 -125 -157 -192q-79 -34 -260 -65l-32 88q15 9 24 16l24 11q141 19 166 26q106 30 106 100q0 29 -68 29q-63 0 -119 -15q-295 -75 -295 -267q0 -101 157 -101
q18 0 38 2q-12 20 -21 33l3 59q38 42 66 42q36 0 47 -33zM563 1105q0 -57 95 -141q-22 -14 -47 8q6 3 17 13v-72q-128 111 -128 218q0 19 5 36q17 56 68 56q56 0 71 -60q14 -60 -39 -80l-24 -17zM629 881q-55 0 -110 90q-51 80 -51 134t43.5 96.5t97.5 42.5q72 0 72 -74
q0 -87 -119 -112l-37 85l31 22l18 8q-7 -12 -19 -14q3 -13 -2 -22q8 -2 13 -9q12 8 23 4q1 3 7 8q-1 -6 -1 -12q0 -60 95 -143v-72q-36 -32 -61 -32zM686 1059l-4 -25q-4 13 -7 29l-1 5q-3 18 -9 58v6q-1 21 9 47l18 22q8 6 17 9l15 2q46 0 58 -88l-73 33l6 4l8 4q3 1 5 3
q32 81 102 81q62 0 68 -82q8 -120 -83 -354l-66 60q6 3 14 8q75 189 75 285v0q-20 -10 -38 -30l-52 13l15 -12q-36 -1 -36 -30q2 -16 14 -72zM762 1230q53 41 107 41q52 0 61 -54q3 -19 3 -51q0 -118 -87 -334l-16 -20q-21 -16 -38 -24l-66 60q62 159 74 256l-1 -2
q-18 -15 -37 -24l-74 33q-3 21 -5 31q35 0 41 -25l15 3l6 2l17 22q-1 -4 -2 -9q7 -53 13 -75l-6 -39q-8 -12 -48 -37l-71 31q-16 77 -16 92q0 121 127 125zM924 823l-3 -12v25q0 265 4 315l51 44q24 -2 76 -6q6 4 14 11l25 -85l-121 11l-43 50q28 408 228 408q73 0 125 -42
q56 -44 56 -114q0 -79 -60 -148.5t-138 -73.5l-19 -13l-26 86q61 -2 121 52t60 115q0 64 -86 64q-97 0 -148 -115q-44 -100 -54 -299q-3 -48 -3 -307zM1018 1096q-2 -81 -2 -285l-5 -21q-8 -17 -52 -42l-71 41q0 20 -1 78.5t-1 94.5q0 642 297 642q74 0 127 -41
q59 -45 59 -117q0 -102 -88.5 -183.5t-190.5 -78.5l-26 86l33 23l27 8q44 -1 80.5 41t36.5 86q0 61 -86 61q-96 0 -129 -273l74 -7l24 -85q-41 -31 -64 -31zM1319 1086q-3 21 16 33q16 -33 16 -82q0 -99 -59 -175q0 17 9 25l-51 -47q-30 1 -80 12q-49 23 -82 81
q-31 55 -31 112q0 133 115 133q97 0 97 -92q0 -36 -30 -77l-57 72q6 3 16 9q8 12 8 17q-6 -1 -20 -7q-67 -29 -67 -84q0 -34 22 -68q24 -37 56 -37q40 0 69 54q25 46 25 89q0 27 -9 47zM1172 1082l-6 -1q-3 0 -8 -3q-6 -9 -6 -33q0 -79 59 -106q7 -2 18 -2q27 43 27 100
q0 18 -6 42t-6 32q0 30 64 54l61 -24q17 -39 17 -87q0 -85 -50 -157q-57 -81 -139 -81q-73 0 -125 65q-48 61 -48 135q0 118 125 171q26 11 53 11q99 0 99 -91q0 -36 -29 -77l-12 -13q-23 -16 -41 -23l-57 71q6 8 10 17zM1518 1063h-1q-23 0 -54 -24l-75 25q-4 14 -12 26
l41 -11l5 41q21 -31 31 -69l-1 -17l4 -2q4 -30 4 -128l-64 45q0 43 -3 101l2 24q23 65 102 65q78 0 83 -82q5 -87 -37 -182q-14 -33 -89 -165l-57 68q4 2 12 8q109 196 109 277zM1490 1043q3 -38 3 -117l-15 -35q-25 -22 -49 -31l-64 44q0 91 -3 114l68 -35q2 3 11 10
l-86 36q1 5 2 11q-5 15 -13 27l9 63q20 17 42 28l55 -16q34 16 67 16h35l12 -1q2 -1 3 -1q27 -9 40 -36l5 -28q0 -1 -7 -102q-3 -35 -32 -101q-10 -22 -86 -159l-12 -14q-26 -20 -46 -27l-58 68q116 204 115 278q1 6 1 18h2q12 -1 21 -11q-8 1 -20 1zM2103 746l12 10l31 -83
q-28 0 -84.5 -2t-84.5 -2q-417 0 -417 274q0 46 23 217l52 41q136 -14 359 -14h220q9 7 22 15l23 -88q-67 3 -313 2q-193 -1 -319 14l-42 54q14 97 14 170q0 46 -6 82l70 -33l-5 -3q4 -35 4 -74q0 -68 -11 -151l-54 -41q-211 29 -211 133q0 34 18 57l32 19q32 4 62 -9l5 3
l-1 -75q-9 7 -17 7q-25 0 -36 -18q21 -33 158 -48l42 -53q-27 -196 -27 -242q0 -136 244 -162h237zM1466 1244l3 -3q-12 9 -21 8l16 9v0v0q8 2 16 10q0 2 2 5q-1 -3 -1 -6q19 -16 81 -31q5 48 5 90q0 50 -7 89l18 45q20 15 38 25l71 -33q7 -44 7 -98q0 -60 -9 -134
q108 -9 260 -9q249 1 318 -2l23 -88q-17 -10 -26 -18l-30 -11h-236q-192 0 -323 10q-16 -125 -16 -159q0 -179 322 -179q28 0 84.5 2t84.5 2l31 -84q-39 -33 -64 -33h-254q-332 17 -332 257q0 46 21 208q-194 36 -194 133q0 48 42 83q39 32 89 32q41 0 76 -27l-1 -75
q-40 -30 -62 -30q-17 0 -32 12zM1747 967q-11 6 -43 15l-5 2q-8 1 -16 1l-10 2q-46 12 -46 66q0 19 9 43l3 8q20 34 68 34q29 0 62 -13q7 4 13 9l6 -84q-28 13 -47 13q-26 0 -39 -11l7 -2q101 -22 101 -103q0 -31 -21 -59l-10 -9q-7 -6 -22 -13l-9 -4q-48 -13 -84 26
q19 13 36 2l1 40q26 0 45 36zM1716 1055q-18 6 -18 23l-10 2q20 -1 38 -5q117 -28 117 -103q0 -51 -47.5 -92.5t-98.5 -41.5q-42 0 -68 30l3 64q21 21 36 30q-16 3 -31 4l-42 48q0 38 6 54l2 6q30 84 138 84q40 0 87 -21l5 -84q-15 -10 -28 -20l-53 -5q-28 15 -45 15
q-4 0 -6 -1q5 9 15 13zM1157 615l-15 -8l-69 -91l-59 -14q-67 33 -111 137l42 -12l-43 56l8 10q26 -34 28 -37v0l28 -37q-6 -2 -12 -6l-7 -4q-37 -46 -54 -76l-76 -8q-36 40 -92 127l48 -22q-52 70 -46 84l35 13q56 -4 356 -4l20 13l26 -87q-294 0 -380 4l-7 -4l3 -7
q-7 -5 -12 -7q-38 -36 -120 -176l-7 -10l-5 -4q1 -7 -3 -13l-65 67l19 12l42 -49l2 33q156 -136 312 -356l1 -19h13l49 -74l-5 7q-18 0 -30 12q-3 -3 -8 -4l-3 -46q-30 47 -61 89l-2 53q125 203 307 363l31 -83q7 4 15 4q-50 -27 -151 -146q-90 -105 -132 -174l-80 -1l-4 6
l9 43q-4 -7 -11 -11l1 -11l-78 322l56 -24l3 25l7 -29l52 -214l-84 -40q-116 152 -235 256l32 83q162 0 385 8l18 -89l9 16q-20 -95 -73 -285l-65 57q5 2 10 5q22 93 66 261l44 35l174 6q-4 -2 -7 -2l10 -5q7 3 11 5q7 -15 7 -25q0 -18 -17 -29l-3 8q-22 76 -47 123z
M1294 521q3 -9 3 -17q0 -33 -60 -62l-12 6q-9 -3 -157 -8q-42 -157 -60 -240l-18 -28q-24 -19 -43 -27l-65 57q41 146 62 234q-96 -2 -170 -4h-21l29 -31l-11 47l4 32q8 17 52 42l69 -30l80 -334q0 -28 -27 -46l12 61l-75 -2q54 88 160 209q134 152 189 152l31 -83
q-159 -141 -271 -315q23 -32 45 -67l-3 -57q-34 -40 -66 -40q-22 0 -37 15l-6 7q-3 2 -9 7l-17 -20q-23 -15 -41 -23l-60 66q22 44 47 86q-141 194 -280 315l3 74q3 2 6 5l62 -71l-19 -12l-19 19v88q-10 -10 -28 -10l-7 -10q93 162 145 204l6 4l-2 9q18 9 25 16l35 10
q62 -5 389 -5l26 -87q-27 -18 -29 -20l-29 -9q-317 0 -376 4l21 7l-54 71q19 12 34 14l48 -21q24 -38 44 -66q13 18 29 37l10 9q23 16 40 24l12 -16l51 -15q16 -37 36 -64l46 61l15 13l26 14l-10 -74q-8 8 -15 20l8 57q34 34 64 34q72 0 134 -219zM1011 574l92 113l75 -1
q44 -57 76 -160l-44 -61q-372 -13 -572 -13l-42 69q28 56 98 158l82 -7q11 -22 94 -124l-11 -70q4 8 12 13l-69 61q5 3 12 6l38 -12l-3 2q-5 -5 -13 -6q7 63 45 113l81 -9q22 -50 49 -72zM1120 557h22q-4 9 -8 17zM1120 557l-38 -48l-16 -8q4 1 7 1q-16 -14 -52 -31l-25 3
q-44 18 -78 61l-2 -36q-31 -46 -67 -46q-23 0 -40 17l-6 7q-3 5 6 7q12 -1 46 -11l-54 47l-5 -32q-39 48 -62 79l-13 -19q159 1 399 9zM1573 268v2l2 -3q18 -27 40 -27q14 12 14 25q-20 31 -79 31q-18 0 -48 -3l-32 86l29 20l21 8q20 2 39 2q111 0 166 -81q19 -29 19 -59
q0 -74 -86 -125q-29 -17 -54 -17q-50 0 -97 42t-47 91q0 57 65 98q44 27 103 6l8 -85l-22 -14l-41 -4q-10 1 -10 0zM1568 357q7 0 13 -1l5 4l9 -85q-8 2 -19 2q-6 -3 -21 -15q26 -40 47 -40q47 16 47 47q-16 45 -90 45h-17l-19 -13l-32 86q36 4 59 4q65 0 116 -30
q58 -36 58 -96q0 -61 -58 -104l-7 -5q-21 -11 -44 -11q-53 0 -94 37.5t-41 84.5q0 41 34 73l16 11q19 6 38 6zM1590 241q2 1 7 2l18 11q0 6 2 9q-1 2 -1 7l-5 6q-5 1 -12 5q-10 -18 -27 -18l17 18l31 21l64 -69q-24 -31 -51 -50q-21 -16 -45 -16q-34 0 -60 28t-26 63
q0 44 42 71q54 36 114 7l7 -81l-19 -14l-48 -3q-5 2 -8 3zM1612 321l5 -70q-7 3 -13 5l-12 -9q1 4 3 7q-1 4 0 7q-6 -1 -12 1q-2 -2 -5 -2l16 13l15 18l64 -68l-25 -17q-18 -20 -49 -20q-41 0 -62 32l-4 6q-11 16 -11 39q0 32 26 58l19 12q10 3 22 3q24 0 51 -13zM1736 174
q-1 -3 -16 -12l-69 58q32 37 71 96q21 -24 38 -35q12 8 21 8q1 2 4 6l-23 -34l-22 -14l-71 47q6 49 61 86q56 37 94 -20q13 -21 13 -43q0 -25 -22 -56l-5 -6l8 -66l-20 -14l-42 -6q-12 4 -20 5zM1747 312q11 -4 17 -14q7 4 19 3l-18 -13q-1 -1 -2 -7l-72 47l7 5q8 16 26 32
q18 11 36 11q19 0 33 -10l19 -24q4 -13 4 -29q0 -31 -71 -122q-3 -2 -6 -6l-69 58q24 15 18 10l18 12q13 4 28 4q24 0 31 -2l10 -84q-21 8 -31 9q6 3 11 3l-56 74q18 21 45 57q0 -6 -2 -9q4 -3 5 -5zM1850 277q1 -1 2 -3q-3 1 -8 2l-18 87l23 15l34 7q73 -12 73 -98
q0 -67 -46 -94q-36 -21 -63 -21q-37 0 -59 38q-17 28 -17 64q0 61 42 87q53 34 105 14l8 -85l-22 -13l-44 -3q3 1 10 1l1 1q-4 2 -7 6q-2 -1 -8 -1zM1875 289l-7 -4q-7 -13 2 -27q-5 1 -13 7q-6 -1 -12 0l13 6q0 1 1 3q2 9 1 24q3 -2 7 -7l10 2l-16 77q35 -7 54 -25l8 -11
q15 -29 15 -56q0 -43 -33 -76l-19 -11q-10 -4 -22 -4q-37 0 -55 27l-4 6q-16 25 -16 59q0 40 28 72l18 12q13 6 27 6q5 0 9 -1l5 3l8 -85q-5 2 -9 3zM1986 275q1 -6 4 -13l-7 11q-11 0 -17 7q-15 -6 -36 -2l-18 86l22 16l35 7q92 -17 92 -114q0 -51 -61 -89q-22 -14 -45 -14
q-37 0 -61 34q-20 27 -20 66q0 57 37 85l16 12l7 4q14 7 29 7q26 0 54 -21l-4 -79l-19 -11l-4 20q-3 -6 -4 -12zM1960 284q2 0 3 -1q6 3 13 3l8 5l-13 -9q-4 -9 -2 -20l4 -5q-11 2 -14 7q-3 -1 -9 0l16 9q0 6 -2 12l-18 87q53 -9 81 -49q15 -29 15 -54q0 -41 -32 -69l-15 -9
q-15 -6 -29 -6q-32 0 -54 25l-7 11q-14 28 -14 54q0 35 21 65l39 21q7 0 13 -1zM2049 275l3 -5l-7 4q-8 4 -13 6l-10 85l21 14l41 4q76 -28 76 -103q0 -59 -60 -95q-19 -11 -39 -11q-35 0 -62 28.5t-27 64.5q0 62 66 101q28 16 66 9l17 -86l-23 -16l-41 -5q4 0 8 -1q5 1 9 1
l10 7q-4 4 -12 9q-2 -1 -8 -2zM2053 356q21 -4 34 -70l-19 -11q0 -1 -1 -6v-2v0q-5 0 -9 2q-3 -2 -6 -2l13 7v6q0 4 -1 7l-1 1q-4 3 -11 6l18 1l-9 75q42 -13 63 -38l7 -11q11 -24 11 -46q0 -38 -28 -68l-19 -13q-11 -3 -23 -3q-38 0 -67 36l-6 10q-8 18 -8 38q0 37 33 72
l20 13q2 1 3 2q9 2 18 2q11 0 22 -4z" />
    <glyph glyph-name="registered" unicode="&#xae;" horiz-adv-x="1864" 
d="M1360 1394q-3 2 -8 5l-16 12q-55 37 -134 73l-118 39l-36 9q-71 16 -162 16q-333 0 -569 -235.5t-236 -570.5q0 -345 230 -576t575 -231q346 0 576.5 231t230.5 576q0 409 -333 652zM1788 742q0 -385 -258.5 -643.5t-643.5 -258.5q-384 0 -642 258.5t-258 643.5
q0 374 264 637.5t636 263.5q120 0 220 -27l5 -2l125 -41q91 -41 154 -84l17 -12l11 -8q370 -270 370 -727zM886 1442q293 0 497 -204.5t204 -495.5q0 -342 -271 -553l-71 15l-227 430l28 68q93 29 150 101q61 75 61 170q0 128 -97 210q-91 78 -221 78h-376l-21 90
q161 91 344 91zM886 1347q-158 0 -301 -81l-22 90h376q169 0 289 -105q124 -110 124 -278q0 -237 -225 -341l175 -332q190 175 190 442q0 251 -176.5 428t-429.5 177zM682 738l-47 48v373l47 47h257q107 0 184 -61q83 -67 83 -172t-84 -172q-77 -63 -183 -63h-257zM730 833
h209q66 0 116 36q56 39 56 104t-56 104q-49 34 -116 34h-209v-278zM635 636l47 48h222l42 -26l221 -421h67l25 -88q-170 -107 -373 -107q-201 0 -372 107l26 88h95v399zM705 164q86 -27 181 -27q109 0 207 35l-217 417h-146v-400zM583 192l-73 -40q-152 97 -238 253.5
t-86 336.5q0 179 86.5 336t237.5 253l73 -40v-1099zM488 286v911q-207 -180 -207 -455q0 -277 207 -456z" />
    <glyph glyph-name="macron" unicode="&#xaf;" 
 />
    <glyph glyph-name="macron" unicode="&#x2c9;" 
 />
    <glyph glyph-name="degree" unicode="&#xb0;" 
 />
    <glyph glyph-name="plusminus" unicode="&#xb1;" horiz-adv-x="961" 
d="M488 1107h-106v-254l-48 -47h-253v-106h253l48 -47v-255h106v255l48 47h253v106h-253l-48 47v254zM583 1154v-253h254l47 -48v-200l-47 -48h-254v-254l-47 -48h-202l-47 48v254h-254l-47 48v200l47 48h254v253l47 48h202zM81 128h702v107h-702v-107zM-14 81v201l47 48
h797l48 -48v-201l-48 -48h-797z" />
    <glyph glyph-name="twosuperior" unicode="&#xb2;" 
 />
    <glyph glyph-name="threesuperior" unicode="&#xb3;" 
 />
    <glyph glyph-name="acute" unicode="&#xb4;" horiz-adv-x="623" 
d="M369 1214l-41 -24h-238l-41 72l178 303l41 23h237l41 -71zM301 1285l121 208h-127l-122 -208h128z" />
    <glyph glyph-name="mu1" unicode="&#xb5;" horiz-adv-x="1161" 
d="M884 502q0 -149 -100 -249t-248 -100q-149 0 -249.5 100t-100.5 249v455h-105v-1412h105v555l76 38q121 -91 274 -91q193 0 323.5 130.5t130.5 324.5v455h-106v-455zM789 502v502l48 48h200l48 -48v-502q0 -233 -158 -391t-391 -158q-138 0 -255 61v-517l-47 -47h-201
l-47 47v1507l47 48h201l47 -48v-502q0 -110 72.5 -182t182.5 -72q109 0 181 72t72 182z" />
    <glyph glyph-name="mu1" unicode="&#x3bc;" horiz-adv-x="1161" 
d="M884 502q0 -149 -100 -249t-248 -100q-149 0 -249.5 100t-100.5 249v455h-105v-1412h105v555l76 38q121 -91 274 -91q193 0 323.5 130.5t130.5 324.5v455h-106v-455zM789 502v502l48 48h200l48 -48v-502q0 -233 -158 -391t-391 -158q-138 0 -255 61v-517l-47 -47h-201
l-47 47v1507l47 48h201l47 -48v-502q0 -110 72.5 -182t182.5 -72q109 0 181 72t72 182z" />
    <glyph glyph-name="paragraph" unicode="&#xb6;" horiz-adv-x="1111" 
d="M81 1104q0 -151 101.5 -252.5t252.5 -101.5l48 -47v-656h105v1258l48 48h151l47 -48v-1258h106v1411h-505q-150 0 -252 -102t-102 -252zM435 1553h552l48 -47v-1506l-48 -47h-200l-48 47v1258h-56v-1258l-47 -47h-201l-47 47v658q-174 16 -288 143t-114 303
q0 190 129.5 319.5t319.5 129.5z" />
    <glyph glyph-name="periodcentered" unicode="&#x2219;" 
 />
    <glyph glyph-name="cedilla" unicode="&#xb8;" 
 />
    <glyph glyph-name="onesuperior" unicode="&#xb9;" 
 />
    <glyph glyph-name="ordmasculine" unicode="&#xba;" horiz-adv-x="659" 
d="M81 1255q0 -88 57.5 -145.5t145.5 -57.5q89 0 146.5 57t57.5 146q0 88 -58 145.5t-146 57.5t-145.5 -57.5t-57.5 -145.5zM284 1553q128 0 213.5 -85.5t85.5 -212.5q0 -129 -85 -213.5t-214 -84.5q-128 0 -213 85t-85 213q0 127 85.5 212.5t212.5 85.5zM137 1255
q0 62 42.5 105t104.5 43t105 -43t43 -105t-43 -105t-105 -43t-104.5 43t-42.5 105zM284 1202q53 0 53 53t-53 53q-52 0 -52 -53t52 -53z" />
    <glyph glyph-name="guillemotright" unicode="&#xbb;" 
 />
    <glyph glyph-name="onequarter" unicode="&#xbc;" 
 />
    <glyph glyph-name="onehalf" unicode="&#xbd;" 
 />
    <glyph glyph-name="threequarters" unicode="&#xbe;" 
 />
    <glyph glyph-name="questiondown" unicode="&#xbf;" horiz-adv-x="1161" 
d="M987 120h-106q-19 -117 -126 -187q-97 -65 -220 -65q-136 0 -238 79q-111 87 -111 220q0 135 110 220q101 78 239 78h103v358h-105v-206l-43 -48q-171 -14 -286 -121q-123 -114 -123 -281q0 -183 138 -297q130 -107 316 -107q170 0 298 93q137 100 154 264zM915 -200
q-158 -132 -380 -132q-225 0 -383 134q-166 143 -166 365q0 192 133 330q127 132 319 162v211l47 48h201l47 -48v-452l-47 -48h-151q-98 0 -171 -51q-83 -58 -83 -152q0 -93 83 -152q75 -52 171 -52q98 0 172 51q82 58 82 153l48 48h200l48 -48q0 -224 -170 -367zM533 1173
v-105h105v105h-105zM485 1268h201l47 -47v-201l-47 -47h-201l-47 47v201z" />
    <glyph glyph-name="Agrave" unicode="&#xc0;" horiz-adv-x="1684" 
d="M728 1458l-622 -1410l118 -1l230 523l44 28h653l44 -28l230 -523l111 1l-615 1410h-193zM697 1553h255l43 -28l657 -1505l-43 -67l-215 -1l-44 28l-230 523h-591l-231 -523l-44 -28l-221 1l-43 67l664 1505zM781 1315h87l239 -544l-44 -66h-477l-43 66zM825 1178
l-166 -378h331zM826 1629h128l-122 208h-128zM758 1558l-178 303l41 71h238l41 -23l177 -303l-41 -72h-237z" />
    <glyph glyph-name="Aacute" unicode="&#xc1;" horiz-adv-x="1684" 
d="M728 1458l-622 -1410l118 -1l230 523l44 28h653l44 -28l230 -523l111 1l-615 1410h-193zM697 1553h255l43 -28l657 -1505l-43 -67l-215 -1l-44 28l-230 523h-591l-231 -523l-44 -28l-221 1l-43 67l664 1505zM781 1315h87l239 -544l-44 -66h-477l-43 66zM825 1178
l-166 -378h331zM862 1558l-41 -24h-238l-41 72l178 303l41 23h237l41 -71zM794 1629l122 208h-128l-122 -208h128z" />
    <glyph glyph-name="Acircumflex" unicode="&#xc2;" horiz-adv-x="1684" 
d="M728 1458l-622 -1410l118 -1l230 523l44 28h653l44 -28l230 -523l111 1l-615 1410h-193zM697 1553h255l43 -28l657 -1505l-43 -67l-215 -1l-44 28l-230 523h-591l-231 -523l-44 -28l-221 1l-43 67l664 1505zM781 1315h87l239 -544l-44 -66h-477l-43 66zM825 1178
l-166 -378h331zM698 1932v2q-3 -10 -8 -23zM882 1872h-108q-23 -3 -49 -3l-194 -209h72l167 184h71l166 -183h69zM719 1965l-7 1v0h18l173 -1l17 -8l21 -10l278 -302l-35 -79h-198l-35 15l-145 161l-147 -162l-35 -15h-201l-35 79l280 303l30 14z" />
    <glyph glyph-name="Atilde" unicode="&#xc3;" horiz-adv-x="1684" 
d="M728 1458l-622 -1410l118 -1l230 523l44 28h653l44 -28l230 -523l111 1l-615 1410h-193zM697 1553h255l43 -28l657 -1505l-43 -67l-215 -1l-44 28l-230 523h-591l-231 -523l-44 -28l-221 1l-43 67l664 1505zM781 1315h87l239 -544l-44 -66h-477l-43 66zM825 1178
l-166 -378h331zM1098 1608l-47 -47h-110l-47 47v124q0 21 -4 26q-5 1 -7 1q-4 -8 -4 -26q0 -92 -60.5 -157t-151.5 -65t-152 66q-60 63 -60 155v123l48 48h109l47 -48v-123q0 -22 4.5 -24.5t6.5 -2.5q4 8 4 27q0 90 60 155t152 65t152 -64t60 -156v-124zM878 1857
q-54 0 -90 -36t-36 -89q0 -88 -76 -88q-77 0 -77 88v83h-49v-83q0 -52 35 -89t91 -37t91 39q34 36 34 88q0 87 77 87q76 0 76 -88v-83h49v83q0 52 -34.5 88.5t-90.5 36.5z" />
    <glyph glyph-name="Adieresis" unicode="&#xc4;" horiz-adv-x="1684" 
d="M728 1458l-622 -1410l118 -1l230 523l44 28h653l44 -28l230 -523l111 1l-615 1410h-193zM697 1553h255l43 -28l657 -1505l-43 -67l-215 -1l-44 28l-230 523h-591l-231 -523l-44 -28l-221 1l-43 67l664 1505zM781 1315h87l239 -544l-44 -66h-477l-43 66zM825 1178
l-166 -378h331zM503 1787l47 47h179l47 -47v-195l-47 -47h-179l-47 47v195zM598 1739v-99h83v99h-83zM857 1787l47 47h179l47 -47v-195l-47 -47h-179l-47 47v195zM952 1739v-99h83v99h-83z" />
    <glyph glyph-name="Aring" unicode="&#xc5;" horiz-adv-x="1684" 
d="M728 1458l-622 -1410l118 -1l230 523l44 28h653l44 -28l230 -523l111 1l-615 1410h-193zM697 1553h255l43 -28l657 -1505l-43 -67l-215 -1l-44 28l-230 523h-591l-231 -523l-44 -28l-221 1l-43 67l664 1505zM781 1315h87l239 -544l-44 -66h-477l-43 66zM825 1178
l-166 -378h331zM603 1639q0 -89 57.5 -146.5t146.5 -57.5q88 0 146 57.5t58 146.5q0 88 -58 145.5t-146 57.5q-87 0 -145.5 -58.5t-58.5 -144.5zM807 1937q127 0 213 -85.5t86 -212.5q0 -128 -86 -213.5t-213 -85.5q-128 0 -213.5 85.5t-85.5 213.5q0 126 86 212t213 86z
M659 1639q0 62 42.5 105t105.5 43q62 0 105 -43t43 -105q0 -63 -43 -105.5t-105 -42.5t-105 43t-43 105zM807 1586q53 0 53 53t-53 53t-53 -53t53 -53z" />
    <glyph glyph-name="AE" unicode="&#xc6;" 
 />
    <glyph glyph-name="Ccedilla" unicode="&#xc7;" 
 />
    <glyph glyph-name="Egrave" unicode="&#xc8;" horiz-adv-x="963" 
d="M81 47h759v105h-605l-48 47v453l48 47h403v106h-403l-48 47v452l48 48h605v106h-759v-1411zM-14 -1v1507l47 47h854l48 -47v-202l-48 -47h-605v-357h404l47 -48v-200l-47 -48h-404v-357h605l48 -48v-200l-48 -47h-854zM442 1629h128l-122 208h-128zM374 1558l-177 303
l40 71h238l41 -23l178 -303l-41 -72h-238z" />
    <glyph glyph-name="Eacute" unicode="&#xc9;" horiz-adv-x="963" 
d="M81 47h759v105h-605l-48 47v453l48 47h403v106h-403l-48 47v452l48 48h605v106h-759v-1411zM-14 -1v1507l47 47h854l48 -47v-202l-48 -47h-605v-357h404l47 -48v-200l-47 -48h-404v-357h605l48 -48v-200l-48 -47h-854zM549 1558l-41 -24h-237l-41 72l177 303l41 23h238
l41 -71zM481 1629l122 208h-127l-122 -208h127z" />
    <glyph glyph-name="Ecircumflex" unicode="&#xca;" horiz-adv-x="963" 
d="M81 47h759v105h-605l-48 47v453l48 47h403v106h-403l-48 47v452l48 48h605v106h-759v-1411zM-14 -1v1507l47 47h854l48 -47v-202l-48 -47h-605v-357h404l47 -48v-200l-47 -48h-404v-357h605l48 -48v-200l-48 -47h-854zM369 1932v2l-9 -23zM552 1872h-107q-24 -3 -50 -3
l-193 -209h71l168 184h70l167 -183h68zM389 1965l-7 1v0h18l174 -1l16 -8l22 -10l277 -302l-35 -79h-198l-35 15l-145 161l-146 -162l-36 -15h-201l-35 79l280 303l31 14z" />
    <glyph glyph-name="Edieresis" unicode="&#xcb;" horiz-adv-x="963" 
d="M81 47h759v105h-605l-48 47v453l48 47h403v106h-403l-48 47v452l48 48h605v106h-759v-1411zM-14 -1v1507l47 47h854l48 -47v-202l-48 -47h-605v-357h404l47 -48v-200l-47 -48h-404v-357h605l48 -48v-200l-48 -47h-854zM138 1787l47 47h179l47 -47v-195l-47 -47h-179
l-47 47v195zM233 1739v-99h83v99h-83zM492 1787l48 47h178l48 -47v-195l-48 -47h-178l-48 47v195zM587 1739v-99h84v99h-84z" />
    <glyph glyph-name="Igrave" unicode="&#xcc;" horiz-adv-x="520" 
d="M388 1458h-307v-105h53l47 -48v-1105l-47 -47h-53v-106h307v106h-54l-47 47v1105l47 48h54v105zM483 1506v-201l-48 -47h-53v-1010h53l48 -48v-200l-48 -47h-402l-47 47v200l47 48h53v1010h-53l-47 47v201l47 47h402zM233 1629h128l-122 208h-128zM165 1558l-177 303
l40 71h238l41 -23l178 -303l-41 -72h-238z" />
    <glyph glyph-name="Iacute" unicode="&#xcd;" horiz-adv-x="533" 
d="M388 1458h-307v-105h53l47 -48v-1105l-47 -47h-53v-106h307v106h-54l-47 47v1105l47 48h54v105zM483 1506v-201l-48 -47h-53v-1010h53l48 -48v-200l-48 -47h-402l-47 47v200l47 48h53v1010h-53l-47 47v201l47 47h402zM320 1558l-41 -24h-237l-41 72l177 303l41 23h238
l41 -71zM252 1629l122 208h-127l-122 -208h127z" />
    <glyph glyph-name="Icircumflex" unicode="&#xce;" horiz-adv-x="712" 
d="M388 1458h-307v-105h53l47 -48v-1105l-47 -47h-53v-106h307v106h-54l-47 47v1105l47 48h54v105zM483 1506v-201l-48 -47h-53v-1010h53l48 -48v-200l-48 -47h-402l-47 47v200l47 48h53v1010h-53l-47 47v201l47 47h402zM150 1932v2q-3 -10 -8 -23zM334 1872h-108
q-23 -3 -49 -3l-194 -209h72l167 184h71l166 -183h68zM171 1965l-8 1h1h17l174 -1l16 -8l22 -10l278 -302l-35 -79h-198l-35 15l-146 161l-146 -162l-35 -15h-201l-35 79l280 303l30 14z" />
    <glyph glyph-name="Idieresis" unicode="&#xcf;" horiz-adv-x="584" 
d="M388 1458h-307v-105h53l47 -48v-1105l-47 -47h-53v-106h307v106h-54l-47 47v1105l47 48h54v105zM483 1506v-201l-48 -47h-53v-1010h53l48 -48v-200l-48 -47h-402l-47 47v200l47 48h53v1010h-53l-47 47v201l47 47h402zM-72 1787l47 47h179l47 -47v-195l-47 -47h-179
l-47 47v195zM23 1739v-99h83v99h-83zM282 1787l48 47h178l48 -47v-195l-48 -47h-178l-48 47v195zM377 1739v-99h84v99h-84z" />
    <glyph glyph-name="Eth" unicode="&#xd0;" horiz-adv-x="1474" 
d="M97 597h-88l-48 47v201l48 47l84 -1l4 615l47 47h453q340 0 570 -230t230 -571t-229.5 -570.5t-570.5 -229.5h-453l-47 47v598zM1302 752q0 302 -202 504t-503 202h-405l-4 -615l-48 -47l-84 1v-105l82 -1l13 -2l41 -47v-595h405q300 0 502.5 202.5t202.5 502.5z
M597 1257h-204l1 -365h257l47 -47v-201l-47 -47h-257l-1 -350h204q217 0 360.5 144t143.5 361q0 216 -144 360.5t-360 144.5zM1196 752q0 -256 -171.5 -428t-427.5 -172h-251l-48 48l1 445l48 48l256 -1v105h-256l-48 47l-1 460l48 48h251q255 0 427 -172t172 -428z" />
    <glyph glyph-name="Ntilde" unicode="&#xd1;" horiz-adv-x="1314" 
d="M1085 344l-87 -27l-773 1141h-144v-1411h105v1123l87 27l778 -1150h139v1411h-105v-1114zM990 499v1007l47 47h201l47 -47v-1506l-47 -47h-212l-39 20l-706 1042v-1015l-47 -47h-201l-47 47v1506l47 47h217l39 -21zM966 1608l-47 -47h-110l-47 47v124q0 21 -4 26
q-5 1 -7 1q-4 -8 -4 -26q0 -92 -60.5 -157t-151.5 -65t-152 66q-60 63 -60 155v123l47 48h110l47 -48v-123q0 -22 4.5 -24.5t6.5 -2.5q4 8 4 27q0 90 60 155t152 65t152 -64t60 -156v-124zM746 1857q-54 0 -90 -36t-36 -89q0 -88 -77 -88q-76 0 -76 88v83h-49v-83
q0 -52 35 -89t90 -37q57 0 92 39q34 36 34 88q0 87 77 87q76 0 76 -88v-83h49v83q0 52 -34.5 88.5t-90.5 36.5z" />
    <glyph glyph-name="Ograve" unicode="&#xd2;" horiz-adv-x="1616" 
d="M81 752q0 -302 201.5 -503.5t504.5 -201.5q301 0 503 202t202 503q0 303 -201.5 504.5t-503.5 201.5q-301 0 -503.5 -202.5t-202.5 -503.5zM787 1553q341 0 570.5 -229.5t229.5 -571.5q0 -340 -230 -569.5t-570 -229.5q-342 0 -571.5 229t-229.5 570q0 340 230.5 570.5
t570.5 230.5zM186 752q0 257 172 429t429 172q256 0 427.5 -172t171.5 -429q0 -255 -172 -427t-427 -172q-256 0 -428.5 172.5t-172.5 426.5zM787 248q216 0 360 144t144 360q0 218 -143.5 362t-360.5 144q-218 0 -362 -144t-144 -362q0 -215 145 -359.5t361 -144.5z
M781 1629h127l-122 208h-127zM712 1558l-177 303l41 71h237l41 -23l178 -303l-41 -72h-238z" />
    <glyph glyph-name="Oacute" unicode="&#xd3;" horiz-adv-x="1616" 
d="M81 752q0 -302 201.5 -503.5t504.5 -201.5q301 0 503 202t202 503q0 303 -201.5 504.5t-503.5 201.5q-301 0 -503.5 -202.5t-202.5 -503.5zM787 1553q341 0 570.5 -229.5t229.5 -571.5q0 -340 -230 -569.5t-570 -229.5q-342 0 -571.5 229t-229.5 570q0 340 230.5 570.5
t570.5 230.5zM186 752q0 257 172 429t429 172q256 0 427.5 -172t171.5 -429q0 -255 -172 -427t-427 -172q-256 0 -428.5 172.5t-172.5 426.5zM787 248q216 0 360 144t144 360q0 218 -143.5 362t-360.5 144q-218 0 -362 -144t-144 -362q0 -215 145 -359.5t361 -144.5z
M829 1558l-41 -24h-237l-41 72l178 303l41 23h237l41 -71zM761 1629l122 208h-127l-122 -208h127z" />
    <glyph glyph-name="Ocircumflex" unicode="&#xd4;" horiz-adv-x="1616" 
d="M81 752q0 -302 201.5 -503.5t504.5 -201.5q301 0 503 202t202 503q0 303 -201.5 504.5t-503.5 201.5q-301 0 -503.5 -202.5t-202.5 -503.5zM787 1553q341 0 570.5 -229.5t229.5 -571.5q0 -340 -230 -569.5t-570 -229.5q-342 0 -571.5 229t-229.5 570q0 340 230.5 570.5
t570.5 230.5zM186 752q0 257 172 429t429 172q256 0 427.5 -172t171.5 -429q0 -255 -172 -427t-427 -172q-256 0 -428.5 172.5t-172.5 426.5zM787 248q216 0 360 144t144 360q0 218 -143.5 362t-360.5 144q-218 0 -362 -144t-144 -362q0 -215 145 -359.5t361 -144.5z
M654 1932v2q-3 -10 -8 -23zM838 1872h-107q-24 -3 -50 -3l-193 -209h71l168 184h70l166 -183h69zM675 1965l-7 1v0h18l174 -1l16 -8l22 -10l277 -302l-35 -79h-198l-35 15l-145 161l-146 -162l-36 -15h-201l-35 79l280 303l30 14z" />
    <glyph glyph-name="Otilde" unicode="&#xd5;" horiz-adv-x="1616" 
d="M81 752q0 -302 201.5 -503.5t504.5 -201.5q301 0 503 202t202 503q0 303 -201.5 504.5t-503.5 201.5q-301 0 -503.5 -202.5t-202.5 -503.5zM787 1553q341 0 570.5 -229.5t229.5 -571.5q0 -340 -230 -569.5t-570 -229.5q-342 0 -571.5 229t-229.5 570q0 340 230.5 570.5
t570.5 230.5zM186 752q0 257 172 429t429 172q256 0 427.5 -172t171.5 -429q0 -255 -172 -427t-427 -172q-256 0 -428.5 172.5t-172.5 426.5zM787 248q216 0 360 144t144 360q0 218 -143.5 362t-360.5 144q-218 0 -362 -144t-144 -362q0 -215 145 -359.5t361 -144.5z
M1067 1608l-48 -47h-109l-47 47v124q0 21 -4 26q-5 1 -7 1q-5 -8 -5 -26q0 -92 -60 -157t-151 -65q-92 0 -153 66q-59 63 -59 155v123l47 48h109l48 -48v-123q0 -22 4.5 -24.5t6.5 -2.5q4 8 4 27q0 90 60 155t152 65t152 -64t60 -156v-124zM846 1857q-53 0 -89 -36t-36 -89
q0 -88 -77 -88q-76 0 -76 88v83h-49v-83q0 -52 35 -89t90 -37q56 0 92 39q34 36 34 88q0 87 76 87q77 0 77 -88v-83h49v83q0 52 -35 88.5t-91 36.5z" />
    <glyph glyph-name="Odieresis" unicode="&#xd6;" horiz-adv-x="1616" 
d="M81 752q0 -302 201.5 -503.5t504.5 -201.5q301 0 503 202t202 503q0 303 -201.5 504.5t-503.5 201.5q-301 0 -503.5 -202.5t-202.5 -503.5zM787 1553q341 0 570.5 -229.5t229.5 -571.5q0 -340 -230 -569.5t-570 -229.5q-342 0 -571.5 229t-229.5 570q0 340 230.5 570.5
t570.5 230.5zM186 752q0 257 172 429t429 172q256 0 427.5 -172t171.5 -429q0 -255 -172 -427t-427 -172q-256 0 -428.5 172.5t-172.5 426.5zM787 248q216 0 360 144t144 360q0 218 -143.5 362t-360.5 144q-218 0 -362 -144t-144 -362q0 -215 145 -359.5t361 -144.5z
M433 1787l48 47h178l48 -47v-195l-48 -47h-178l-48 47v195zM528 1739v-99h84v99h-84zM788 1787l47 47h179l47 -47v-195l-47 -47h-179l-47 47v195zM883 1739v-99h83v99h-83z" />
    <glyph glyph-name="multiply" unicode="&#xd7;" horiz-adv-x="853" 
d="M601 1041l-179 -180h-67l-179 180l-76 -75l180 -180v-67l-179 -179l75 -75l179 179h67l179 -179l75 75l-179 179l-1 67l180 180zM635 1141l141 -141l1 -67l-180 -181l179 -179v-67l-141 -142h-67l-179 180l-180 -180h-67l-142 142v67l179 179l-179 181v67l142 141h67
l180 -179l179 179h67z" />
    <glyph glyph-name="Oslash" unicode="&#xd8;" 
 />
    <glyph glyph-name="Ugrave" unicode="&#xd9;" horiz-adv-x="1314" 
d="M1085 752q0 -599 -449 -599q-450 0 -450 599v706h-105v-706q0 -300 122 -485q145 -220 433 -220q289 0 433 219q121 184 121 486v706h-105v-706zM990 752v754l47 47h201l47 -47v-754q0 -342 -148 -554q-171 -245 -501 -245t-501 246q-149 213 -149 553v754l47 47h201
l47 -47v-754q0 -504 355 -504q354 0 354 504zM636 1629h128l-122 208h-128zM568 1558l-178 303l41 71h238l41 -23l177 -303l-41 -72h-237z" />
    <glyph glyph-name="Uacute" unicode="&#xda;" horiz-adv-x="1314" 
d="M1085 752q0 -599 -449 -599q-450 0 -450 599v706h-105v-706q0 -300 122 -485q145 -220 433 -220q289 0 433 219q121 184 121 486v706h-105v-706zM990 752v754l47 47h201l47 -47v-754q0 -342 -148 -554q-171 -245 -501 -245t-501 246q-149 213 -149 553v754l47 47h201
l47 -47v-754q0 -504 355 -504q354 0 354 504zM741 1558l-41 -24h-237l-41 72l177 303l41 23h238l41 -71zM673 1629l122 208h-127l-122 -208h127z" />
    <glyph glyph-name="Ucircumflex" unicode="&#xdb;" horiz-adv-x="1314" 
d="M1085 752q0 -599 -449 -599q-450 0 -450 599v706h-105v-706q0 -300 122 -485q145 -220 433 -220q289 0 433 219q121 184 121 486v706h-105v-706zM990 752v754l47 47h201l47 -47v-754q0 -342 -148 -554q-171 -245 -501 -245t-501 246q-149 213 -149 553v754l47 47h201
l47 -47v-754q0 -504 355 -504q354 0 354 504zM520 1932v2l-9 -23zM703 1872h-107q-24 -3 -50 -3l-193 -209h71l168 184h70l167 -183h68zM541 1965l-8 1v0h18l174 -1l16 -8l22 -10l277 -302l-35 -79h-198l-35 15l-145 161l-146 -162l-35 -15h-202l-35 79l281 303l30 14z" />
    <glyph glyph-name="Udieresis" unicode="&#xdc;" horiz-adv-x="1314" 
d="M1085 752q0 -599 -449 -599q-450 0 -450 599v706h-105v-706q0 -300 122 -485q145 -220 433 -220q289 0 433 219q121 184 121 486v706h-105v-706zM990 752v754l47 47h201l47 -47v-754q0 -342 -148 -554q-171 -245 -501 -245t-501 246q-149 213 -149 553v754l47 47h201
l47 -47v-754q0 -504 355 -504q354 0 354 504zM327 1787l47 47h179l47 -47v-195l-47 -47h-179l-47 47v195zM422 1739v-99h83v99h-83zM681 1787l48 47h178l48 -47v-195l-48 -47h-178l-48 47v195zM776 1739v-99h84v99h-84z" />
    <glyph glyph-name="Yacute" unicode="&#xdd;" horiz-adv-x="1476" 
d="M753 896h-76l-418 563h-131l525 -706l9 -28v-678h106v674l9 28l528 712l-132 -2zM715 1004l395 531l38 19l252 3l38 -76l-575 -776v-705l-48 -47h-200l-48 47v709l-572 769l38 76h250l38 -19zM799 1558l-41 -24h-237l-41 72l177 303l41 23h238l41 -71zM731 1629l122 208
h-128l-122 -208h128z" />
    <glyph glyph-name="Thorn" unicode="&#xde;" horiz-adv-x="1211" 
d="M234 1207l-48 48v203h-105v-1411h105v204l48 47h351q195 0 325 130t130 324t-130.5 324.5t-324.5 130.5h-351zM281 1302h304q233 0 391.5 -158.5t158.5 -391.5t-158 -391t-392 -158h-304v-203l-47 -47h-201l-47 47v1506l47 47h201l47 -47v-204zM585 1102l48 -48
q23 22 57 22q69 0 144 -75q101 -100 101 -249q0 -148 -100.5 -248t-249.5 -100h-351l-48 47v603l48 48h351zM585 1007h-304v-508h304q110 0 182.5 72t72.5 181q0 127 -95 201q-51 39 -207 101z" />
    <glyph glyph-name="germandbls" unicode="&#xdf;" 
 />
    <glyph glyph-name="agrave" unicode="&#xe0;" horiz-adv-x="1114" 
d="M842 841q-128 116 -306 116q-195 0 -325 -130.5t-130 -324.5q0 -195 130 -325t325 -130q151 0 273 91l75 -38v-53h106l-1 517q-3 64 -53 152q-45 80 -94 125zM906 911q176 -159 180 -305l-1 -54v-552l-48 -47h-200l-48 47v14q-116 -61 -253 -61q-234 0 -392 157.5
t-158 391.5q0 233 158 391.5t392 158.5q215 0 370 -141zM884 502q0 -149 -100 -249t-248 -100q-149 0 -249.5 100t-100.5 249q0 148 100.5 248t249.5 100q148 0 248 -100t100 -248zM536 755q-110 0 -182.5 -72t-72.5 -181q0 -110 72.5 -182t182.5 -72q109 0 181 72t72 182
q0 108 -72.5 180.5t-180.5 72.5zM533 1285h127l-122 208h-127zM464 1214l-177 303l41 71h237l41 -23l178 -303l-41 -72h-238z" />
    <glyph glyph-name="aacute" unicode="&#xe1;" horiz-adv-x="1114" 
d="M842 841q-128 116 -306 116q-195 0 -325 -130.5t-130 -324.5q0 -195 130 -325t325 -130q151 0 273 91l75 -38v-53h106l-1 517q-3 64 -53 152q-45 80 -94 125zM906 911q176 -159 180 -305l-1 -54v-552l-48 -47h-200l-48 47v14q-116 -61 -253 -61q-234 0 -392 157.5
t-158 391.5q0 233 158 391.5t392 158.5q215 0 370 -141zM884 502q0 -149 -100 -249t-248 -100q-149 0 -249.5 100t-100.5 249q0 148 100.5 248t249.5 100q148 0 248 -100t100 -248zM536 755q-110 0 -182.5 -72t-72.5 -181q0 -110 72.5 -182t182.5 -72q109 0 181 72t72 182
q0 108 -72.5 180.5t-180.5 72.5zM598 1214l-41 -24h-238l-41 72l178 303l41 23h237l41 -71zM529 1285l122 208h-127l-122 -208h127z" />
    <glyph glyph-name="acircumflex" unicode="&#xe2;" horiz-adv-x="1114" 
d="M842 841q-128 116 -306 116q-195 0 -325 -130.5t-130 -324.5q0 -195 130 -325t325 -130q151 0 273 91l75 -38v-53h106l-1 517q-3 64 -53 152q-45 80 -94 125zM906 911q176 -159 180 -305l-1 -54v-552l-48 -47h-200l-48 47v14q-116 -61 -253 -61q-234 0 -392 157.5
t-158 391.5q0 233 158 391.5t392 158.5q215 0 370 -141zM884 502q0 -149 -100 -249t-248 -100q-149 0 -249.5 100t-100.5 249q0 148 100.5 248t249.5 100q148 0 248 -100t100 -248zM536 755q-110 0 -182.5 -72t-72.5 -181q0 -110 72.5 -182t182.5 -72q109 0 181 72t72 182
q0 108 -72.5 180.5t-180.5 72.5zM463 1588v2l-9 -23zM646 1528h-107q-24 -2 -50 -3l-193 -209h71l168 185h70l167 -184h68zM484 1621l-8 1v0h18l174 -1l16 -8l22 -10l277 -302l-35 -79h-198l-35 15l-145 161l-146 -162l-35 -15h-202l-35 79l281 304l30 13z" />
    <glyph glyph-name="atilde" unicode="&#xe3;" horiz-adv-x="1114" 
d="M842 841q-128 116 -306 116q-195 0 -325 -130.5t-130 -324.5q0 -195 130 -325t325 -130q151 0 273 91l75 -38v-53h106l-1 517q-3 64 -53 152q-45 80 -94 125zM906 911q176 -159 180 -305l-1 -54v-552l-48 -47h-200l-48 47v14q-116 -61 -253 -61q-234 0 -392 157.5
t-158 391.5q0 233 158 391.5t392 158.5q215 0 370 -141zM884 502q0 -149 -100 -249t-248 -100q-149 0 -249.5 100t-100.5 249q0 148 100.5 248t249.5 100q148 0 248 -100t100 -248zM536 755q-110 0 -182.5 -72t-72.5 -181q0 -110 72.5 -182t182.5 -72q109 0 181 72t72 182
q0 108 -72.5 180.5t-180.5 72.5zM870 1288l-47 -47h-110l-47 47v124q0 21 -4 26q-5 1 -7 1q-4 -8 -4 -26q0 -92 -60.5 -157t-151.5 -65t-151.5 64.5t-60.5 156.5v123l48 48h109l47 -48v-123q0 -22 4 -27q5 -1 7 -1q4 8 4 28q0 89 60 154.5t152 65.5t152 -64t60 -156v-124z
M650 1537q-54 0 -90 -36t-36 -89q0 -88 -76 -88q-77 0 -77 88v82h-49v-82q0 -52 35 -89t91 -37t91 39q34 36 34 88q0 87 77 87q76 0 76 -88v-83h49v83q0 52 -34.5 88.5t-90.5 36.5z" />
    <glyph glyph-name="adieresis" unicode="&#xe4;" horiz-adv-x="1114" 
d="M842 841q-128 116 -306 116q-195 0 -325 -130.5t-130 -324.5q0 -195 130 -325t325 -130q151 0 273 91l75 -38v-53h106l-1 517q-3 64 -53 152q-45 80 -94 125zM906 911q176 -159 180 -305l-1 -54v-552l-48 -47h-200l-48 47v14q-116 -61 -253 -61q-234 0 -392 157.5
t-158 391.5q0 233 158 391.5t392 158.5q215 0 370 -141zM884 502q0 -149 -100 -249t-248 -100q-149 0 -249.5 100t-100.5 249q0 148 100.5 248t249.5 100q148 0 248 -100t100 -248zM536 755q-110 0 -182.5 -72t-72.5 -181q0 -110 72.5 -182t182.5 -72q109 0 181 72t72 182
q0 108 -72.5 180.5t-180.5 72.5zM221 1515l48 48h178l48 -48v-195l-48 -47h-178l-48 47v195zM316 1468v-100h84v100h-84zM576 1515l47 48h179l47 -48v-195l-47 -47h-179l-47 47v195zM671 1468v-100h83v100h-83z" />
    <glyph glyph-name="aring" unicode="&#xe5;" horiz-adv-x="1114" 
d="M842 841q-128 116 -306 116q-195 0 -325 -130.5t-130 -324.5q0 -195 130 -325t325 -130q151 0 273 91l75 -38v-53h106l-1 517q-3 64 -53 152q-45 80 -94 125zM906 911q176 -159 180 -305l-1 -54v-552l-48 -47h-200l-48 47v14q-116 -61 -253 -61q-234 0 -392 157.5
t-158 391.5q0 233 158 391.5t392 158.5q215 0 370 -141zM884 502q0 -149 -100 -249t-248 -100q-149 0 -249.5 100t-100.5 249q0 148 100.5 248t249.5 100q148 0 248 -100t100 -248zM536 755q-110 0 -182.5 -72t-72.5 -181q0 -110 72.5 -182t182.5 -72q109 0 181 72t72 182
q0 108 -72.5 180.5t-180.5 72.5zM330 1389q0 -88 57.5 -145.5t145.5 -57.5t146 57.5t58 145.5t-58 145.5t-146 57.5q-87 0 -145 -58t-58 -145zM533 1687q128 0 213.5 -85.5t85.5 -212.5q0 -128 -85.5 -213t-213.5 -85t-213 85t-85 213q0 126 86 212t212 86zM386 1389
q0 63 42 105.5t105 42.5t105.5 -42.5t42.5 -105.5t-42.5 -105.5t-105.5 -42.5q-62 0 -104.5 43t-42.5 105zM533 1336q53 0 53 53t-53 53q-52 0 -52 -53t52 -53z" />
    <glyph glyph-name="ae" unicode="&#xe6;" 
 />
    <glyph glyph-name="ccedilla" unicode="&#xe7;" 
 />
    <glyph glyph-name="egrave" unicode="&#xe8;" horiz-adv-x="1103" 
d="M-14 502q0 233 158 391.5t392 158.5q200 0 349 -122t188 -318l-6 -35l-125 -201l-40 -23h-573q76 -105 207 -105h451l48 -48v-203l-48 -47q-88 3 -178 3h-275v-2q-233 1 -390.5 159.5t-157.5 391.5zM534 47h406v106h-404q-111 0 -201.5 63.5t-127.5 168.5l45 63h623
l101 163q-37 156 -158.5 251t-281.5 95q-195 0 -325 -130.5t-130 -324.5t129.5 -324t322.5 -131h1zM864 618l-45 -63h-567l-45 63q37 105 127.5 168.5t201.5 63.5q112 0 201 -63t127 -169zM682 709q-64 46 -146 46q-131 0 -207 -105h413q-24 34 -60 59zM505 1285h127
l-122 208h-127zM437 1214l-178 303l41 71h238l41 -23l177 -303l-41 -72h-237z" />
    <glyph glyph-name="eacute" unicode="&#xe9;" horiz-adv-x="1103" 
d="M-14 502q0 233 158 391.5t392 158.5q200 0 349 -122t188 -318l-6 -35l-125 -201l-40 -23h-573q76 -105 207 -105h451l48 -48v-203l-48 -47q-88 3 -178 3h-275v-2q-233 1 -390.5 159.5t-157.5 391.5zM534 47h406v106h-404q-111 0 -201.5 63.5t-127.5 168.5l45 63h623
l101 163q-37 156 -158.5 251t-281.5 95q-195 0 -325 -130.5t-130 -324.5t129.5 -324t322.5 -131h1zM864 618l-45 -63h-567l-45 63q37 105 127.5 168.5t201.5 63.5q112 0 201 -63t127 -169zM682 709q-64 46 -146 46q-131 0 -207 -105h413q-24 34 -60 59zM600 1214l-41 -24
h-238l-41 72l178 303l41 23h237l41 -71zM531 1285l122 208h-127l-122 -208h127z" />
    <glyph glyph-name="ecircumflex" unicode="&#xea;" horiz-adv-x="1103" 
d="M-14 502q0 233 158 391.5t392 158.5q200 0 349 -122t188 -318l-6 -35l-125 -201l-40 -23h-573q76 -105 207 -105h451l48 -48v-203l-48 -47q-88 3 -178 3h-275v-2q-233 1 -390.5 159.5t-157.5 391.5zM534 47h406v106h-404q-111 0 -201.5 63.5t-127.5 168.5l45 63h623
l101 163q-37 156 -158.5 251t-281.5 95q-195 0 -325 -130.5t-130 -324.5t129.5 -324t322.5 -131h1zM864 618l-45 -63h-567l-45 63q37 105 127.5 168.5t201.5 63.5q112 0 201 -63t127 -169zM682 709q-64 46 -146 46q-131 0 -207 -105h413q-24 34 -60 59zM464 1588v2l-9 -23z
M647 1528h-107q-24 -2 -50 -3l-193 -209h71l168 185h70l167 -184h68zM484 1621l-7 1v0h18l174 -1l16 -8l22 -10l277 -302l-35 -79h-198l-35 15l-145 161l-146 -162l-36 -15h-201l-35 79l280 304l31 13z" />
    <glyph glyph-name="edieresis" unicode="&#xeb;" horiz-adv-x="1103" 
d="M-14 502q0 233 158 391.5t392 158.5q200 0 349 -122t188 -318l-6 -35l-125 -201l-40 -23h-573q76 -105 207 -105h451l48 -48v-203l-48 -47q-88 3 -178 3h-275v-2q-233 1 -390.5 159.5t-157.5 391.5zM534 47h406v106h-404q-111 0 -201.5 63.5t-127.5 168.5l45 63h623
l101 163q-37 156 -158.5 251t-281.5 95q-195 0 -325 -130.5t-130 -324.5t129.5 -324t322.5 -131h1zM864 618l-45 -63h-567l-45 63q37 105 127.5 168.5t201.5 63.5q112 0 201 -63t127 -169zM682 709q-64 46 -146 46q-131 0 -207 -105h413q-24 34 -60 59zM241 1515l48 48h178
l48 -48v-195l-48 -47h-178l-48 47v195zM336 1468v-100h84v100h-84zM596 1515l47 48h179l47 -48v-195l-47 -47h-179l-47 47v195zM691 1468v-100h83v100h-83z" />
    <glyph glyph-name="igrave" unicode="&#xec;" horiz-adv-x="435" 
d="M81 55h105v909h-105v-909zM-14 8v1004l47 47h201l47 -47v-1004l-47 -48h-201zM149 1285h127l-122 208h-127zM81 1214l-178 303l41 71h237l41 -23l178 -303l-41 -72h-237z" />
    <glyph glyph-name="iacute" unicode="&#xed;" horiz-adv-x="436" 
d="M81 55h105v909h-105v-909zM-14 8v1004l47 47h201l47 -47v-1004l-47 -48h-201zM223 1214l-41 -24h-237l-41 72l178 303l41 23h237l41 -71zM155 1285l122 208h-127l-122 -208h127z" />
    <glyph glyph-name="icircumflex" unicode="&#xee;" horiz-adv-x="538" 
d="M81 55h105v909h-105v-909zM-14 8v1004l47 47h201l47 -47v-1004l-47 -48h-201zM68 1524l-152 -209h41l129 180h77l128 -179h40l-165 227q-12 -18 -42 -19h-56zM25 1559l26 61l73 -1q22 -2 40 -10q45 -19 66 -69l-32 79h6l39 -20l219 -303l-38 -75h-157l-39 20l-104 145
l-104 -146l-39 -20h-159l-38 75l221 304l39 20q4 -4 -19 -60z" />
    <glyph glyph-name="idieresis" unicode="&#xef;" horiz-adv-x="469" 
d="M81 55h105v909h-105v-909zM-14 8v1004l47 47h201l47 -47v-1004l-47 -48h-201zM-124 1515l47 48h142l47 -48v-191l-47 -47h-142l-47 47v191zM-29 1468v-96h46v96h-46zM156 1515l47 48h142l47 -48v-191l-47 -47h-142l-47 47v191zM251 1468v-96h46v96h-46z" />
    <glyph glyph-name="eth" unicode="&#xf0;" 
 />
    <glyph glyph-name="ntilde" unicode="&#xf1;" horiz-adv-x="1114" 
d="M81 509v-454h105v454q0 150 100 250t250 100q148 0 248 -100.5t100 -249.5v-454h106v454q0 195 -130 325t-324 130q-193 0 -324 -131t-131 -324zM536 1059q233 0 391 -158t158 -392v-501l-48 -48h-200l-48 48v501q0 110 -72 182.5t-181 72.5q-110 0 -182.5 -72.5
t-72.5 -182.5v-501l-47 -48h-201l-47 48v501q0 233 158.5 391.5t391.5 158.5zM873 1288l-47 -47h-110l-47 47v124q0 21 -4 26q-5 1 -7 1q-4 -8 -4 -26q0 -92 -60.5 -157t-151.5 -65t-151.5 64.5t-60.5 156.5v123l47 48h110l47 -48v-123q0 -22 4 -27q5 -1 7 -1q4 8 4 28
q0 89 60 154.5t152 65.5t152 -64t60 -156v-124zM653 1537q-54 0 -90 -36t-36 -89q0 -88 -77 -88q-76 0 -76 88v82h-49v-82q0 -52 35 -89t90 -37q56 0 92 39q34 36 34 88q0 87 77 87q76 0 76 -88v-83h49v83q0 52 -34.5 88.5t-90.5 36.5z" />
    <glyph glyph-name="ograve" unicode="&#xf2;" horiz-adv-x="1114" 
d="M81 509q0 -193 130.5 -323.5t324.5 -130.5q193 0 323.5 130.5t130.5 323.5q0 195 -130 325t-324 130q-193 0 -324 -131t-131 -324zM536 1059q233 0 391 -158t158 -392q0 -233 -158 -391t-391 -158t-391.5 158t-158.5 391t158.5 391.5t391.5 158.5zM884 509
q0 -148 -100 -248t-248 -100q-149 0 -249.5 100t-100.5 248q0 150 100 250t250 100q148 0 248 -101t100 -249zM536 764q-110 0 -182.5 -72.5t-72.5 -182.5q0 -109 72.5 -181t182.5 -72q109 0 181 72t72 181t-72.5 182t-180.5 73zM506 1285h127l-122 208h-127zM438 1214
l-178 303l41 71h238l41 -23l177 -303l-41 -72h-237z" />
    <glyph glyph-name="oacute" unicode="&#xf3;" horiz-adv-x="1114" 
d="M81 509q0 -193 130.5 -323.5t324.5 -130.5q193 0 323.5 130.5t130.5 323.5q0 195 -130 325t-324 130q-193 0 -324 -131t-131 -324zM536 1059q233 0 391 -158t158 -392q0 -233 -158 -391t-391 -158t-391.5 158t-158.5 391t158.5 391.5t391.5 158.5zM884 509
q0 -148 -100 -248t-248 -100q-149 0 -249.5 100t-100.5 248q0 150 100 250t250 100q148 0 248 -101t100 -249zM536 764q-110 0 -182.5 -72.5t-72.5 -182.5q0 -109 72.5 -181t182.5 -72q109 0 181 72t72 181t-72.5 182t-180.5 73zM601 1214l-41 -24h-238l-41 72l178 303
l41 23h237l41 -71zM532 1285l122 208h-127l-122 -208h127z" />
    <glyph glyph-name="ocircumflex" unicode="&#xf4;" horiz-adv-x="1114" 
d="M81 509q0 -193 130.5 -323.5t324.5 -130.5q193 0 323.5 130.5t130.5 323.5q0 195 -130 325t-324 130q-193 0 -324 -131t-131 -324zM536 1059q233 0 391 -158t158 -392q0 -233 -158 -391t-391 -158t-391.5 158t-158.5 391t158.5 391.5t391.5 158.5zM884 509
q0 -148 -100 -248t-248 -100q-149 0 -249.5 100t-100.5 248q0 150 100 250t250 100q148 0 248 -101t100 -249zM536 764q-110 0 -182.5 -72.5t-72.5 -182.5q0 -109 72.5 -181t182.5 -72q109 0 181 72t72 181t-72.5 182t-180.5 73zM436 1588v2q-3 -10 -9 -23zM620 1528h-108
q-23 -2 -49 -3l-194 -209h72l167 185h71l166 -184h68zM457 1621l-8 1h1h17l174 -1l16 -8l22 -10l277 -302l-35 -79h-197l-35 15l-146 161l-146 -162l-35 -15h-201l-35 79l280 304l30 13z" />
    <glyph glyph-name="otilde" unicode="&#xf5;" horiz-adv-x="1114" 
d="M81 509q0 -193 130.5 -323.5t324.5 -130.5q193 0 323.5 130.5t130.5 323.5q0 195 -130 325t-324 130q-193 0 -324 -131t-131 -324zM536 1059q233 0 391 -158t158 -392q0 -233 -158 -391t-391 -158t-391.5 158t-158.5 391t158.5 391.5t391.5 158.5zM884 509
q0 -148 -100 -248t-248 -100q-149 0 -249.5 100t-100.5 248q0 150 100 250t250 100q148 0 248 -101t100 -249zM536 764q-110 0 -182.5 -72.5t-72.5 -182.5q0 -109 72.5 -181t182.5 -72q109 0 181 72t72 181t-72.5 182t-180.5 73zM834 1288l-47 -47h-110l-47 47v124
q0 21 -4 26q-5 1 -7 1q-4 -8 -4 -26q0 -92 -60.5 -157t-151.5 -65t-151.5 64.5t-60.5 156.5v123l47 48h110l47 -48v-123q0 -22 4 -27q5 -1 7 -1q4 8 4 28q0 89 60 154.5t152 65.5t152 -64t60 -156v-124zM614 1537q-54 0 -90 -36t-36 -89q0 -88 -77 -88q-76 0 -76 88v82h-49
v-82q0 -52 35 -89t90 -37q56 0 92 39q34 36 34 88q0 87 77 87q76 0 76 -88v-83h49v83q0 52 -34.5 88.5t-90.5 36.5z" />
    <glyph glyph-name="odieresis" unicode="&#xf6;" horiz-adv-x="1114" 
d="M81 509q0 -193 130.5 -323.5t324.5 -130.5q193 0 323.5 130.5t130.5 323.5q0 195 -130 325t-324 130q-193 0 -324 -131t-131 -324zM536 1059q233 0 391 -158t158 -392q0 -233 -158 -391t-391 -158t-391.5 158t-158.5 391t158.5 391.5t391.5 158.5zM884 509
q0 -148 -100 -248t-248 -100q-149 0 -249.5 100t-100.5 248q0 150 100 250t250 100q148 0 248 -101t100 -249zM536 764q-110 0 -182.5 -72.5t-72.5 -182.5q0 -109 72.5 -181t182.5 -72q109 0 181 72t72 181t-72.5 182t-180.5 73zM223 1515l48 48h178l48 -48v-195l-48 -47
h-178l-48 47v195zM318 1468v-100h84v100h-84zM578 1515l47 48h179l47 -48v-195l-47 -47h-179l-47 47v195zM673 1468v-100h83v100h-83z" />
    <glyph glyph-name="divide" unicode="&#xf7;" horiz-adv-x="961" 
d="M789 700v106h-708v-106h708zM837 605h-804l-47 48v200l47 48h804l47 -48v-200zM481 408v106h-106v-106h106zM528 313h-200l-48 48v200l48 48h200l48 -48v-200zM481 978v106h-106v-106h106zM528 883h-200l-48 48v200l48 48h200l48 -48v-200z" />
    <glyph glyph-name="oslash" unicode="&#xf8;" 
 />
    <glyph glyph-name="ugrave" unicode="&#xf9;" horiz-adv-x="1114" 
d="M884 502q0 -149 -100 -249t-248 -100q-149 0 -249.5 100t-100.5 249v455h-105v-455q0 -195 130 -325t325 -130q193 0 323.5 130.5t130.5 324.5v455h-106v-455zM789 502v502l48 48h200l48 -48v-502q0 -233 -158 -391t-391 -158q-234 0 -392 157.5t-158 391.5v502l47 48
h201l47 -48v-502q0 -110 72.5 -182t182.5 -72q109 0 181 72t72 182zM545 1285h127l-122 208h-127zM477 1214l-178 303l41 71h238l41 -23l177 -303l-41 -72h-237z" />
    <glyph glyph-name="uacute" unicode="&#xfa;" horiz-adv-x="1114" 
d="M884 502q0 -149 -100 -249t-248 -100q-149 0 -249.5 100t-100.5 249v455h-105v-455q0 -195 130 -325t325 -130q193 0 323.5 130.5t130.5 324.5v455h-106v-455zM789 502v502l48 48h200l48 -48v-502q0 -233 -158 -391t-391 -158q-234 0 -392 157.5t-158 391.5v502l47 48
h201l47 -48v-502q0 -110 72.5 -182t182.5 -72q109 0 181 72t72 182zM588 1214l-41 -24h-237l-41 72l177 303l41 23h238l41 -71zM520 1285l122 208h-127l-122 -208h127z" />
    <glyph glyph-name="ucircumflex" unicode="&#xfb;" horiz-adv-x="1114" 
d="M884 502q0 -149 -100 -249t-248 -100q-149 0 -249.5 100t-100.5 249v455h-105v-455q0 -195 130 -325t325 -130q193 0 323.5 130.5t130.5 324.5v455h-106v-455zM789 502v502l48 48h200l48 -48v-502q0 -233 -158 -391t-391 -158q-234 0 -392 157.5t-158 391.5v502l47 48
h201l47 -48v-502q0 -110 72.5 -182t182.5 -72q109 0 181 72t72 182zM442 1588v2l-9 -23zM625 1528h-107q-24 -2 -50 -3l-193 -209h72l167 185h70l167 -184h68zM463 1621l-8 1v0h18l174 -1l16 -8l22 -10l277 -302l-35 -79h-197l-36 15l-145 161l-146 -162l-35 -15h-202
l-35 79l281 304l30 13z" />
    <glyph glyph-name="udieresis" unicode="&#xfc;" horiz-adv-x="1114" 
d="M884 502q0 -149 -100 -249t-248 -100q-149 0 -249.5 100t-100.5 249v455h-105v-455q0 -195 130 -325t325 -130q193 0 323.5 130.5t130.5 324.5v455h-106v-455zM789 502v502l48 48h200l48 -48v-502q0 -233 -158 -391t-391 -158q-234 0 -392 157.5t-158 391.5v502l47 48
h201l47 -48v-502q0 -110 72.5 -182t182.5 -72q109 0 181 72t72 182zM248 1515l47 48h179l48 -48v-195l-48 -47h-179l-47 47v195zM343 1468v-100h84v100h-84zM602 1515l48 48h178l48 -48v-195l-48 -47h-178l-48 47v195zM697 1468v-100h84v100h-84z" />
    <glyph glyph-name="yacute" unicode="&#xfd;" horiz-adv-x="1114" 
d="M884 502q0 -149 -100 -249t-248 -100q-149 0 -249.5 100t-100.5 249v455h-105v-455q0 -195 130 -325t325 -130q151 0 273 91l75 -38v-100q0 -149 -100 -249t-248 -100q-202 0 -298 165l-103 -33q126 -238 401 -238q193 0 323.5 131t130.5 324v957h-106v-455zM789 502v502
l48 48h200l48 -48v-1004q0 -233 -158.5 -391.5t-390.5 -158.5q-171 0 -308.5 92.5t-202.5 251.5l30 63l193 62l57 -26q68 -147 231 -147q109 0 181 72.5t72 181.5v14q-116 -61 -253 -61q-234 0 -392 157.5t-158 391.5v502l47 48h201l47 -48v-502q0 -110 72.5 -182t182.5 -72
q109 0 181 72t72 182zM604 1214l-41 -24h-237l-41 72l178 303l40 23h238l41 -71zM536 1285l122 208h-127l-122 -208h127z" />
    <glyph glyph-name="thorn" unicode="&#xfe;" horiz-adv-x="1161" 
d="M262 883l-76 38v304h-105v-1411h105v304l76 38q122 -91 274 -91q193 0 323.5 130.5t130.5 324.5q0 193 -130.5 323.5t-323.5 130.5q-152 0 -274 -91zM281 1007q117 62 255 62q233 0 391 -158.5t158 -390.5q0 -233 -158.5 -391.5t-390.5 -158.5q-138 0 -255 61v-265
l-47 -47h-201l-47 47v1506l47 48h201l47 -48v-265zM884 520q0 -149 -100 -249t-248 -100q-150 0 -250 99.5t-100 249.5q0 148 100.5 248t249.5 100q148 0 248 -100t100 -248zM536 773q-110 0 -182.5 -72t-72.5 -181q0 -111 72.5 -182.5t182.5 -71.5q109 0 181 72t72 182
q0 108 -72.5 180.5t-180.5 72.5z" />
    <glyph glyph-name="ydieresis" unicode="&#xff;" horiz-adv-x="1114" 
d="M884 502q0 -149 -100 -249t-248 -100q-149 0 -249.5 100t-100.5 249v455h-105v-455q0 -195 130 -325t325 -130q151 0 273 91l75 -38v-100q0 -149 -100 -249t-248 -100q-202 0 -298 165l-103 -33q126 -238 401 -238q193 0 323.5 131t130.5 324v957h-106v-455zM789 502v502
l48 48h200l48 -48v-1004q0 -233 -158.5 -391.5t-390.5 -158.5q-171 0 -308.5 92.5t-202.5 251.5l30 63l193 62l57 -26q68 -147 231 -147q109 0 181 72.5t72 181.5v14q-116 -61 -253 -61q-234 0 -392 157.5t-158 391.5v502l47 48h201l47 -48v-502q0 -110 72.5 -182t182.5 -72
q109 0 181 72t72 182zM212 1515l47 48h179l47 -48v-195l-47 -47h-179l-47 47v195zM307 1468v-100h83v100h-83zM566 1515l48 48h178l48 -48v-195l-48 -47h-178l-48 47v195zM661 1468v-100h84v100h-84z" />
    <glyph glyph-name="dotlessi" unicode="&#x131;" horiz-adv-x="357" 
d="M81 55h105v909h-105v-909zM-14 8v1004l47 47h201l47 -47v-1004l-47 -48h-201z" />
    <glyph glyph-name="caron" unicode="&#x2c7;" horiz-adv-x="991" 
d="M394 1255v-2q-3 10 -8 23zM578 1315h-108q-23 2 -49 3l-194 209h72l167 -185h71l166 184h69zM415 1222l-7 -1v0h18l173 1l17 8l21 9l278 302l-35 80h-198l-35 -16l-145 -160l-147 161l-35 16h-201l-35 -80l280 -303l30 -13z" />
    <glyph glyph-name="ring" unicode="&#x2da;" horiz-adv-x="746" 
d="M167 1389q0 -88 57.5 -145.5t145.5 -57.5q89 0 147 57.5t58 145.5t-58 145.5t-147 57.5q-86 0 -144.5 -58t-58.5 -145zM370 1687q128 0 214 -85.5t86 -212.5q0 -128 -86 -213t-214 -85q-127 0 -212.5 85t-85.5 213q0 126 86 212t212 86zM223 1389q0 63 42.5 105.5
t104.5 42.5q63 0 106 -42.5t43 -105.5t-43 -105.5t-106 -42.5q-61 0 -104 43t-43 105zM370 1336q54 0 54 53t-54 53q-52 0 -52 -53t52 -53z" />
    <glyph glyph-name="glyph221" 
 />
    <glyph glyph-name="glyph222" 
 />
    <glyph glyph-name="glyph220" 
 />
    <glyph glyph-name="glyph221" 
 />
    <glyph glyph-name="ch332" 
 />
    <glyph glyph-name="glyph222" 
 />
    <glyph glyph-name="ch334" 
 />
    <glyph glyph-name="ch333" 
 />
    <glyph glyph-name="glyph4" 
 />
    <glyph glyph-name="glyph110" 
 />
    <glyph glyph-name="glyph111" 
 />
    <glyph glyph-name="glyph112" 
 />
    <glyph glyph-name="glyph113" 
 />
    <glyph glyph-name="glyph126" 
 />
    <glyph glyph-name="glyph127" 
 />
    <glyph glyph-name="glyph228" 
 />
    <glyph glyph-name="glyph229" 
 />
    <glyph glyph-name="ch341" 
 />
    <glyph glyph-name="ch342" 
 />
    <glyph glyph-name="glyph216" 
 />
    <glyph glyph-name="glyph217" 
 />
    <glyph glyph-name="glyph218" unicode="&#xa0;" 
 />
    <glyph glyph-name="ch225" unicode="&#xb7;" horiz-adv-x="494" 
d="M128 783l48 47h194l48 -47v-195l-48 -47h-194l-48 47v195zM223 735v-99h100v99h-100z" />
    </font>
</defs>
</svg>
